<?xml version="1.0" encoding="utf-8" standalone="no"?>
<!DOCTYPE svg PUBLIC "-//W3C//DTD SVG 1.1//EN"
  "http://www.w3.org/Graphics/SVG/1.1/DTD/svg11.dtd">
<!-- Created with matplotlib (http://matplotlib.org/) -->
<svg height="648pt" version="1.1" viewBox="0 0 936 648" width="936pt" xmlns="http://www.w3.org/2000/svg" xmlns:xlink="http://www.w3.org/1999/xlink">
 <defs>
  <style type="text/css">
*{stroke-linecap:butt;stroke-linejoin:round;}
  </style>
 </defs>
 <g id="figure_1">
  <g id="patch_1">
   <path d="M 0 648 
L 936 648 
L 936 0 
L 0 0 
z
" style="fill:#ffffff;"/>
  </g>
  <g id="axes_1">
   <g id="patch_2">
    <path d="M 60.32 623.12 
L 922.68 623.12 
L 922.68 14.76 
L 60.32 14.76 
z
" style="fill:#ffffff;"/>
   </g>
   <g id="patch_3">
    <path clip-path="url(#p9cd14d6529)" d="M 60.32 623.12 
L 63.804283 623.12 
L 63.804283 623.12 
L 60.32 623.12 
z
" style="fill:#0000ff;opacity:0.6;"/>
   </g>
   <g id="patch_4">
    <path clip-path="url(#p9cd14d6529)" d="M 64.675354 623.12 
L 68.159636 623.12 
L 68.159636 623.12 
L 64.675354 623.12 
z
" style="fill:#0000ff;opacity:0.6;"/>
   </g>
   <g id="patch_5">
    <path clip-path="url(#p9cd14d6529)" d="M 69.030707 623.12 
L 72.51499 623.12 
L 72.51499 623.12 
L 69.030707 623.12 
z
" style="fill:#0000ff;opacity:0.6;"/>
   </g>
   <g id="patch_6">
    <path clip-path="url(#p9cd14d6529)" d="M 73.386061 623.12 
L 76.870343 623.12 
L 76.870343 623.12 
L 73.386061 623.12 
z
" style="fill:#0000ff;opacity:0.6;"/>
   </g>
   <g id="patch_7">
    <path clip-path="url(#p9cd14d6529)" d="M 77.741414 623.12 
L 81.225697 623.12 
L 81.225697 623.12 
L 77.741414 623.12 
z
" style="fill:#0000ff;opacity:0.6;"/>
   </g>
   <g id="patch_8">
    <path clip-path="url(#p9cd14d6529)" d="M 82.096768 623.12 
L 85.581051 623.12 
L 85.581051 623.12 
L 82.096768 623.12 
z
" style="fill:#0000ff;opacity:0.6;"/>
   </g>
   <g id="patch_9">
    <path clip-path="url(#p9cd14d6529)" d="M 86.452121 623.12 
L 89.936404 623.12 
L 89.936404 622.734369 
L 86.452121 622.734369 
z
" style="fill:#0000ff;opacity:0.6;"/>
   </g>
   <g id="patch_10">
    <path clip-path="url(#p9cd14d6529)" d="M 90.807475 623.12 
L 94.291758 623.12 
L 94.291758 622.726463 
L 90.807475 622.726463 
z
" style="fill:#0000ff;opacity:0.6;"/>
   </g>
   <g id="patch_11">
    <path clip-path="url(#p9cd14d6529)" d="M 95.162828 623.12 
L 98.647111 623.12 
L 98.647111 622.724373 
L 95.162828 622.724373 
z
" style="fill:#0000ff;opacity:0.6;"/>
   </g>
   <g id="patch_12">
    <path clip-path="url(#p9cd14d6529)" d="M 99.518182 623.12 
L 103.002465 623.12 
L 103.002465 622.718214 
L 99.518182 622.718214 
z
" style="fill:#0000ff;opacity:0.6;"/>
   </g>
   <g id="patch_13">
    <path clip-path="url(#p9cd14d6529)" d="M 103.873535 623.12 
L 107.357818 623.12 
L 107.357818 622.703343 
L 103.873535 622.703343 
z
" style="fill:#0000ff;opacity:0.6;"/>
   </g>
   <g id="patch_14">
    <path clip-path="url(#p9cd14d6529)" d="M 108.228889 623.12 
L 111.713172 623.12 
L 111.713172 622.691607 
L 108.228889 622.691607 
z
" style="fill:#0000ff;opacity:0.6;"/>
   </g>
   <g id="patch_15">
    <path clip-path="url(#p9cd14d6529)" d="M 112.584242 623.12 
L 116.068525 623.12 
L 116.068525 622.685915 
L 112.584242 622.685915 
z
" style="fill:#0000ff;opacity:0.6;"/>
   </g>
   <g id="patch_16">
    <path clip-path="url(#p9cd14d6529)" d="M 116.939596 623.12 
L 120.423879 623.12 
L 120.423879 622.683753 
L 116.939596 622.683753 
z
" style="fill:#0000ff;opacity:0.6;"/>
   </g>
   <g id="patch_17">
    <path clip-path="url(#p9cd14d6529)" d="M 121.294949 623.12 
L 124.779232 623.12 
L 124.779232 622.672141 
L 121.294949 622.672141 
z
" style="fill:#0000ff;opacity:0.6;"/>
   </g>
   <g id="patch_18">
    <path clip-path="url(#p9cd14d6529)" d="M 125.650303 623.12 
L 129.134586 623.12 
L 129.134586 622.666141 
L 125.650303 622.666141 
z
" style="fill:#0000ff;opacity:0.6;"/>
   </g>
   <g id="patch_19">
    <path clip-path="url(#p9cd14d6529)" d="M 130.005657 623.12 
L 133.489939 623.12 
L 133.489939 622.663415 
L 130.005657 622.663415 
z
" style="fill:#0000ff;opacity:0.6;"/>
   </g>
   <g id="patch_20">
    <path clip-path="url(#p9cd14d6529)" d="M 134.36101 623.12 
L 137.845293 623.12 
L 137.845293 622.660572 
L 134.36101 622.660572 
z
" style="fill:#0000ff;opacity:0.6;"/>
   </g>
   <g id="patch_21">
    <path clip-path="url(#p9cd14d6529)" d="M 138.716364 623.12 
L 142.200646 623.12 
L 142.200646 622.660572 
L 138.716364 622.660572 
z
" style="fill:#0000ff;opacity:0.6;"/>
   </g>
   <g id="patch_22">
    <path clip-path="url(#p9cd14d6529)" d="M 143.071717 623.12 
L 146.556 623.12 
L 146.556 622.636367 
L 143.071717 622.636367 
z
" style="fill:#0000ff;opacity:0.6;"/>
   </g>
   <g id="patch_23">
    <path clip-path="url(#p9cd14d6529)" d="M 147.427071 623.12 
L 150.911354 623.12 
L 150.911354 622.635212 
L 147.427071 622.635212 
z
" style="fill:#0000ff;opacity:0.6;"/>
   </g>
   <g id="patch_24">
    <path clip-path="url(#p9cd14d6529)" d="M 151.782424 623.12 
L 155.266707 623.12 
L 155.266707 622.624825 
L 151.782424 622.624825 
z
" style="fill:#0000ff;opacity:0.6;"/>
   </g>
   <g id="patch_25">
    <path clip-path="url(#p9cd14d6529)" d="M 156.137778 623.12 
L 159.622061 623.12 
L 159.622061 622.600861 
L 156.137778 622.600861 
z
" style="fill:#0000ff;opacity:0.6;"/>
   </g>
   <g id="patch_26">
    <path clip-path="url(#p9cd14d6529)" d="M 160.493131 623.12 
L 163.977414 623.12 
L 163.977414 622.565763 
L 160.493131 622.565763 
z
" style="fill:#0000ff;opacity:0.6;"/>
   </g>
   <g id="patch_27">
    <path clip-path="url(#p9cd14d6529)" d="M 164.848485 623.12 
L 168.332768 623.12 
L 168.332768 622.554946 
L 164.848485 622.554946 
z
" style="fill:#0000ff;opacity:0.6;"/>
   </g>
   <g id="patch_28">
    <path clip-path="url(#p9cd14d6529)" d="M 169.203838 623.12 
L 172.688121 623.12 
L 172.688121 622.554342 
L 169.203838 622.554342 
z
" style="fill:#0000ff;opacity:0.6;"/>
   </g>
   <g id="patch_29">
    <path clip-path="url(#p9cd14d6529)" d="M 173.559192 623.12 
L 177.043475 623.12 
L 177.043475 622.554342 
L 173.559192 622.554342 
z
" style="fill:#0000ff;opacity:0.6;"/>
   </g>
   <g id="patch_30">
    <path clip-path="url(#p9cd14d6529)" d="M 177.914545 623.12 
L 181.398828 623.12 
L 181.398828 622.509386 
L 177.914545 622.509386 
z
" style="fill:#0000ff;opacity:0.6;"/>
   </g>
   <g id="patch_31">
    <path clip-path="url(#p9cd14d6529)" d="M 182.269899 623.12 
L 185.754182 623.12 
L 185.754182 622.507028 
L 182.269899 622.507028 
z
" style="fill:#0000ff;opacity:0.6;"/>
   </g>
   <g id="patch_32">
    <path clip-path="url(#p9cd14d6529)" d="M 186.625253 623.12 
L 190.109535 623.12 
L 190.109535 622.506028 
L 186.625253 622.506028 
z
" style="fill:#0000ff;opacity:0.6;"/>
   </g>
   <g id="patch_33">
    <path clip-path="url(#p9cd14d6529)" d="M 190.980606 623.12 
L 194.464889 623.12 
L 194.464889 622.48978 
L 190.980606 622.48978 
z
" style="fill:#0000ff;opacity:0.6;"/>
   </g>
   <g id="patch_34">
    <path clip-path="url(#p9cd14d6529)" d="M 195.33596 623.12 
L 198.820242 623.12 
L 198.820242 622.468389 
L 195.33596 622.468389 
z
" style="fill:#0000ff;opacity:0.6;"/>
   </g>
   <g id="patch_35">
    <path clip-path="url(#p9cd14d6529)" d="M 199.691313 623.12 
L 203.175596 623.12 
L 203.175596 622.461137 
L 199.691313 622.461137 
z
" style="fill:#0000ff;opacity:0.6;"/>
   </g>
   <g id="patch_36">
    <path clip-path="url(#p9cd14d6529)" d="M 204.046667 623.12 
L 207.530949 623.12 
L 207.530949 622.449856 
L 204.046667 622.449856 
z
" style="fill:#0000ff;opacity:0.6;"/>
   </g>
   <g id="patch_37">
    <path clip-path="url(#p9cd14d6529)" d="M 208.40202 623.12 
L 211.886303 623.12 
L 211.886303 622.3976 
L 208.40202 622.3976 
z
" style="fill:#0000ff;opacity:0.6;"/>
   </g>
   <g id="patch_38">
    <path clip-path="url(#p9cd14d6529)" d="M 212.757374 623.12 
L 216.241657 623.12 
L 216.241657 622.3772 
L 212.757374 622.3772 
z
" style="fill:#0000ff;opacity:0.6;"/>
   </g>
   <g id="patch_39">
    <path clip-path="url(#p9cd14d6529)" d="M 217.112727 623.12 
L 220.59701 623.12 
L 220.59701 622.374759 
L 217.112727 622.374759 
z
" style="fill:#0000ff;opacity:0.6;"/>
   </g>
   <g id="patch_40">
    <path clip-path="url(#p9cd14d6529)" d="M 221.468081 623.12 
L 224.952364 623.12 
L 224.952364 622.35903 
L 221.468081 622.35903 
z
" style="fill:#0000ff;opacity:0.6;"/>
   </g>
   <g id="patch_41">
    <path clip-path="url(#p9cd14d6529)" d="M 225.823434 623.12 
L 229.307717 623.12 
L 229.307717 622.355657 
L 225.823434 622.355657 
z
" style="fill:#0000ff;opacity:0.6;"/>
   </g>
   <g id="patch_42">
    <path clip-path="url(#p9cd14d6529)" d="M 230.178788 623.12 
L 233.663071 623.12 
L 233.663071 622.349675 
L 230.178788 622.349675 
z
" style="fill:#0000ff;opacity:0.6;"/>
   </g>
   <g id="patch_43">
    <path clip-path="url(#p9cd14d6529)" d="M 234.534141 623.12 
L 238.018424 623.12 
L 238.018424 622.326557 
L 234.534141 622.326557 
z
" style="fill:#0000ff;opacity:0.6;"/>
   </g>
   <g id="patch_44">
    <path clip-path="url(#p9cd14d6529)" d="M 238.889495 623.12 
L 242.373778 623.12 
L 242.373778 622.322946 
L 238.889495 622.322946 
z
" style="fill:#0000ff;opacity:0.6;"/>
   </g>
   <g id="patch_45">
    <path clip-path="url(#p9cd14d6529)" d="M 243.244848 623.12 
L 246.729131 623.12 
L 246.729131 622.320702 
L 243.244848 622.320702 
z
" style="fill:#0000ff;opacity:0.6;"/>
   </g>
   <g id="patch_46">
    <path clip-path="url(#p9cd14d6529)" d="M 247.600202 623.12 
L 251.084485 623.12 
L 251.084485 622.296138 
L 247.600202 622.296138 
z
" style="fill:#0000ff;opacity:0.6;"/>
   </g>
   <g id="patch_47">
    <path clip-path="url(#p9cd14d6529)" d="M 251.955556 623.12 
L 255.439838 623.12 
L 255.439838 622.292733 
L 251.955556 622.292733 
z
" style="fill:#0000ff;opacity:0.6;"/>
   </g>
   <g id="patch_48">
    <path clip-path="url(#p9cd14d6529)" d="M 256.310909 623.12 
L 259.795192 623.12 
L 259.795192 622.284513 
L 256.310909 622.284513 
z
" style="fill:#0000ff;opacity:0.6;"/>
   </g>
   <g id="patch_49">
    <path clip-path="url(#p9cd14d6529)" d="M 260.666263 623.12 
L 264.150545 623.12 
L 264.150545 622.276643 
L 260.666263 622.276643 
z
" style="fill:#0000ff;opacity:0.6;"/>
   </g>
   <g id="patch_50">
    <path clip-path="url(#p9cd14d6529)" d="M 265.021616 623.12 
L 268.505899 623.12 
L 268.505899 622.178309 
L 265.021616 622.178309 
z
" style="fill:#0000ff;opacity:0.6;"/>
   </g>
   <g id="patch_51">
    <path clip-path="url(#p9cd14d6529)" d="M 269.37697 623.12 
L 272.861253 623.12 
L 272.861253 622.170741 
L 269.37697 622.170741 
z
" style="fill:#0000ff;opacity:0.6;"/>
   </g>
   <g id="patch_52">
    <path clip-path="url(#p9cd14d6529)" d="M 273.732323 623.12 
L 277.216606 623.12 
L 277.216606 622.155856 
L 273.732323 622.155856 
z
" style="fill:#0000ff;opacity:0.6;"/>
   </g>
   <g id="patch_53">
    <path clip-path="url(#p9cd14d6529)" d="M 278.087677 623.12 
L 281.57196 623.12 
L 281.57196 622.120854 
L 278.087677 622.120854 
z
" style="fill:#0000ff;opacity:0.6;"/>
   </g>
   <g id="patch_54">
    <path clip-path="url(#p9cd14d6529)" d="M 282.44303 623.12 
L 285.927313 623.12 
L 285.927313 622.119589 
L 282.44303 622.119589 
z
" style="fill:#0000ff;opacity:0.6;"/>
   </g>
   <g id="patch_55">
    <path clip-path="url(#p9cd14d6529)" d="M 286.798384 623.12 
L 290.282667 623.12 
L 290.282667 622.117177 
L 286.798384 622.117177 
z
" style="fill:#0000ff;opacity:0.6;"/>
   </g>
   <g id="patch_56">
    <path clip-path="url(#p9cd14d6529)" d="M 291.153737 623.12 
L 294.63802 623.12 
L 294.63802 622.094554 
L 291.153737 622.094554 
z
" style="fill:#0000ff;opacity:0.6;"/>
   </g>
   <g id="patch_57">
    <path clip-path="url(#p9cd14d6529)" d="M 295.509091 623.12 
L 298.993374 623.12 
L 298.993374 622.094052 
L 295.509091 622.094052 
z
" style="fill:#0000ff;opacity:0.6;"/>
   </g>
   <g id="patch_58">
    <path clip-path="url(#p9cd14d6529)" d="M 299.864444 623.12 
L 303.348727 623.12 
L 303.348727 622.078494 
L 299.864444 622.078494 
z
" style="fill:#0000ff;opacity:0.6;"/>
   </g>
   <g id="patch_59">
    <path clip-path="url(#p9cd14d6529)" d="M 304.219798 623.12 
L 307.704081 623.12 
L 307.704081 622.066034 
L 304.219798 622.066034 
z
" style="fill:#0000ff;opacity:0.6;"/>
   </g>
   <g id="patch_60">
    <path clip-path="url(#p9cd14d6529)" d="M 308.575152 623.12 
L 312.059434 623.12 
L 312.059434 622.062014 
L 308.575152 622.062014 
z
" style="fill:#0000ff;opacity:0.6;"/>
   </g>
   <g id="patch_61">
    <path clip-path="url(#p9cd14d6529)" d="M 312.930505 623.12 
L 316.414788 623.12 
L 316.414788 622.037702 
L 312.930505 622.037702 
z
" style="fill:#0000ff;opacity:0.6;"/>
   </g>
   <g id="patch_62">
    <path clip-path="url(#p9cd14d6529)" d="M 317.285859 623.12 
L 320.770141 623.12 
L 320.770141 621.976715 
L 317.285859 621.976715 
z
" style="fill:#0000ff;opacity:0.6;"/>
   </g>
   <g id="patch_63">
    <path clip-path="url(#p9cd14d6529)" d="M 321.641212 623.12 
L 325.125495 623.12 
L 325.125495 621.875808 
L 321.641212 621.875808 
z
" style="fill:#0000ff;opacity:0.6;"/>
   </g>
   <g id="patch_64">
    <path clip-path="url(#p9cd14d6529)" d="M 325.996566 623.12 
L 329.480848 623.12 
L 329.480848 621.80354 
L 325.996566 621.80354 
z
" style="fill:#0000ff;opacity:0.6;"/>
   </g>
   <g id="patch_65">
    <path clip-path="url(#p9cd14d6529)" d="M 330.351919 623.12 
L 333.836202 623.12 
L 333.836202 621.80354 
L 330.351919 621.80354 
z
" style="fill:#0000ff;opacity:0.6;"/>
   </g>
   <g id="patch_66">
    <path clip-path="url(#p9cd14d6529)" d="M 334.707273 623.12 
L 338.191556 623.12 
L 338.191556 621.801779 
L 334.707273 621.801779 
z
" style="fill:#0000ff;opacity:0.6;"/>
   </g>
   <g id="patch_67">
    <path clip-path="url(#p9cd14d6529)" d="M 339.062626 623.12 
L 342.546909 623.12 
L 342.546909 621.694935 
L 339.062626 621.694935 
z
" style="fill:#0000ff;opacity:0.6;"/>
   </g>
   <g id="patch_68">
    <path clip-path="url(#p9cd14d6529)" d="M 343.41798 623.12 
L 346.902263 623.12 
L 346.902263 621.673698 
L 343.41798 621.673698 
z
" style="fill:#0000ff;opacity:0.6;"/>
   </g>
   <g id="patch_69">
    <path clip-path="url(#p9cd14d6529)" d="M 347.773333 623.12 
L 351.257616 623.12 
L 351.257616 621.635537 
L 347.773333 621.635537 
z
" style="fill:#0000ff;opacity:0.6;"/>
   </g>
   <g id="patch_70">
    <path clip-path="url(#p9cd14d6529)" d="M 352.128687 623.12 
L 355.61297 623.12 
L 355.61297 621.616337 
L 352.128687 621.616337 
z
" style="fill:#0000ff;opacity:0.6;"/>
   </g>
   <g id="patch_71">
    <path clip-path="url(#p9cd14d6529)" d="M 356.48404 623.12 
L 359.968323 623.12 
L 359.968323 621.5157 
L 356.48404 621.5157 
z
" style="fill:#0000ff;opacity:0.6;"/>
   </g>
   <g id="patch_72">
    <path clip-path="url(#p9cd14d6529)" d="M 360.839394 623.12 
L 364.323677 623.12 
L 364.323677 621.447529 
L 360.839394 621.447529 
z
" style="fill:#0000ff;opacity:0.6;"/>
   </g>
   <g id="patch_73">
    <path clip-path="url(#p9cd14d6529)" d="M 365.194747 623.12 
L 368.67903 623.12 
L 368.67903 621.305219 
L 365.194747 621.305219 
z
" style="fill:#0000ff;opacity:0.6;"/>
   </g>
   <g id="patch_74">
    <path clip-path="url(#p9cd14d6529)" d="M 369.550101 623.12 
L 373.034384 623.12 
L 373.034384 621.2485 
L 369.550101 621.2485 
z
" style="fill:#0000ff;opacity:0.6;"/>
   </g>
   <g id="patch_75">
    <path clip-path="url(#p9cd14d6529)" d="M 373.905455 623.12 
L 377.389737 623.12 
L 377.389737 621.115432 
L 373.905455 621.115432 
z
" style="fill:#0000ff;opacity:0.6;"/>
   </g>
   <g id="patch_76">
    <path clip-path="url(#p9cd14d6529)" d="M 378.260808 623.12 
L 381.745091 623.12 
L 381.745091 621.02526 
L 378.260808 621.02526 
z
" style="fill:#0000ff;opacity:0.6;"/>
   </g>
   <g id="patch_77">
    <path clip-path="url(#p9cd14d6529)" d="M 382.616162 623.12 
L 386.100444 623.12 
L 386.100444 620.914989 
L 382.616162 620.914989 
z
" style="fill:#0000ff;opacity:0.6;"/>
   </g>
   <g id="patch_78">
    <path clip-path="url(#p9cd14d6529)" d="M 386.971515 623.12 
L 390.455798 623.12 
L 390.455798 620.778454 
L 386.971515 620.778454 
z
" style="fill:#0000ff;opacity:0.6;"/>
   </g>
   <g id="patch_79">
    <path clip-path="url(#p9cd14d6529)" d="M 391.326869 623.12 
L 394.811152 623.12 
L 394.811152 620.648253 
L 391.326869 620.648253 
z
" style="fill:#0000ff;opacity:0.6;"/>
   </g>
   <g id="patch_80">
    <path clip-path="url(#p9cd14d6529)" d="M 395.682222 623.12 
L 399.166505 623.12 
L 399.166505 620.596606 
L 395.682222 620.596606 
z
" style="fill:#0000ff;opacity:0.6;"/>
   </g>
   <g id="patch_81">
    <path clip-path="url(#p9cd14d6529)" d="M 400.037576 623.12 
L 403.521859 623.12 
L 403.521859 620.550711 
L 400.037576 620.550711 
z
" style="fill:#0000ff;opacity:0.6;"/>
   </g>
   <g id="patch_82">
    <path clip-path="url(#p9cd14d6529)" d="M 404.392929 623.12 
L 407.877212 623.12 
L 407.877212 620.542362 
L 404.392929 620.542362 
z
" style="fill:#0000ff;opacity:0.6;"/>
   </g>
   <g id="patch_83">
    <path clip-path="url(#p9cd14d6529)" d="M 408.748283 623.12 
L 412.232566 623.12 
L 412.232566 620.542362 
L 408.748283 620.542362 
z
" style="fill:#0000ff;opacity:0.6;"/>
   </g>
   <g id="patch_84">
    <path clip-path="url(#p9cd14d6529)" d="M 413.103636 623.12 
L 416.587919 623.12 
L 416.587919 620.422025 
L 413.103636 620.422025 
z
" style="fill:#0000ff;opacity:0.6;"/>
   </g>
   <g id="patch_85">
    <path clip-path="url(#p9cd14d6529)" d="M 417.45899 623.12 
L 420.943273 623.12 
L 420.943273 620.363854 
L 417.45899 620.363854 
z
" style="fill:#0000ff;opacity:0.6;"/>
   </g>
   <g id="patch_86">
    <path clip-path="url(#p9cd14d6529)" d="M 421.814343 623.12 
L 425.298626 623.12 
L 425.298626 620.321922 
L 421.814343 620.321922 
z
" style="fill:#0000ff;opacity:0.6;"/>
   </g>
   <g id="patch_87">
    <path clip-path="url(#p9cd14d6529)" d="M 426.169697 623.12 
L 429.65398 623.12 
L 429.65398 620.14359 
L 426.169697 620.14359 
z
" style="fill:#0000ff;opacity:0.6;"/>
   </g>
   <g id="patch_88">
    <path clip-path="url(#p9cd14d6529)" d="M 430.525051 623.12 
L 434.009333 623.12 
L 434.009333 619.912142 
L 430.525051 619.912142 
z
" style="fill:#0000ff;opacity:0.6;"/>
   </g>
   <g id="patch_89">
    <path clip-path="url(#p9cd14d6529)" d="M 434.880404 623.12 
L 438.364687 623.12 
L 438.364687 619.907197 
L 434.880404 619.907197 
z
" style="fill:#0000ff;opacity:0.6;"/>
   </g>
   <g id="patch_90">
    <path clip-path="url(#p9cd14d6529)" d="M 439.235758 623.12 
L 442.72004 623.12 
L 442.72004 619.515611 
L 439.235758 619.515611 
z
" style="fill:#0000ff;opacity:0.6;"/>
   </g>
   <g id="patch_91">
    <path clip-path="url(#p9cd14d6529)" d="M 443.591111 623.12 
L 447.075394 623.12 
L 447.075394 618.666111 
L 443.591111 618.666111 
z
" style="fill:#0000ff;opacity:0.6;"/>
   </g>
   <g id="patch_92">
    <path clip-path="url(#p9cd14d6529)" d="M 447.946465 623.12 
L 451.430747 623.12 
L 451.430747 618.593095 
L 447.946465 618.593095 
z
" style="fill:#0000ff;opacity:0.6;"/>
   </g>
   <g id="patch_93">
    <path clip-path="url(#p9cd14d6529)" d="M 452.301818 623.12 
L 455.786101 623.12 
L 455.786101 618.551043 
L 452.301818 618.551043 
z
" style="fill:#0000ff;opacity:0.6;"/>
   </g>
   <g id="patch_94">
    <path clip-path="url(#p9cd14d6529)" d="M 456.657172 623.12 
L 460.141455 623.12 
L 460.141455 617.494806 
L 456.657172 617.494806 
z
" style="fill:#0000ff;opacity:0.6;"/>
   </g>
   <g id="patch_95">
    <path clip-path="url(#p9cd14d6529)" d="M 461.012525 623.12 
L 464.496808 623.12 
L 464.496808 617.08877 
L 461.012525 617.08877 
z
" style="fill:#0000ff;opacity:0.6;"/>
   </g>
   <g id="patch_96">
    <path clip-path="url(#p9cd14d6529)" d="M 465.367879 623.12 
L 468.852162 623.12 
L 468.852162 616.68343 
L 465.367879 616.68343 
z
" style="fill:#0000ff;opacity:0.6;"/>
   </g>
   <g id="patch_97">
    <path clip-path="url(#p9cd14d6529)" d="M 469.723232 623.12 
L 473.207515 623.12 
L 473.207515 616.654524 
L 469.723232 616.654524 
z
" style="fill:#0000ff;opacity:0.6;"/>
   </g>
   <g id="patch_98">
    <path clip-path="url(#p9cd14d6529)" d="M 474.078586 623.12 
L 477.562869 623.12 
L 477.562869 616.614995 
L 474.078586 616.614995 
z
" style="fill:#0000ff;opacity:0.6;"/>
   </g>
   <g id="patch_99">
    <path clip-path="url(#p9cd14d6529)" d="M 478.433939 623.12 
L 481.918222 623.12 
L 481.918222 616.576709 
L 478.433939 616.576709 
z
" style="fill:#0000ff;opacity:0.6;"/>
   </g>
   <g id="patch_100">
    <path clip-path="url(#p9cd14d6529)" d="M 482.789293 623.12 
L 486.273576 623.12 
L 486.273576 616.290418 
L 482.789293 616.290418 
z
" style="fill:#0000ff;opacity:0.6;"/>
   </g>
   <g id="patch_101">
    <path clip-path="url(#p9cd14d6529)" d="M 487.144646 623.12 
L 490.628929 623.12 
L 490.628929 616.147508 
L 487.144646 616.147508 
z
" style="fill:#0000ff;opacity:0.6;"/>
   </g>
   <g id="patch_102">
    <path clip-path="url(#p9cd14d6529)" d="M 491.5 623.12 
L 494.984283 623.12 
L 494.984283 614.779568 
L 491.5 614.779568 
z
" style="fill:#0000ff;opacity:0.6;"/>
   </g>
   <g id="patch_103">
    <path clip-path="url(#p9cd14d6529)" d="M 495.855354 623.12 
L 499.339636 623.12 
L 499.339636 614.62003 
L 495.855354 614.62003 
z
" style="fill:#0000ff;opacity:0.6;"/>
   </g>
   <g id="patch_104">
    <path clip-path="url(#p9cd14d6529)" d="M 500.210707 623.12 
L 503.69499 623.12 
L 503.69499 614.555147 
L 500.210707 614.555147 
z
" style="fill:#0000ff;opacity:0.6;"/>
   </g>
   <g id="patch_105">
    <path clip-path="url(#p9cd14d6529)" d="M 504.566061 623.12 
L 508.050343 623.12 
L 508.050343 614.398615 
L 504.566061 614.398615 
z
" style="fill:#0000ff;opacity:0.6;"/>
   </g>
   <g id="patch_106">
    <path clip-path="url(#p9cd14d6529)" d="M 508.921414 623.12 
L 512.405697 623.12 
L 512.405697 613.367476 
L 508.921414 613.367476 
z
" style="fill:#0000ff;opacity:0.6;"/>
   </g>
   <g id="patch_107">
    <path clip-path="url(#p9cd14d6529)" d="M 513.276768 623.12 
L 516.761051 623.12 
L 516.761051 612.705007 
L 513.276768 612.705007 
z
" style="fill:#0000ff;opacity:0.6;"/>
   </g>
   <g id="patch_108">
    <path clip-path="url(#p9cd14d6529)" d="M 517.632121 623.12 
L 521.116404 623.12 
L 521.116404 612.554759 
L 517.632121 612.554759 
z
" style="fill:#0000ff;opacity:0.6;"/>
   </g>
   <g id="patch_109">
    <path clip-path="url(#p9cd14d6529)" d="M 521.987475 623.12 
L 525.471758 623.12 
L 525.471758 612.373283 
L 521.987475 612.373283 
z
" style="fill:#0000ff;opacity:0.6;"/>
   </g>
   <g id="patch_110">
    <path clip-path="url(#p9cd14d6529)" d="M 526.342828 623.12 
L 529.827111 623.12 
L 529.827111 611.201186 
L 526.342828 611.201186 
z
" style="fill:#0000ff;opacity:0.6;"/>
   </g>
   <g id="patch_111">
    <path clip-path="url(#p9cd14d6529)" d="M 530.698182 623.12 
L 534.182465 623.12 
L 534.182465 610.435073 
L 530.698182 610.435073 
z
" style="fill:#0000ff;opacity:0.6;"/>
   </g>
   <g id="patch_112">
    <path clip-path="url(#p9cd14d6529)" d="M 535.053535 623.12 
L 538.537818 623.12 
L 538.537818 610.384674 
L 535.053535 610.384674 
z
" style="fill:#0000ff;opacity:0.6;"/>
   </g>
   <g id="patch_113">
    <path clip-path="url(#p9cd14d6529)" d="M 539.408889 623.12 
L 542.893172 623.12 
L 542.893172 610.37289 
L 539.408889 610.37289 
z
" style="fill:#0000ff;opacity:0.6;"/>
   </g>
   <g id="patch_114">
    <path clip-path="url(#p9cd14d6529)" d="M 543.764242 623.12 
L 547.248525 623.12 
L 547.248525 610.02098 
L 543.764242 610.02098 
z
" style="fill:#0000ff;opacity:0.6;"/>
   </g>
   <g id="patch_115">
    <path clip-path="url(#p9cd14d6529)" d="M 548.119596 623.12 
L 551.603879 623.12 
L 551.603879 609.714173 
L 548.119596 609.714173 
z
" style="fill:#0000ff;opacity:0.6;"/>
   </g>
   <g id="patch_116">
    <path clip-path="url(#p9cd14d6529)" d="M 552.474949 623.12 
L 555.959232 623.12 
L 555.959232 609.713463 
L 552.474949 609.713463 
z
" style="fill:#0000ff;opacity:0.6;"/>
   </g>
   <g id="patch_117">
    <path clip-path="url(#p9cd14d6529)" d="M 556.830303 623.12 
L 560.314586 623.12 
L 560.314586 609.659835 
L 556.830303 609.659835 
z
" style="fill:#0000ff;opacity:0.6;"/>
   </g>
   <g id="patch_118">
    <path clip-path="url(#p9cd14d6529)" d="M 561.185657 623.12 
L 564.669939 623.12 
L 564.669939 609.231319 
L 561.185657 609.231319 
z
" style="fill:#0000ff;opacity:0.6;"/>
   </g>
   <g id="patch_119">
    <path clip-path="url(#p9cd14d6529)" d="M 565.54101 623.12 
L 569.025293 623.12 
L 569.025293 606.148998 
L 565.54101 606.148998 
z
" style="fill:#0000ff;opacity:0.6;"/>
   </g>
   <g id="patch_120">
    <path clip-path="url(#p9cd14d6529)" d="M 569.896364 623.12 
L 573.380646 623.12 
L 573.380646 604.818987 
L 569.896364 604.818987 
z
" style="fill:#0000ff;opacity:0.6;"/>
   </g>
   <g id="patch_121">
    <path clip-path="url(#p9cd14d6529)" d="M 574.251717 623.12 
L 577.736 623.12 
L 577.736 602.897717 
L 574.251717 602.897717 
z
" style="fill:#0000ff;opacity:0.6;"/>
   </g>
   <g id="patch_122">
    <path clip-path="url(#p9cd14d6529)" d="M 578.607071 623.12 
L 582.091354 623.12 
L 582.091354 601.358148 
L 578.607071 601.358148 
z
" style="fill:#0000ff;opacity:0.6;"/>
   </g>
   <g id="patch_123">
    <path clip-path="url(#p9cd14d6529)" d="M 582.962424 623.12 
L 586.446707 623.12 
L 586.446707 601.358148 
L 582.962424 601.358148 
z
" style="fill:#0000ff;opacity:0.6;"/>
   </g>
   <g id="patch_124">
    <path clip-path="url(#p9cd14d6529)" d="M 587.317778 623.12 
L 590.802061 623.12 
L 590.802061 598.957391 
L 587.317778 598.957391 
z
" style="fill:#0000ff;opacity:0.6;"/>
   </g>
   <g id="patch_125">
    <path clip-path="url(#p9cd14d6529)" d="M 591.673131 623.12 
L 595.157414 623.12 
L 595.157414 597.829963 
L 591.673131 597.829963 
z
" style="fill:#0000ff;opacity:0.6;"/>
   </g>
   <g id="patch_126">
    <path clip-path="url(#p9cd14d6529)" d="M 596.028485 623.12 
L 599.512768 623.12 
L 599.512768 596.095441 
L 596.028485 596.095441 
z
" style="fill:#0000ff;opacity:0.6;"/>
   </g>
   <g id="patch_127">
    <path clip-path="url(#p9cd14d6529)" d="M 600.383838 623.12 
L 603.868121 623.12 
L 603.868121 595.062748 
L 600.383838 595.062748 
z
" style="fill:#0000ff;opacity:0.6;"/>
   </g>
   <g id="patch_128">
    <path clip-path="url(#p9cd14d6529)" d="M 604.739192 623.12 
L 608.223475 623.12 
L 608.223475 595.062748 
L 604.739192 595.062748 
z
" style="fill:#0000ff;opacity:0.6;"/>
   </g>
   <g id="patch_129">
    <path clip-path="url(#p9cd14d6529)" d="M 609.094545 623.12 
L 612.578828 623.12 
L 612.578828 595.062748 
L 609.094545 595.062748 
z
" style="fill:#0000ff;opacity:0.6;"/>
   </g>
   <g id="patch_130">
    <path clip-path="url(#p9cd14d6529)" d="M 613.449899 623.12 
L 616.934182 623.12 
L 616.934182 590.387424 
L 613.449899 590.387424 
z
" style="fill:#0000ff;opacity:0.6;"/>
   </g>
   <g id="patch_131">
    <path clip-path="url(#p9cd14d6529)" d="M 617.805253 623.12 
L 621.289535 623.12 
L 621.289535 589.84357 
L 617.805253 589.84357 
z
" style="fill:#0000ff;opacity:0.6;"/>
   </g>
   <g id="patch_132">
    <path clip-path="url(#p9cd14d6529)" d="M 622.160606 623.12 
L 625.644889 623.12 
L 625.644889 588.808577 
L 622.160606 588.808577 
z
" style="fill:#0000ff;opacity:0.6;"/>
   </g>
   <g id="patch_133">
    <path clip-path="url(#p9cd14d6529)" d="M 626.51596 623.12 
L 630.000242 623.12 
L 630.000242 583.54937 
L 626.51596 583.54937 
z
" style="fill:#0000ff;opacity:0.6;"/>
   </g>
   <g id="patch_134">
    <path clip-path="url(#p9cd14d6529)" d="M 630.871313 623.12 
L 634.355596 623.12 
L 634.355596 576.870244 
L 630.871313 576.870244 
z
" style="fill:#0000ff;opacity:0.6;"/>
   </g>
   <g id="patch_135">
    <path clip-path="url(#p9cd14d6529)" d="M 635.226667 623.12 
L 638.710949 623.12 
L 638.710949 575.567296 
L 635.226667 575.567296 
z
" style="fill:#0000ff;opacity:0.6;"/>
   </g>
   <g id="patch_136">
    <path clip-path="url(#p9cd14d6529)" d="M 639.58202 623.12 
L 643.066303 623.12 
L 643.066303 573.134377 
L 639.58202 573.134377 
z
" style="fill:#0000ff;opacity:0.6;"/>
   </g>
   <g id="patch_137">
    <path clip-path="url(#p9cd14d6529)" d="M 643.937374 623.12 
L 647.421657 623.12 
L 647.421657 572.146745 
L 643.937374 572.146745 
z
" style="fill:#0000ff;opacity:0.6;"/>
   </g>
   <g id="patch_138">
    <path clip-path="url(#p9cd14d6529)" d="M 648.292727 623.12 
L 651.77701 623.12 
L 651.77701 571.541589 
L 648.292727 571.541589 
z
" style="fill:#0000ff;opacity:0.6;"/>
   </g>
   <g id="patch_139">
    <path clip-path="url(#p9cd14d6529)" d="M 652.648081 623.12 
L 656.132364 623.12 
L 656.132364 570.911369 
L 652.648081 570.911369 
z
" style="fill:#0000ff;opacity:0.6;"/>
   </g>
   <g id="patch_140">
    <path clip-path="url(#p9cd14d6529)" d="M 657.003434 623.12 
L 660.487717 623.12 
L 660.487717 570.911369 
L 657.003434 570.911369 
z
" style="fill:#0000ff;opacity:0.6;"/>
   </g>
   <g id="patch_141">
    <path clip-path="url(#p9cd14d6529)" d="M 661.358788 623.12 
L 664.843071 623.12 
L 664.843071 570.911369 
L 661.358788 570.911369 
z
" style="fill:#0000ff;opacity:0.6;"/>
   </g>
   <g id="patch_142">
    <path clip-path="url(#p9cd14d6529)" d="M 665.714141 623.12 
L 669.198424 623.12 
L 669.198424 570.911369 
L 665.714141 570.911369 
z
" style="fill:#0000ff;opacity:0.6;"/>
   </g>
   <g id="patch_143">
    <path clip-path="url(#p9cd14d6529)" d="M 670.069495 623.12 
L 673.553778 623.12 
L 673.553778 570.911369 
L 670.069495 570.911369 
z
" style="fill:#0000ff;opacity:0.6;"/>
   </g>
   <g id="patch_144">
    <path clip-path="url(#p9cd14d6529)" d="M 674.424848 623.12 
L 677.909131 623.12 
L 677.909131 570.312889 
L 674.424848 570.312889 
z
" style="fill:#0000ff;opacity:0.6;"/>
   </g>
   <g id="patch_145">
    <path clip-path="url(#p9cd14d6529)" d="M 678.780202 623.12 
L 682.264485 623.12 
L 682.264485 570.312889 
L 678.780202 570.312889 
z
" style="fill:#0000ff;opacity:0.6;"/>
   </g>
   <g id="patch_146">
    <path clip-path="url(#p9cd14d6529)" d="M 683.135556 623.12 
L 686.619838 623.12 
L 686.619838 568.213394 
L 683.135556 568.213394 
z
" style="fill:#0000ff;opacity:0.6;"/>
   </g>
   <g id="patch_147">
    <path clip-path="url(#p9cd14d6529)" d="M 687.490909 623.12 
L 690.975192 623.12 
L 690.975192 554.062606 
L 687.490909 554.062606 
z
" style="fill:#0000ff;opacity:0.6;"/>
   </g>
   <g id="patch_148">
    <path clip-path="url(#p9cd14d6529)" d="M 691.846263 623.12 
L 695.330545 623.12 
L 695.330545 553.534592 
L 691.846263 553.534592 
z
" style="fill:#0000ff;opacity:0.6;"/>
   </g>
   <g id="patch_149">
    <path clip-path="url(#p9cd14d6529)" d="M 696.201616 623.12 
L 699.685899 623.12 
L 699.685899 542.341649 
L 696.201616 542.341649 
z
" style="fill:#0000ff;opacity:0.6;"/>
   </g>
   <g id="patch_150">
    <path clip-path="url(#p9cd14d6529)" d="M 700.55697 623.12 
L 704.041253 623.12 
L 704.041253 526.840232 
L 700.55697 526.840232 
z
" style="fill:#0000ff;opacity:0.6;"/>
   </g>
   <g id="patch_151">
    <path clip-path="url(#p9cd14d6529)" d="M 704.912323 623.12 
L 708.396606 623.12 
L 708.396606 524.488288 
L 704.912323 524.488288 
z
" style="fill:#0000ff;opacity:0.6;"/>
   </g>
   <g id="patch_152">
    <path clip-path="url(#p9cd14d6529)" d="M 709.267677 623.12 
L 712.75196 623.12 
L 712.75196 515.864584 
L 709.267677 515.864584 
z
" style="fill:#0000ff;opacity:0.6;"/>
   </g>
   <g id="patch_153">
    <path clip-path="url(#p9cd14d6529)" d="M 713.62303 623.12 
L 717.107313 623.12 
L 717.107313 515.832478 
L 713.62303 515.832478 
z
" style="fill:#0000ff;opacity:0.6;"/>
   </g>
   <g id="patch_154">
    <path clip-path="url(#p9cd14d6529)" d="M 717.978384 623.12 
L 721.462667 623.12 
L 721.462667 514.198402 
L 717.978384 514.198402 
z
" style="fill:#0000ff;opacity:0.6;"/>
   </g>
   <g id="patch_155">
    <path clip-path="url(#p9cd14d6529)" d="M 722.333737 623.12 
L 725.81802 623.12 
L 725.81802 507.406515 
L 722.333737 507.406515 
z
" style="fill:#0000ff;opacity:0.6;"/>
   </g>
   <g id="patch_156">
    <path clip-path="url(#p9cd14d6529)" d="M 726.689091 623.12 
L 730.173374 623.12 
L 730.173374 502.888671 
L 726.689091 502.888671 
z
" style="fill:#0000ff;opacity:0.6;"/>
   </g>
   <g id="patch_157">
    <path clip-path="url(#p9cd14d6529)" d="M 731.044444 623.12 
L 734.528727 623.12 
L 734.528727 502.263693 
L 731.044444 502.263693 
z
" style="fill:#0000ff;opacity:0.6;"/>
   </g>
   <g id="patch_158">
    <path clip-path="url(#p9cd14d6529)" d="M 735.399798 623.12 
L 738.884081 623.12 
L 738.884081 495.971974 
L 735.399798 495.971974 
z
" style="fill:#0000ff;opacity:0.6;"/>
   </g>
   <g id="patch_159">
    <path clip-path="url(#p9cd14d6529)" d="M 739.755152 623.12 
L 743.239434 623.12 
L 743.239434 491.690414 
L 739.755152 491.690414 
z
" style="fill:#0000ff;opacity:0.6;"/>
   </g>
   <g id="patch_160">
    <path clip-path="url(#p9cd14d6529)" d="M 744.110505 623.12 
L 747.594788 623.12 
L 747.594788 488.01541 
L 744.110505 488.01541 
z
" style="fill:#0000ff;opacity:0.6;"/>
   </g>
   <g id="patch_161">
    <path clip-path="url(#p9cd14d6529)" d="M 748.465859 623.12 
L 751.950141 623.12 
L 751.950141 485.403033 
L 748.465859 485.403033 
z
" style="fill:#0000ff;opacity:0.6;"/>
   </g>
   <g id="patch_162">
    <path clip-path="url(#p9cd14d6529)" d="M 752.821212 623.12 
L 756.305495 623.12 
L 756.305495 484.97464 
L 752.821212 484.97464 
z
" style="fill:#0000ff;opacity:0.6;"/>
   </g>
   <g id="patch_163">
    <path clip-path="url(#p9cd14d6529)" d="M 757.176566 623.12 
L 760.660848 623.12 
L 760.660848 484.225145 
L 757.176566 484.225145 
z
" style="fill:#0000ff;opacity:0.6;"/>
   </g>
   <g id="patch_164">
    <path clip-path="url(#p9cd14d6529)" d="M 761.531919 623.12 
L 765.016202 623.12 
L 765.016202 483.576669 
L 761.531919 483.576669 
z
" style="fill:#0000ff;opacity:0.6;"/>
   </g>
   <g id="patch_165">
    <path clip-path="url(#p9cd14d6529)" d="M 765.887273 623.12 
L 769.371556 623.12 
L 769.371556 483.292163 
L 765.887273 483.292163 
z
" style="fill:#0000ff;opacity:0.6;"/>
   </g>
   <g id="patch_166">
    <path clip-path="url(#p9cd14d6529)" d="M 770.242626 623.12 
L 773.726909 623.12 
L 773.726909 479.947982 
L 770.242626 479.947982 
z
" style="fill:#0000ff;opacity:0.6;"/>
   </g>
   <g id="patch_167">
    <path clip-path="url(#p9cd14d6529)" d="M 774.59798 623.12 
L 778.082263 623.12 
L 778.082263 479.947982 
L 774.59798 479.947982 
z
" style="fill:#0000ff;opacity:0.6;"/>
   </g>
   <g id="patch_168">
    <path clip-path="url(#p9cd14d6529)" d="M 778.953333 623.12 
L 782.437616 623.12 
L 782.437616 479.947982 
L 778.953333 479.947982 
z
" style="fill:#0000ff;opacity:0.6;"/>
   </g>
   <g id="patch_169">
    <path clip-path="url(#p9cd14d6529)" d="M 783.308687 623.12 
L 786.79297 623.12 
L 786.79297 479.947982 
L 783.308687 479.947982 
z
" style="fill:#0000ff;opacity:0.6;"/>
   </g>
   <g id="patch_170">
    <path clip-path="url(#p9cd14d6529)" d="M 787.66404 623.12 
L 791.148323 623.12 
L 791.148323 479.947982 
L 787.66404 479.947982 
z
" style="fill:#0000ff;opacity:0.6;"/>
   </g>
   <g id="patch_171">
    <path clip-path="url(#p9cd14d6529)" d="M 792.019394 623.12 
L 795.503677 623.12 
L 795.503677 479.947982 
L 792.019394 479.947982 
z
" style="fill:#0000ff;opacity:0.6;"/>
   </g>
   <g id="patch_172">
    <path clip-path="url(#p9cd14d6529)" d="M 796.374747 623.12 
L 799.85903 623.12 
L 799.85903 479.773347 
L 796.374747 479.773347 
z
" style="fill:#0000ff;opacity:0.6;"/>
   </g>
   <g id="patch_173">
    <path clip-path="url(#p9cd14d6529)" d="M 800.730101 623.12 
L 804.214384 623.12 
L 804.214384 478.145057 
L 800.730101 478.145057 
z
" style="fill:#0000ff;opacity:0.6;"/>
   </g>
   <g id="patch_174">
    <path clip-path="url(#p9cd14d6529)" d="M 805.085455 623.12 
L 808.569737 623.12 
L 808.569737 478.145057 
L 805.085455 478.145057 
z
" style="fill:#0000ff;opacity:0.6;"/>
   </g>
   <g id="patch_175">
    <path clip-path="url(#p9cd14d6529)" d="M 809.440808 623.12 
L 812.925091 623.12 
L 812.925091 478.130476 
L 809.440808 478.130476 
z
" style="fill:#0000ff;opacity:0.6;"/>
   </g>
   <g id="patch_176">
    <path clip-path="url(#p9cd14d6529)" d="M 813.796162 623.12 
L 817.280444 623.12 
L 817.280444 467.509857 
L 813.796162 467.509857 
z
" style="fill:#0000ff;opacity:0.6;"/>
   </g>
   <g id="patch_177">
    <path clip-path="url(#p9cd14d6529)" d="M 818.151515 623.12 
L 821.635798 623.12 
L 821.635798 467.330084 
L 818.151515 467.330084 
z
" style="fill:#0000ff;opacity:0.6;"/>
   </g>
   <g id="patch_178">
    <path clip-path="url(#p9cd14d6529)" d="M 822.506869 623.12 
L 825.991152 623.12 
L 825.991152 459.779637 
L 822.506869 459.779637 
z
" style="fill:#0000ff;opacity:0.6;"/>
   </g>
   <g id="patch_179">
    <path clip-path="url(#p9cd14d6529)" d="M 826.862222 623.12 
L 830.346505 623.12 
L 830.346505 458.72427 
L 826.862222 458.72427 
z
" style="fill:#0000ff;opacity:0.6;"/>
   </g>
   <g id="patch_180">
    <path clip-path="url(#p9cd14d6529)" d="M 831.217576 623.12 
L 834.701859 623.12 
L 834.701859 437.192466 
L 831.217576 437.192466 
z
" style="fill:#0000ff;opacity:0.6;"/>
   </g>
   <g id="patch_181">
    <path clip-path="url(#p9cd14d6529)" d="M 835.572929 623.12 
L 839.057212 623.12 
L 839.057212 431.860234 
L 835.572929 431.860234 
z
" style="fill:#0000ff;opacity:0.6;"/>
   </g>
   <g id="patch_182">
    <path clip-path="url(#p9cd14d6529)" d="M 839.928283 623.12 
L 843.412566 623.12 
L 843.412566 427.651253 
L 839.928283 427.651253 
z
" style="fill:#0000ff;opacity:0.6;"/>
   </g>
   <g id="patch_183">
    <path clip-path="url(#p9cd14d6529)" d="M 844.283636 623.12 
L 847.767919 623.12 
L 847.767919 424.06263 
L 844.283636 424.06263 
z
" style="fill:#0000ff;opacity:0.6;"/>
   </g>
   <g id="patch_184">
    <path clip-path="url(#p9cd14d6529)" d="M 848.63899 623.12 
L 852.123273 623.12 
L 852.123273 411.335368 
L 848.63899 411.335368 
z
" style="fill:#0000ff;opacity:0.6;"/>
   </g>
   <g id="patch_185">
    <path clip-path="url(#p9cd14d6529)" d="M 852.994343 623.12 
L 856.478626 623.12 
L 856.478626 386.083624 
L 852.994343 386.083624 
z
" style="fill:#0000ff;opacity:0.6;"/>
   </g>
   <g id="patch_186">
    <path clip-path="url(#p9cd14d6529)" d="M 857.349697 623.12 
L 860.83398 623.12 
L 860.83398 384.560763 
L 857.349697 384.560763 
z
" style="fill:#0000ff;opacity:0.6;"/>
   </g>
   <g id="patch_187">
    <path clip-path="url(#p9cd14d6529)" d="M 861.705051 623.12 
L 865.189333 623.12 
L 865.189333 327.471224 
L 861.705051 327.471224 
z
" style="fill:#0000ff;opacity:0.6;"/>
   </g>
   <g id="patch_188">
    <path clip-path="url(#p9cd14d6529)" d="M 866.060404 623.12 
L 869.544687 623.12 
L 869.544687 327.471224 
L 866.060404 327.471224 
z
" style="fill:#0000ff;opacity:0.6;"/>
   </g>
   <g id="patch_189">
    <path clip-path="url(#p9cd14d6529)" d="M 870.415758 623.12 
L 873.90004 623.12 
L 873.90004 315.351351 
L 870.415758 315.351351 
z
" style="fill:#0000ff;opacity:0.6;"/>
   </g>
   <g id="patch_190">
    <path clip-path="url(#p9cd14d6529)" d="M 874.771111 623.12 
L 878.255394 623.12 
L 878.255394 250.110495 
L 874.771111 250.110495 
z
" style="fill:#0000ff;opacity:0.6;"/>
   </g>
   <g id="patch_191">
    <path clip-path="url(#p9cd14d6529)" d="M 879.126465 623.12 
L 882.610747 623.12 
L 882.610747 250.110495 
L 879.126465 250.110495 
z
" style="fill:#0000ff;opacity:0.6;"/>
   </g>
   <g id="patch_192">
    <path clip-path="url(#p9cd14d6529)" d="M 883.481818 623.12 
L 886.966101 623.12 
L 886.966101 240.772048 
L 883.481818 240.772048 
z
" style="fill:#0000ff;opacity:0.6;"/>
   </g>
   <g id="patch_193">
    <path clip-path="url(#p9cd14d6529)" d="M 887.837172 623.12 
L 891.321455 623.12 
L 891.321455 214.341513 
L 887.837172 214.341513 
z
" style="fill:#0000ff;opacity:0.6;"/>
   </g>
   <g id="patch_194">
    <path clip-path="url(#p9cd14d6529)" d="M 892.192525 623.12 
L 895.676808 623.12 
L 895.676808 205.214269 
L 892.192525 205.214269 
z
" style="fill:#0000ff;opacity:0.6;"/>
   </g>
   <g id="patch_195">
    <path clip-path="url(#p9cd14d6529)" d="M 896.547879 623.12 
L 900.032162 623.12 
L 900.032162 203.832257 
L 896.547879 203.832257 
z
" style="fill:#0000ff;opacity:0.6;"/>
   </g>
   <g id="patch_196">
    <path clip-path="url(#p9cd14d6529)" d="M 900.903232 623.12 
L 904.387515 623.12 
L 904.387515 26.151739 
L 900.903232 26.151739 
z
" style="fill:#0000ff;opacity:0.6;"/>
   </g>
   <g id="patch_197">
    <path clip-path="url(#p9cd14d6529)" d="M 905.258586 623.12 
L 908.742869 623.12 
L 908.742869 19.95529 
L 905.258586 19.95529 
z
" style="fill:#0000ff;opacity:0.6;"/>
   </g>
   <g id="patch_198">
    <path clip-path="url(#p9cd14d6529)" d="M 909.613939 623.12 
L 913.098222 623.12 
L 913.098222 15.090682 
L 909.613939 15.090682 
z
" style="fill:#0000ff;opacity:0.6;"/>
   </g>
   <g id="patch_199">
    <path clip-path="url(#p9cd14d6529)" d="M 913.969293 623.12 
L 917.453576 623.12 
L 917.453576 14.76 
L 913.969293 14.76 
z
" style="fill:#0000ff;opacity:0.6;"/>
   </g>
   <g id="patch_200">
    <path clip-path="url(#p9cd14d6529)" d="M 918.324646 623.12 
L 921.808929 623.12 
L 921.808929 14.76 
L 918.324646 14.76 
z
" style="fill:#0000ff;opacity:0.6;"/>
   </g>
   <g id="matplotlib.axis_1">
    <g id="xtick_1"/>
    <g id="xtick_2"/>
    <g id="xtick_3"/>
    <g id="xtick_4"/>
    <g id="xtick_5"/>
    <g id="xtick_6"/>
    <g id="xtick_7"/>
    <g id="xtick_8"/>
    <g id="text_1">
     <!-- File -->
     <defs>
      <path d="M 9.8125 72.90625 
L 51.703125 72.90625 
L 51.703125 64.59375 
L 19.671875 64.59375 
L 19.671875 43.109375 
L 48.578125 43.109375 
L 48.578125 34.8125 
L 19.671875 34.8125 
L 19.671875 0 
L 9.8125 0 
z
" id="DejaVuSans-46"/>
      <path d="M 9.421875 54.6875 
L 18.40625 54.6875 
L 18.40625 0 
L 9.421875 0 
z
M 9.421875 75.984375 
L 18.40625 75.984375 
L 18.40625 64.59375 
L 9.421875 64.59375 
z
" id="DejaVuSans-69"/>
      <path d="M 9.421875 75.984375 
L 18.40625 75.984375 
L 18.40625 0 
L 9.421875 0 
z
" id="DejaVuSans-6c"/>
      <path d="M 56.203125 29.59375 
L 56.203125 25.203125 
L 14.890625 25.203125 
Q 15.484375 15.921875 20.484375 11.0625 
Q 25.484375 6.203125 34.421875 6.203125 
Q 39.59375 6.203125 44.453125 7.46875 
Q 49.3125 8.734375 54.109375 11.28125 
L 54.109375 2.78125 
Q 49.265625 0.734375 44.1875 -0.34375 
Q 39.109375 -1.421875 33.890625 -1.421875 
Q 20.796875 -1.421875 13.15625 6.1875 
Q 5.515625 13.8125 5.515625 26.8125 
Q 5.515625 40.234375 12.765625 48.109375 
Q 20.015625 56 32.328125 56 
Q 43.359375 56 49.78125 48.890625 
Q 56.203125 41.796875 56.203125 29.59375 
z
M 47.21875 32.234375 
Q 47.125 39.59375 43.09375 43.984375 
Q 39.0625 48.390625 32.421875 48.390625 
Q 24.90625 48.390625 20.390625 44.140625 
Q 15.875 39.890625 15.1875 32.171875 
z
" id="DejaVuSans-65"/>
     </defs>
     <g transform="translate(482.775 634.718438)scale(0.1 -0.1)">
      <use xlink:href="#DejaVuSans-46"/>
      <use x="57.410156" xlink:href="#DejaVuSans-69"/>
      <use x="85.193359" xlink:href="#DejaVuSans-6c"/>
      <use x="112.976562" xlink:href="#DejaVuSans-65"/>
     </g>
    </g>
   </g>
   <g id="matplotlib.axis_2">
    <g id="ytick_1">
     <g id="line2d_1">
      <path clip-path="url(#p9cd14d6529)" d="M 60.32 623.12 
L 922.68 623.12 
" style="fill:none;stroke:#b0b0b0;stroke-linecap:square;stroke-width:0.8;"/>
     </g>
     <g id="line2d_2">
      <defs>
       <path d="M 0 0 
L -3.5 0 
" id="m5318f7325b" style="stroke:#000000;stroke-width:0.8;"/>
      </defs>
      <g>
       <use style="stroke:#000000;stroke-width:0.8;" x="60.32" xlink:href="#m5318f7325b" y="623.12"/>
      </g>
     </g>
     <g id="text_2">
      <!-- 0% -->
      <defs>
       <path d="M 31.78125 66.40625 
Q 24.171875 66.40625 20.328125 58.90625 
Q 16.5 51.421875 16.5 36.375 
Q 16.5 21.390625 20.328125 13.890625 
Q 24.171875 6.390625 31.78125 6.390625 
Q 39.453125 6.390625 43.28125 13.890625 
Q 47.125 21.390625 47.125 36.375 
Q 47.125 51.421875 43.28125 58.90625 
Q 39.453125 66.40625 31.78125 66.40625 
z
M 31.78125 74.21875 
Q 44.046875 74.21875 50.515625 64.515625 
Q 56.984375 54.828125 56.984375 36.375 
Q 56.984375 17.96875 50.515625 8.265625 
Q 44.046875 -1.421875 31.78125 -1.421875 
Q 19.53125 -1.421875 13.0625 8.265625 
Q 6.59375 17.96875 6.59375 36.375 
Q 6.59375 54.828125 13.0625 64.515625 
Q 19.53125 74.21875 31.78125 74.21875 
z
" id="DejaVuSans-30"/>
       <path d="M 72.703125 32.078125 
Q 68.453125 32.078125 66.03125 28.46875 
Q 63.625 24.859375 63.625 18.40625 
Q 63.625 12.0625 66.03125 8.421875 
Q 68.453125 4.78125 72.703125 4.78125 
Q 76.859375 4.78125 79.265625 8.421875 
Q 81.6875 12.0625 81.6875 18.40625 
Q 81.6875 24.8125 79.265625 28.4375 
Q 76.859375 32.078125 72.703125 32.078125 
z
M 72.703125 38.28125 
Q 80.421875 38.28125 84.953125 32.90625 
Q 89.5 27.546875 89.5 18.40625 
Q 89.5 9.28125 84.9375 3.921875 
Q 80.375 -1.421875 72.703125 -1.421875 
Q 64.890625 -1.421875 60.34375 3.921875 
Q 55.8125 9.28125 55.8125 18.40625 
Q 55.8125 27.59375 60.375 32.9375 
Q 64.9375 38.28125 72.703125 38.28125 
z
M 22.3125 68.015625 
Q 18.109375 68.015625 15.6875 64.375 
Q 13.28125 60.75 13.28125 54.390625 
Q 13.28125 47.953125 15.671875 44.328125 
Q 18.0625 40.71875 22.3125 40.71875 
Q 26.5625 40.71875 28.96875 44.328125 
Q 31.390625 47.953125 31.390625 54.390625 
Q 31.390625 60.6875 28.953125 64.34375 
Q 26.515625 68.015625 22.3125 68.015625 
z
M 66.40625 74.21875 
L 74.21875 74.21875 
L 28.609375 -1.421875 
L 20.796875 -1.421875 
z
M 22.3125 74.21875 
Q 30.03125 74.21875 34.609375 68.875 
Q 39.203125 63.53125 39.203125 54.390625 
Q 39.203125 45.171875 34.640625 39.84375 
Q 30.078125 34.515625 22.3125 34.515625 
Q 14.546875 34.515625 10.03125 39.859375 
Q 5.515625 45.21875 5.515625 54.390625 
Q 5.515625 63.484375 10.046875 68.84375 
Q 14.59375 74.21875 22.3125 74.21875 
z
" id="DejaVuSans-25"/>
      </defs>
      <g transform="translate(37.455938 626.919219)scale(0.1 -0.1)">
       <use xlink:href="#DejaVuSans-30"/>
       <use x="63.623047" xlink:href="#DejaVuSans-25"/>
      </g>
     </g>
    </g>
    <g id="ytick_2">
     <g id="line2d_3">
      <path clip-path="url(#p9cd14d6529)" d="M 60.32 562.284 
L 922.68 562.284 
" style="fill:none;stroke:#b0b0b0;stroke-linecap:square;stroke-width:0.8;"/>
     </g>
     <g id="line2d_4">
      <g>
       <use style="stroke:#000000;stroke-width:0.8;" x="60.32" xlink:href="#m5318f7325b" y="562.284"/>
      </g>
     </g>
     <g id="text_3">
      <!-- 10% -->
      <defs>
       <path d="M 12.40625 8.296875 
L 28.515625 8.296875 
L 28.515625 63.921875 
L 10.984375 60.40625 
L 10.984375 69.390625 
L 28.421875 72.90625 
L 38.28125 72.90625 
L 38.28125 8.296875 
L 54.390625 8.296875 
L 54.390625 0 
L 12.40625 0 
z
" id="DejaVuSans-31"/>
      </defs>
      <g transform="translate(31.093438 566.083219)scale(0.1 -0.1)">
       <use xlink:href="#DejaVuSans-31"/>
       <use x="63.623047" xlink:href="#DejaVuSans-30"/>
       <use x="127.246094" xlink:href="#DejaVuSans-25"/>
      </g>
     </g>
    </g>
    <g id="ytick_3">
     <g id="line2d_5">
      <path clip-path="url(#p9cd14d6529)" d="M 60.32 501.448 
L 922.68 501.448 
" style="fill:none;stroke:#b0b0b0;stroke-linecap:square;stroke-width:0.8;"/>
     </g>
     <g id="line2d_6">
      <g>
       <use style="stroke:#000000;stroke-width:0.8;" x="60.32" xlink:href="#m5318f7325b" y="501.448"/>
      </g>
     </g>
     <g id="text_4">
      <!-- 20% -->
      <defs>
       <path d="M 19.1875 8.296875 
L 53.609375 8.296875 
L 53.609375 0 
L 7.328125 0 
L 7.328125 8.296875 
Q 12.9375 14.109375 22.625 23.890625 
Q 32.328125 33.6875 34.8125 36.53125 
Q 39.546875 41.84375 41.421875 45.53125 
Q 43.3125 49.21875 43.3125 52.78125 
Q 43.3125 58.59375 39.234375 62.25 
Q 35.15625 65.921875 28.609375 65.921875 
Q 23.96875 65.921875 18.8125 64.3125 
Q 13.671875 62.703125 7.8125 59.421875 
L 7.8125 69.390625 
Q 13.765625 71.78125 18.9375 73 
Q 24.125 74.21875 28.421875 74.21875 
Q 39.75 74.21875 46.484375 68.546875 
Q 53.21875 62.890625 53.21875 53.421875 
Q 53.21875 48.921875 51.53125 44.890625 
Q 49.859375 40.875 45.40625 35.40625 
Q 44.1875 33.984375 37.640625 27.21875 
Q 31.109375 20.453125 19.1875 8.296875 
z
" id="DejaVuSans-32"/>
      </defs>
      <g transform="translate(31.093438 505.247219)scale(0.1 -0.1)">
       <use xlink:href="#DejaVuSans-32"/>
       <use x="63.623047" xlink:href="#DejaVuSans-30"/>
       <use x="127.246094" xlink:href="#DejaVuSans-25"/>
      </g>
     </g>
    </g>
    <g id="ytick_4">
     <g id="line2d_7">
      <path clip-path="url(#p9cd14d6529)" d="M 60.32 440.612 
L 922.68 440.612 
" style="fill:none;stroke:#b0b0b0;stroke-linecap:square;stroke-width:0.8;"/>
     </g>
     <g id="line2d_8">
      <g>
       <use style="stroke:#000000;stroke-width:0.8;" x="60.32" xlink:href="#m5318f7325b" y="440.612"/>
      </g>
     </g>
     <g id="text_5">
      <!-- 30% -->
      <defs>
       <path d="M 40.578125 39.3125 
Q 47.65625 37.796875 51.625 33 
Q 55.609375 28.21875 55.609375 21.1875 
Q 55.609375 10.40625 48.1875 4.484375 
Q 40.765625 -1.421875 27.09375 -1.421875 
Q 22.515625 -1.421875 17.65625 -0.515625 
Q 12.796875 0.390625 7.625 2.203125 
L 7.625 11.71875 
Q 11.71875 9.328125 16.59375 8.109375 
Q 21.484375 6.890625 26.8125 6.890625 
Q 36.078125 6.890625 40.9375 10.546875 
Q 45.796875 14.203125 45.796875 21.1875 
Q 45.796875 27.640625 41.28125 31.265625 
Q 36.765625 34.90625 28.71875 34.90625 
L 20.21875 34.90625 
L 20.21875 43.015625 
L 29.109375 43.015625 
Q 36.375 43.015625 40.234375 45.921875 
Q 44.09375 48.828125 44.09375 54.296875 
Q 44.09375 59.90625 40.109375 62.90625 
Q 36.140625 65.921875 28.71875 65.921875 
Q 24.65625 65.921875 20.015625 65.03125 
Q 15.375 64.15625 9.8125 62.3125 
L 9.8125 71.09375 
Q 15.4375 72.65625 20.34375 73.4375 
Q 25.25 74.21875 29.59375 74.21875 
Q 40.828125 74.21875 47.359375 69.109375 
Q 53.90625 64.015625 53.90625 55.328125 
Q 53.90625 49.265625 50.4375 45.09375 
Q 46.96875 40.921875 40.578125 39.3125 
z
" id="DejaVuSans-33"/>
      </defs>
      <g transform="translate(31.093438 444.411219)scale(0.1 -0.1)">
       <use xlink:href="#DejaVuSans-33"/>
       <use x="63.623047" xlink:href="#DejaVuSans-30"/>
       <use x="127.246094" xlink:href="#DejaVuSans-25"/>
      </g>
     </g>
    </g>
    <g id="ytick_5">
     <g id="line2d_9">
      <path clip-path="url(#p9cd14d6529)" d="M 60.32 379.776 
L 922.68 379.776 
" style="fill:none;stroke:#b0b0b0;stroke-linecap:square;stroke-width:0.8;"/>
     </g>
     <g id="line2d_10">
      <g>
       <use style="stroke:#000000;stroke-width:0.8;" x="60.32" xlink:href="#m5318f7325b" y="379.776"/>
      </g>
     </g>
     <g id="text_6">
      <!-- 40% -->
      <defs>
       <path d="M 37.796875 64.3125 
L 12.890625 25.390625 
L 37.796875 25.390625 
z
M 35.203125 72.90625 
L 47.609375 72.90625 
L 47.609375 25.390625 
L 58.015625 25.390625 
L 58.015625 17.1875 
L 47.609375 17.1875 
L 47.609375 0 
L 37.796875 0 
L 37.796875 17.1875 
L 4.890625 17.1875 
L 4.890625 26.703125 
z
" id="DejaVuSans-34"/>
      </defs>
      <g transform="translate(31.093438 383.575219)scale(0.1 -0.1)">
       <use xlink:href="#DejaVuSans-34"/>
       <use x="63.623047" xlink:href="#DejaVuSans-30"/>
       <use x="127.246094" xlink:href="#DejaVuSans-25"/>
      </g>
     </g>
    </g>
    <g id="ytick_6">
     <g id="line2d_11">
      <path clip-path="url(#p9cd14d6529)" d="M 60.32 318.94 
L 922.68 318.94 
" style="fill:none;stroke:#b0b0b0;stroke-linecap:square;stroke-width:0.8;"/>
     </g>
     <g id="line2d_12">
      <g>
       <use style="stroke:#000000;stroke-width:0.8;" x="60.32" xlink:href="#m5318f7325b" y="318.94"/>
      </g>
     </g>
     <g id="text_7">
      <!-- 50% -->
      <defs>
       <path d="M 10.796875 72.90625 
L 49.515625 72.90625 
L 49.515625 64.59375 
L 19.828125 64.59375 
L 19.828125 46.734375 
Q 21.96875 47.46875 24.109375 47.828125 
Q 26.265625 48.1875 28.421875 48.1875 
Q 40.625 48.1875 47.75 41.5 
Q 54.890625 34.8125 54.890625 23.390625 
Q 54.890625 11.625 47.5625 5.09375 
Q 40.234375 -1.421875 26.90625 -1.421875 
Q 22.3125 -1.421875 17.546875 -0.640625 
Q 12.796875 0.140625 7.71875 1.703125 
L 7.71875 11.625 
Q 12.109375 9.234375 16.796875 8.0625 
Q 21.484375 6.890625 26.703125 6.890625 
Q 35.15625 6.890625 40.078125 11.328125 
Q 45.015625 15.765625 45.015625 23.390625 
Q 45.015625 31 40.078125 35.4375 
Q 35.15625 39.890625 26.703125 39.890625 
Q 22.75 39.890625 18.8125 39.015625 
Q 14.890625 38.140625 10.796875 36.28125 
z
" id="DejaVuSans-35"/>
      </defs>
      <g transform="translate(31.093438 322.739219)scale(0.1 -0.1)">
       <use xlink:href="#DejaVuSans-35"/>
       <use x="63.623047" xlink:href="#DejaVuSans-30"/>
       <use x="127.246094" xlink:href="#DejaVuSans-25"/>
      </g>
     </g>
    </g>
    <g id="ytick_7">
     <g id="line2d_13">
      <path clip-path="url(#p9cd14d6529)" d="M 60.32 258.104 
L 922.68 258.104 
" style="fill:none;stroke:#b0b0b0;stroke-linecap:square;stroke-width:0.8;"/>
     </g>
     <g id="line2d_14">
      <g>
       <use style="stroke:#000000;stroke-width:0.8;" x="60.32" xlink:href="#m5318f7325b" y="258.104"/>
      </g>
     </g>
     <g id="text_8">
      <!-- 60% -->
      <defs>
       <path d="M 33.015625 40.375 
Q 26.375 40.375 22.484375 35.828125 
Q 18.609375 31.296875 18.609375 23.390625 
Q 18.609375 15.53125 22.484375 10.953125 
Q 26.375 6.390625 33.015625 6.390625 
Q 39.65625 6.390625 43.53125 10.953125 
Q 47.40625 15.53125 47.40625 23.390625 
Q 47.40625 31.296875 43.53125 35.828125 
Q 39.65625 40.375 33.015625 40.375 
z
M 52.59375 71.296875 
L 52.59375 62.3125 
Q 48.875 64.0625 45.09375 64.984375 
Q 41.3125 65.921875 37.59375 65.921875 
Q 27.828125 65.921875 22.671875 59.328125 
Q 17.53125 52.734375 16.796875 39.40625 
Q 19.671875 43.65625 24.015625 45.921875 
Q 28.375 48.1875 33.59375 48.1875 
Q 44.578125 48.1875 50.953125 41.515625 
Q 57.328125 34.859375 57.328125 23.390625 
Q 57.328125 12.15625 50.6875 5.359375 
Q 44.046875 -1.421875 33.015625 -1.421875 
Q 20.359375 -1.421875 13.671875 8.265625 
Q 6.984375 17.96875 6.984375 36.375 
Q 6.984375 53.65625 15.1875 63.9375 
Q 23.390625 74.21875 37.203125 74.21875 
Q 40.921875 74.21875 44.703125 73.484375 
Q 48.484375 72.75 52.59375 71.296875 
z
" id="DejaVuSans-36"/>
      </defs>
      <g transform="translate(31.093438 261.903219)scale(0.1 -0.1)">
       <use xlink:href="#DejaVuSans-36"/>
       <use x="63.623047" xlink:href="#DejaVuSans-30"/>
       <use x="127.246094" xlink:href="#DejaVuSans-25"/>
      </g>
     </g>
    </g>
    <g id="ytick_8">
     <g id="line2d_15">
      <path clip-path="url(#p9cd14d6529)" d="M 60.32 197.268 
L 922.68 197.268 
" style="fill:none;stroke:#b0b0b0;stroke-linecap:square;stroke-width:0.8;"/>
     </g>
     <g id="line2d_16">
      <g>
       <use style="stroke:#000000;stroke-width:0.8;" x="60.32" xlink:href="#m5318f7325b" y="197.268"/>
      </g>
     </g>
     <g id="text_9">
      <!-- 70% -->
      <defs>
       <path d="M 8.203125 72.90625 
L 55.078125 72.90625 
L 55.078125 68.703125 
L 28.609375 0 
L 18.3125 0 
L 43.21875 64.59375 
L 8.203125 64.59375 
z
" id="DejaVuSans-37"/>
      </defs>
      <g transform="translate(31.093438 201.067219)scale(0.1 -0.1)">
       <use xlink:href="#DejaVuSans-37"/>
       <use x="63.623047" xlink:href="#DejaVuSans-30"/>
       <use x="127.246094" xlink:href="#DejaVuSans-25"/>
      </g>
     </g>
    </g>
    <g id="ytick_9">
     <g id="line2d_17">
      <path clip-path="url(#p9cd14d6529)" d="M 60.32 136.432 
L 922.68 136.432 
" style="fill:none;stroke:#b0b0b0;stroke-linecap:square;stroke-width:0.8;"/>
     </g>
     <g id="line2d_18">
      <g>
       <use style="stroke:#000000;stroke-width:0.8;" x="60.32" xlink:href="#m5318f7325b" y="136.432"/>
      </g>
     </g>
     <g id="text_10">
      <!-- 80% -->
      <defs>
       <path d="M 31.78125 34.625 
Q 24.75 34.625 20.71875 30.859375 
Q 16.703125 27.09375 16.703125 20.515625 
Q 16.703125 13.921875 20.71875 10.15625 
Q 24.75 6.390625 31.78125 6.390625 
Q 38.8125 6.390625 42.859375 10.171875 
Q 46.921875 13.96875 46.921875 20.515625 
Q 46.921875 27.09375 42.890625 30.859375 
Q 38.875 34.625 31.78125 34.625 
z
M 21.921875 38.8125 
Q 15.578125 40.375 12.03125 44.71875 
Q 8.5 49.078125 8.5 55.328125 
Q 8.5 64.0625 14.71875 69.140625 
Q 20.953125 74.21875 31.78125 74.21875 
Q 42.671875 74.21875 48.875 69.140625 
Q 55.078125 64.0625 55.078125 55.328125 
Q 55.078125 49.078125 51.53125 44.71875 
Q 48 40.375 41.703125 38.8125 
Q 48.828125 37.15625 52.796875 32.3125 
Q 56.78125 27.484375 56.78125 20.515625 
Q 56.78125 9.90625 50.3125 4.234375 
Q 43.84375 -1.421875 31.78125 -1.421875 
Q 19.734375 -1.421875 13.25 4.234375 
Q 6.78125 9.90625 6.78125 20.515625 
Q 6.78125 27.484375 10.78125 32.3125 
Q 14.796875 37.15625 21.921875 38.8125 
z
M 18.3125 54.390625 
Q 18.3125 48.734375 21.84375 45.5625 
Q 25.390625 42.390625 31.78125 42.390625 
Q 38.140625 42.390625 41.71875 45.5625 
Q 45.3125 48.734375 45.3125 54.390625 
Q 45.3125 60.0625 41.71875 63.234375 
Q 38.140625 66.40625 31.78125 66.40625 
Q 25.390625 66.40625 21.84375 63.234375 
Q 18.3125 60.0625 18.3125 54.390625 
z
" id="DejaVuSans-38"/>
      </defs>
      <g transform="translate(31.093438 140.231219)scale(0.1 -0.1)">
       <use xlink:href="#DejaVuSans-38"/>
       <use x="63.623047" xlink:href="#DejaVuSans-30"/>
       <use x="127.246094" xlink:href="#DejaVuSans-25"/>
      </g>
     </g>
    </g>
    <g id="ytick_10">
     <g id="line2d_19">
      <path clip-path="url(#p9cd14d6529)" d="M 60.32 75.596 
L 922.68 75.596 
" style="fill:none;stroke:#b0b0b0;stroke-linecap:square;stroke-width:0.8;"/>
     </g>
     <g id="line2d_20">
      <g>
       <use style="stroke:#000000;stroke-width:0.8;" x="60.32" xlink:href="#m5318f7325b" y="75.596"/>
      </g>
     </g>
     <g id="text_11">
      <!-- 90% -->
      <defs>
       <path d="M 10.984375 1.515625 
L 10.984375 10.5 
Q 14.703125 8.734375 18.5 7.8125 
Q 22.3125 6.890625 25.984375 6.890625 
Q 35.75 6.890625 40.890625 13.453125 
Q 46.046875 20.015625 46.78125 33.40625 
Q 43.953125 29.203125 39.59375 26.953125 
Q 35.25 24.703125 29.984375 24.703125 
Q 19.046875 24.703125 12.671875 31.3125 
Q 6.296875 37.9375 6.296875 49.421875 
Q 6.296875 60.640625 12.9375 67.421875 
Q 19.578125 74.21875 30.609375 74.21875 
Q 43.265625 74.21875 49.921875 64.515625 
Q 56.59375 54.828125 56.59375 36.375 
Q 56.59375 19.140625 48.40625 8.859375 
Q 40.234375 -1.421875 26.421875 -1.421875 
Q 22.703125 -1.421875 18.890625 -0.6875 
Q 15.09375 0.046875 10.984375 1.515625 
z
M 30.609375 32.421875 
Q 37.25 32.421875 41.125 36.953125 
Q 45.015625 41.5 45.015625 49.421875 
Q 45.015625 57.28125 41.125 61.84375 
Q 37.25 66.40625 30.609375 66.40625 
Q 23.96875 66.40625 20.09375 61.84375 
Q 16.21875 57.28125 16.21875 49.421875 
Q 16.21875 41.5 20.09375 36.953125 
Q 23.96875 32.421875 30.609375 32.421875 
z
" id="DejaVuSans-39"/>
      </defs>
      <g transform="translate(31.093438 79.395219)scale(0.1 -0.1)">
       <use xlink:href="#DejaVuSans-39"/>
       <use x="63.623047" xlink:href="#DejaVuSans-30"/>
       <use x="127.246094" xlink:href="#DejaVuSans-25"/>
      </g>
     </g>
    </g>
    <g id="ytick_11">
     <g id="line2d_21">
      <path clip-path="url(#p9cd14d6529)" d="M 60.32 14.76 
L 922.68 14.76 
" style="fill:none;stroke:#b0b0b0;stroke-linecap:square;stroke-width:0.8;"/>
     </g>
     <g id="line2d_22">
      <g>
       <use style="stroke:#000000;stroke-width:0.8;" x="60.32" xlink:href="#m5318f7325b" y="14.76"/>
      </g>
     </g>
     <g id="text_12">
      <!-- 100% -->
      <g transform="translate(24.730938 18.559219)scale(0.1 -0.1)">
       <use xlink:href="#DejaVuSans-31"/>
       <use x="63.623047" xlink:href="#DejaVuSans-30"/>
       <use x="127.246094" xlink:href="#DejaVuSans-30"/>
       <use x="190.869141" xlink:href="#DejaVuSans-25"/>
      </g>
     </g>
    </g>
    <g id="text_13">
     <!-- Time -->
     <defs>
      <path d="M -0.296875 72.90625 
L 61.375 72.90625 
L 61.375 64.59375 
L 35.5 64.59375 
L 35.5 0 
L 25.59375 0 
L 25.59375 64.59375 
L -0.296875 64.59375 
z
" id="DejaVuSans-54"/>
      <path d="M 52 44.1875 
Q 55.375 50.25 60.0625 53.125 
Q 64.75 56 71.09375 56 
Q 79.640625 56 84.28125 50.015625 
Q 88.921875 44.046875 88.921875 33.015625 
L 88.921875 0 
L 79.890625 0 
L 79.890625 32.71875 
Q 79.890625 40.578125 77.09375 44.375 
Q 74.3125 48.1875 68.609375 48.1875 
Q 61.625 48.1875 57.5625 43.546875 
Q 53.515625 38.921875 53.515625 30.90625 
L 53.515625 0 
L 44.484375 0 
L 44.484375 32.71875 
Q 44.484375 40.625 41.703125 44.40625 
Q 38.921875 48.1875 33.109375 48.1875 
Q 26.21875 48.1875 22.15625 43.53125 
Q 18.109375 38.875 18.109375 30.90625 
L 18.109375 0 
L 9.078125 0 
L 9.078125 54.6875 
L 18.109375 54.6875 
L 18.109375 46.1875 
Q 21.1875 51.21875 25.484375 53.609375 
Q 29.78125 56 35.6875 56 
Q 41.65625 56 45.828125 52.96875 
Q 50 49.953125 52 44.1875 
z
" id="DejaVuSans-6d"/>
     </defs>
     <g transform="translate(18.65125 331.3275)rotate(-90)scale(0.1 -0.1)">
      <use xlink:href="#DejaVuSans-54"/>
      <use x="61.037109" xlink:href="#DejaVuSans-69"/>
      <use x="88.820312" xlink:href="#DejaVuSans-6d"/>
      <use x="186.232422" xlink:href="#DejaVuSans-65"/>
     </g>
    </g>
   </g>
   <g id="patch_201">
    <path d="M 60.32 623.12 
L 60.32 14.76 
" style="fill:none;stroke:#000000;stroke-linecap:square;stroke-linejoin:miter;stroke-width:0.8;"/>
   </g>
   <g id="patch_202">
    <path d="M 922.68 623.12 
L 922.68 14.76 
" style="fill:none;stroke:#000000;stroke-linecap:square;stroke-linejoin:miter;stroke-width:0.8;"/>
   </g>
   <g id="patch_203">
    <path d="M 60.32 623.12 
L 922.68 623.12 
" style="fill:none;stroke:#000000;stroke-linecap:square;stroke-linejoin:miter;stroke-width:0.8;"/>
   </g>
   <g id="patch_204">
    <path d="M 60.32 14.76 
L 922.68 14.76 
" style="fill:none;stroke:#000000;stroke-linecap:square;stroke-linejoin:miter;stroke-width:0.8;"/>
   </g>
  </g>
 </g>
 <defs>
  <clipPath id="p9cd14d6529">
   <rect height="608.36" width="862.36" x="60.32" y="14.76"/>
  </clipPath>
 </defs>
</svg>
