<?xml version="1.0" encoding="utf-8" standalone="no"?>
<!DOCTYPE svg PUBLIC "-//W3C//DTD SVG 1.1//EN"
  "http://www.w3.org/Graphics/SVG/1.1/DTD/svg11.dtd">
<!-- Created with matplotlib (http://matplotlib.org/) -->
<svg height="648pt" version="1.1" viewBox="0 0 1152 648" width="1152pt" xmlns="http://www.w3.org/2000/svg" xmlns:xlink="http://www.w3.org/1999/xlink">
 <defs>
  <style type="text/css">
*{stroke-linecap:butt;stroke-linejoin:round;}
  </style>
 </defs>
 <g id="figure_1">
  <g id="patch_1">
   <path d="M 0 648 
L 1152 648 
L 1152 0 
L 0 0 
z
" style="fill:#ffffff;"/>
  </g>
  <g id="axes_1">
   <g id="patch_2">
    <path d="M 60.32 623.12 
L 1138.68 623.12 
L 1138.68 14.76 
L 60.32 14.76 
z
" style="fill:#ffffff;"/>
   </g>
   <g id="patch_3">
    <path clip-path="url(#p8a6ffb53e2)" d="M 60.32 623.12 
L 64.699127 623.12 
L 64.699127 623.12 
L 60.32 623.12 
z
" style="fill:#0000ff;opacity:0.6;"/>
   </g>
   <g id="patch_4">
    <path clip-path="url(#p8a6ffb53e2)" d="M 65.793909 623.12 
L 70.173036 623.12 
L 70.173036 623.12 
L 65.793909 623.12 
z
" style="fill:#0000ff;opacity:0.6;"/>
   </g>
   <g id="patch_5">
    <path clip-path="url(#p8a6ffb53e2)" d="M 71.267817 623.12 
L 75.646944 623.12 
L 75.646944 623.12 
L 71.267817 623.12 
z
" style="fill:#0000ff;opacity:0.6;"/>
   </g>
   <g id="patch_6">
    <path clip-path="url(#p8a6ffb53e2)" d="M 76.741726 623.12 
L 81.120853 623.12 
L 81.120853 623.12 
L 76.741726 623.12 
z
" style="fill:#0000ff;opacity:0.6;"/>
   </g>
   <g id="patch_7">
    <path clip-path="url(#p8a6ffb53e2)" d="M 82.215635 623.12 
L 86.594761 623.12 
L 86.594761 623.12 
L 82.215635 623.12 
z
" style="fill:#0000ff;opacity:0.6;"/>
   </g>
   <g id="patch_8">
    <path clip-path="url(#p8a6ffb53e2)" d="M 87.689543 623.12 
L 92.06867 623.12 
L 92.06867 622.734369 
L 87.689543 622.734369 
z
" style="fill:#0000ff;opacity:0.6;"/>
   </g>
   <g id="patch_9">
    <path clip-path="url(#p8a6ffb53e2)" d="M 93.163452 623.12 
L 97.542579 623.12 
L 97.542579 622.726463 
L 93.163452 622.726463 
z
" style="fill:#0000ff;opacity:0.6;"/>
   </g>
   <g id="patch_10">
    <path clip-path="url(#p8a6ffb53e2)" d="M 98.63736 623.12 
L 103.016487 623.12 
L 103.016487 622.724373 
L 98.63736 622.724373 
z
" style="fill:#0000ff;opacity:0.6;"/>
   </g>
   <g id="patch_11">
    <path clip-path="url(#p8a6ffb53e2)" d="M 104.111269 623.12 
L 108.490396 623.12 
L 108.490396 622.718214 
L 104.111269 622.718214 
z
" style="fill:#0000ff;opacity:0.6;"/>
   </g>
   <g id="patch_12">
    <path clip-path="url(#p8a6ffb53e2)" d="M 109.585178 623.12 
L 113.964305 623.12 
L 113.964305 622.703343 
L 109.585178 622.703343 
z
" style="fill:#0000ff;opacity:0.6;"/>
   </g>
   <g id="patch_13">
    <path clip-path="url(#p8a6ffb53e2)" d="M 115.059086 623.12 
L 119.438213 623.12 
L 119.438213 622.691607 
L 115.059086 622.691607 
z
" style="fill:#0000ff;opacity:0.6;"/>
   </g>
   <g id="patch_14">
    <path clip-path="url(#p8a6ffb53e2)" d="M 120.532995 623.12 
L 124.912122 623.12 
L 124.912122 622.685915 
L 120.532995 622.685915 
z
" style="fill:#0000ff;opacity:0.6;"/>
   </g>
   <g id="patch_15">
    <path clip-path="url(#p8a6ffb53e2)" d="M 126.006904 623.12 
L 130.38603 623.12 
L 130.38603 622.683753 
L 126.006904 622.683753 
z
" style="fill:#0000ff;opacity:0.6;"/>
   </g>
   <g id="patch_16">
    <path clip-path="url(#p8a6ffb53e2)" d="M 131.480812 623.12 
L 135.859939 623.12 
L 135.859939 622.672141 
L 131.480812 622.672141 
z
" style="fill:#0000ff;opacity:0.6;"/>
   </g>
   <g id="patch_17">
    <path clip-path="url(#p8a6ffb53e2)" d="M 136.954721 623.12 
L 141.333848 623.12 
L 141.333848 622.666141 
L 136.954721 622.666141 
z
" style="fill:#0000ff;opacity:0.6;"/>
   </g>
   <g id="patch_18">
    <path clip-path="url(#p8a6ffb53e2)" d="M 142.428629 623.12 
L 146.807756 623.12 
L 146.807756 622.663415 
L 142.428629 622.663415 
z
" style="fill:#0000ff;opacity:0.6;"/>
   </g>
   <g id="patch_19">
    <path clip-path="url(#p8a6ffb53e2)" d="M 147.902538 623.12 
L 152.281665 623.12 
L 152.281665 622.660572 
L 147.902538 622.660572 
z
" style="fill:#0000ff;opacity:0.6;"/>
   </g>
   <g id="patch_20">
    <path clip-path="url(#p8a6ffb53e2)" d="M 153.376447 623.12 
L 157.755574 623.12 
L 157.755574 622.660572 
L 153.376447 622.660572 
z
" style="fill:#0000ff;opacity:0.6;"/>
   </g>
   <g id="patch_21">
    <path clip-path="url(#p8a6ffb53e2)" d="M 158.850355 623.12 
L 163.229482 623.12 
L 163.229482 622.636367 
L 158.850355 622.636367 
z
" style="fill:#0000ff;opacity:0.6;"/>
   </g>
   <g id="patch_22">
    <path clip-path="url(#p8a6ffb53e2)" d="M 164.324264 623.12 
L 168.703391 623.12 
L 168.703391 622.635212 
L 164.324264 622.635212 
z
" style="fill:#0000ff;opacity:0.6;"/>
   </g>
   <g id="patch_23">
    <path clip-path="url(#p8a6ffb53e2)" d="M 169.798173 623.12 
L 174.177299 623.12 
L 174.177299 622.624825 
L 169.798173 622.624825 
z
" style="fill:#0000ff;opacity:0.6;"/>
   </g>
   <g id="patch_24">
    <path clip-path="url(#p8a6ffb53e2)" d="M 175.272081 623.12 
L 179.651208 623.12 
L 179.651208 622.600861 
L 175.272081 622.600861 
z
" style="fill:#0000ff;opacity:0.6;"/>
   </g>
   <g id="patch_25">
    <path clip-path="url(#p8a6ffb53e2)" d="M 180.74599 623.12 
L 185.125117 623.12 
L 185.125117 622.565763 
L 180.74599 622.565763 
z
" style="fill:#0000ff;opacity:0.6;"/>
   </g>
   <g id="patch_26">
    <path clip-path="url(#p8a6ffb53e2)" d="M 186.219898 623.12 
L 190.599025 623.12 
L 190.599025 622.554946 
L 186.219898 622.554946 
z
" style="fill:#0000ff;opacity:0.6;"/>
   </g>
   <g id="patch_27">
    <path clip-path="url(#p8a6ffb53e2)" d="M 191.693807 623.12 
L 196.072934 623.12 
L 196.072934 622.554342 
L 191.693807 622.554342 
z
" style="fill:#0000ff;opacity:0.6;"/>
   </g>
   <g id="patch_28">
    <path clip-path="url(#p8a6ffb53e2)" d="M 197.167716 623.12 
L 201.546843 623.12 
L 201.546843 622.554342 
L 197.167716 622.554342 
z
" style="fill:#0000ff;opacity:0.6;"/>
   </g>
   <g id="patch_29">
    <path clip-path="url(#p8a6ffb53e2)" d="M 202.641624 623.12 
L 207.020751 623.12 
L 207.020751 622.509386 
L 202.641624 622.509386 
z
" style="fill:#0000ff;opacity:0.6;"/>
   </g>
   <g id="patch_30">
    <path clip-path="url(#p8a6ffb53e2)" d="M 208.115533 623.12 
L 212.49466 623.12 
L 212.49466 622.507028 
L 208.115533 622.507028 
z
" style="fill:#0000ff;opacity:0.6;"/>
   </g>
   <g id="patch_31">
    <path clip-path="url(#p8a6ffb53e2)" d="M 213.589442 623.12 
L 217.968569 623.12 
L 217.968569 622.506028 
L 213.589442 622.506028 
z
" style="fill:#0000ff;opacity:0.6;"/>
   </g>
   <g id="patch_32">
    <path clip-path="url(#p8a6ffb53e2)" d="M 219.06335 623.12 
L 223.442477 623.12 
L 223.442477 622.48978 
L 219.06335 622.48978 
z
" style="fill:#0000ff;opacity:0.6;"/>
   </g>
   <g id="patch_33">
    <path clip-path="url(#p8a6ffb53e2)" d="M 224.537259 623.12 
L 228.916386 623.12 
L 228.916386 622.468389 
L 224.537259 622.468389 
z
" style="fill:#0000ff;opacity:0.6;"/>
   </g>
   <g id="patch_34">
    <path clip-path="url(#p8a6ffb53e2)" d="M 230.011168 623.12 
L 234.390294 623.12 
L 234.390294 622.461137 
L 230.011168 622.461137 
z
" style="fill:#0000ff;opacity:0.6;"/>
   </g>
   <g id="patch_35">
    <path clip-path="url(#p8a6ffb53e2)" d="M 235.485076 623.12 
L 239.864203 623.12 
L 239.864203 622.449856 
L 235.485076 622.449856 
z
" style="fill:#0000ff;opacity:0.6;"/>
   </g>
   <g id="patch_36">
    <path clip-path="url(#p8a6ffb53e2)" d="M 240.958985 623.12 
L 245.338112 623.12 
L 245.338112 622.3976 
L 240.958985 622.3976 
z
" style="fill:#0000ff;opacity:0.6;"/>
   </g>
   <g id="patch_37">
    <path clip-path="url(#p8a6ffb53e2)" d="M 246.432893 623.12 
L 250.81202 623.12 
L 250.81202 622.3772 
L 246.432893 622.3772 
z
" style="fill:#0000ff;opacity:0.6;"/>
   </g>
   <g id="patch_38">
    <path clip-path="url(#p8a6ffb53e2)" d="M 251.906802 623.12 
L 256.285929 623.12 
L 256.285929 622.374759 
L 251.906802 622.374759 
z
" style="fill:#0000ff;opacity:0.6;"/>
   </g>
   <g id="patch_39">
    <path clip-path="url(#p8a6ffb53e2)" d="M 257.380711 623.12 
L 261.759838 623.12 
L 261.759838 622.35903 
L 257.380711 622.35903 
z
" style="fill:#0000ff;opacity:0.6;"/>
   </g>
   <g id="patch_40">
    <path clip-path="url(#p8a6ffb53e2)" d="M 262.854619 623.12 
L 267.233746 623.12 
L 267.233746 622.355657 
L 262.854619 622.355657 
z
" style="fill:#0000ff;opacity:0.6;"/>
   </g>
   <g id="patch_41">
    <path clip-path="url(#p8a6ffb53e2)" d="M 268.328528 623.12 
L 272.707655 623.12 
L 272.707655 622.349675 
L 268.328528 622.349675 
z
" style="fill:#0000ff;opacity:0.6;"/>
   </g>
   <g id="patch_42">
    <path clip-path="url(#p8a6ffb53e2)" d="M 273.802437 623.12 
L 278.181563 623.12 
L 278.181563 622.326557 
L 273.802437 622.326557 
z
" style="fill:#0000ff;opacity:0.6;"/>
   </g>
   <g id="patch_43">
    <path clip-path="url(#p8a6ffb53e2)" d="M 279.276345 623.12 
L 283.655472 623.12 
L 283.655472 622.322946 
L 279.276345 622.322946 
z
" style="fill:#0000ff;opacity:0.6;"/>
   </g>
   <g id="patch_44">
    <path clip-path="url(#p8a6ffb53e2)" d="M 284.750254 623.12 
L 289.129381 623.12 
L 289.129381 622.320702 
L 284.750254 622.320702 
z
" style="fill:#0000ff;opacity:0.6;"/>
   </g>
   <g id="patch_45">
    <path clip-path="url(#p8a6ffb53e2)" d="M 290.224162 623.12 
L 294.603289 623.12 
L 294.603289 622.296138 
L 290.224162 622.296138 
z
" style="fill:#0000ff;opacity:0.6;"/>
   </g>
   <g id="patch_46">
    <path clip-path="url(#p8a6ffb53e2)" d="M 295.698071 623.12 
L 300.077198 623.12 
L 300.077198 622.292733 
L 295.698071 622.292733 
z
" style="fill:#0000ff;opacity:0.6;"/>
   </g>
   <g id="patch_47">
    <path clip-path="url(#p8a6ffb53e2)" d="M 301.17198 623.12 
L 305.551107 623.12 
L 305.551107 622.284513 
L 301.17198 622.284513 
z
" style="fill:#0000ff;opacity:0.6;"/>
   </g>
   <g id="patch_48">
    <path clip-path="url(#p8a6ffb53e2)" d="M 306.645888 623.12 
L 311.025015 623.12 
L 311.025015 622.276643 
L 306.645888 622.276643 
z
" style="fill:#0000ff;opacity:0.6;"/>
   </g>
   <g id="patch_49">
    <path clip-path="url(#p8a6ffb53e2)" d="M 312.119797 623.12 
L 316.498924 623.12 
L 316.498924 622.198085 
L 312.119797 622.198085 
z
" style="fill:#0000ff;opacity:0.6;"/>
   </g>
   <g id="patch_50">
    <path clip-path="url(#p8a6ffb53e2)" d="M 317.593706 623.12 
L 321.972832 623.12 
L 321.972832 622.178309 
L 317.593706 622.178309 
z
" style="fill:#0000ff;opacity:0.6;"/>
   </g>
   <g id="patch_51">
    <path clip-path="url(#p8a6ffb53e2)" d="M 323.067614 623.12 
L 327.446741 623.12 
L 327.446741 622.170741 
L 323.067614 622.170741 
z
" style="fill:#0000ff;opacity:0.6;"/>
   </g>
   <g id="patch_52">
    <path clip-path="url(#p8a6ffb53e2)" d="M 328.541523 623.12 
L 332.92065 623.12 
L 332.92065 622.155856 
L 328.541523 622.155856 
z
" style="fill:#0000ff;opacity:0.6;"/>
   </g>
   <g id="patch_53">
    <path clip-path="url(#p8a6ffb53e2)" d="M 334.015431 623.12 
L 338.394558 623.12 
L 338.394558 622.120854 
L 334.015431 622.120854 
z
" style="fill:#0000ff;opacity:0.6;"/>
   </g>
   <g id="patch_54">
    <path clip-path="url(#p8a6ffb53e2)" d="M 339.48934 623.12 
L 343.868467 623.12 
L 343.868467 622.119589 
L 339.48934 622.119589 
z
" style="fill:#0000ff;opacity:0.6;"/>
   </g>
   <g id="patch_55">
    <path clip-path="url(#p8a6ffb53e2)" d="M 344.963249 623.12 
L 349.342376 623.12 
L 349.342376 622.117177 
L 344.963249 622.117177 
z
" style="fill:#0000ff;opacity:0.6;"/>
   </g>
   <g id="patch_56">
    <path clip-path="url(#p8a6ffb53e2)" d="M 350.437157 623.12 
L 354.816284 623.12 
L 354.816284 622.094554 
L 350.437157 622.094554 
z
" style="fill:#0000ff;opacity:0.6;"/>
   </g>
   <g id="patch_57">
    <path clip-path="url(#p8a6ffb53e2)" d="M 355.911066 623.12 
L 360.290193 623.12 
L 360.290193 622.094052 
L 355.911066 622.094052 
z
" style="fill:#0000ff;opacity:0.6;"/>
   </g>
   <g id="patch_58">
    <path clip-path="url(#p8a6ffb53e2)" d="M 361.384975 623.12 
L 365.764102 623.12 
L 365.764102 622.078494 
L 361.384975 622.078494 
z
" style="fill:#0000ff;opacity:0.6;"/>
   </g>
   <g id="patch_59">
    <path clip-path="url(#p8a6ffb53e2)" d="M 366.858883 623.12 
L 371.23801 623.12 
L 371.23801 622.066034 
L 366.858883 622.066034 
z
" style="fill:#0000ff;opacity:0.6;"/>
   </g>
   <g id="patch_60">
    <path clip-path="url(#p8a6ffb53e2)" d="M 372.332792 623.12 
L 376.711919 623.12 
L 376.711919 622.062014 
L 372.332792 622.062014 
z
" style="fill:#0000ff;opacity:0.6;"/>
   </g>
   <g id="patch_61">
    <path clip-path="url(#p8a6ffb53e2)" d="M 377.806701 623.12 
L 382.185827 623.12 
L 382.185827 622.037702 
L 377.806701 622.037702 
z
" style="fill:#0000ff;opacity:0.6;"/>
   </g>
   <g id="patch_62">
    <path clip-path="url(#p8a6ffb53e2)" d="M 383.280609 623.12 
L 387.659736 623.12 
L 387.659736 621.976715 
L 383.280609 621.976715 
z
" style="fill:#0000ff;opacity:0.6;"/>
   </g>
   <g id="patch_63">
    <path clip-path="url(#p8a6ffb53e2)" d="M 388.754518 623.12 
L 393.133645 623.12 
L 393.133645 621.875808 
L 388.754518 621.875808 
z
" style="fill:#0000ff;opacity:0.6;"/>
   </g>
   <g id="patch_64">
    <path clip-path="url(#p8a6ffb53e2)" d="M 394.228426 623.12 
L 398.607553 623.12 
L 398.607553 621.80354 
L 394.228426 621.80354 
z
" style="fill:#0000ff;opacity:0.6;"/>
   </g>
   <g id="patch_65">
    <path clip-path="url(#p8a6ffb53e2)" d="M 399.702335 623.12 
L 404.081462 623.12 
L 404.081462 621.80354 
L 399.702335 621.80354 
z
" style="fill:#0000ff;opacity:0.6;"/>
   </g>
   <g id="patch_66">
    <path clip-path="url(#p8a6ffb53e2)" d="M 405.176244 623.12 
L 409.555371 623.12 
L 409.555371 621.801779 
L 405.176244 621.801779 
z
" style="fill:#0000ff;opacity:0.6;"/>
   </g>
   <g id="patch_67">
    <path clip-path="url(#p8a6ffb53e2)" d="M 410.650152 623.12 
L 415.029279 623.12 
L 415.029279 621.694935 
L 410.650152 621.694935 
z
" style="fill:#0000ff;opacity:0.6;"/>
   </g>
   <g id="patch_68">
    <path clip-path="url(#p8a6ffb53e2)" d="M 416.124061 623.12 
L 420.503188 623.12 
L 420.503188 621.673698 
L 416.124061 621.673698 
z
" style="fill:#0000ff;opacity:0.6;"/>
   </g>
   <g id="patch_69">
    <path clip-path="url(#p8a6ffb53e2)" d="M 421.59797 623.12 
L 425.977096 623.12 
L 425.977096 621.635537 
L 421.59797 621.635537 
z
" style="fill:#0000ff;opacity:0.6;"/>
   </g>
   <g id="patch_70">
    <path clip-path="url(#p8a6ffb53e2)" d="M 427.071878 623.12 
L 431.451005 623.12 
L 431.451005 621.616337 
L 427.071878 621.616337 
z
" style="fill:#0000ff;opacity:0.6;"/>
   </g>
   <g id="patch_71">
    <path clip-path="url(#p8a6ffb53e2)" d="M 432.545787 623.12 
L 436.924914 623.12 
L 436.924914 621.5157 
L 432.545787 621.5157 
z
" style="fill:#0000ff;opacity:0.6;"/>
   </g>
   <g id="patch_72">
    <path clip-path="url(#p8a6ffb53e2)" d="M 438.019695 623.12 
L 442.398822 623.12 
L 442.398822 621.447529 
L 438.019695 621.447529 
z
" style="fill:#0000ff;opacity:0.6;"/>
   </g>
   <g id="patch_73">
    <path clip-path="url(#p8a6ffb53e2)" d="M 443.493604 623.12 
L 447.872731 623.12 
L 447.872731 621.305219 
L 443.493604 621.305219 
z
" style="fill:#0000ff;opacity:0.6;"/>
   </g>
   <g id="patch_74">
    <path clip-path="url(#p8a6ffb53e2)" d="M 448.967513 623.12 
L 453.34664 623.12 
L 453.34664 621.2485 
L 448.967513 621.2485 
z
" style="fill:#0000ff;opacity:0.6;"/>
   </g>
   <g id="patch_75">
    <path clip-path="url(#p8a6ffb53e2)" d="M 454.441421 623.12 
L 458.820548 623.12 
L 458.820548 621.115432 
L 454.441421 621.115432 
z
" style="fill:#0000ff;opacity:0.6;"/>
   </g>
   <g id="patch_76">
    <path clip-path="url(#p8a6ffb53e2)" d="M 459.91533 623.12 
L 464.294457 623.12 
L 464.294457 621.02526 
L 459.91533 621.02526 
z
" style="fill:#0000ff;opacity:0.6;"/>
   </g>
   <g id="patch_77">
    <path clip-path="url(#p8a6ffb53e2)" d="M 465.389239 623.12 
L 469.768365 623.12 
L 469.768365 620.914989 
L 465.389239 620.914989 
z
" style="fill:#0000ff;opacity:0.6;"/>
   </g>
   <g id="patch_78">
    <path clip-path="url(#p8a6ffb53e2)" d="M 470.863147 623.12 
L 475.242274 623.12 
L 475.242274 620.778454 
L 470.863147 620.778454 
z
" style="fill:#0000ff;opacity:0.6;"/>
   </g>
   <g id="patch_79">
    <path clip-path="url(#p8a6ffb53e2)" d="M 476.337056 623.12 
L 480.716183 623.12 
L 480.716183 620.596606 
L 476.337056 620.596606 
z
" style="fill:#0000ff;opacity:0.6;"/>
   </g>
   <g id="patch_80">
    <path clip-path="url(#p8a6ffb53e2)" d="M 481.810964 623.12 
L 486.190091 623.12 
L 486.190091 620.550711 
L 481.810964 620.550711 
z
" style="fill:#0000ff;opacity:0.6;"/>
   </g>
   <g id="patch_81">
    <path clip-path="url(#p8a6ffb53e2)" d="M 487.284873 623.12 
L 491.664 623.12 
L 491.664 620.542362 
L 487.284873 620.542362 
z
" style="fill:#0000ff;opacity:0.6;"/>
   </g>
   <g id="patch_82">
    <path clip-path="url(#p8a6ffb53e2)" d="M 492.758782 623.12 
L 497.137909 623.12 
L 497.137909 620.542362 
L 492.758782 620.542362 
z
" style="fill:#0000ff;opacity:0.6;"/>
   </g>
   <g id="patch_83">
    <path clip-path="url(#p8a6ffb53e2)" d="M 498.23269 623.12 
L 502.611817 623.12 
L 502.611817 620.422025 
L 498.23269 620.422025 
z
" style="fill:#0000ff;opacity:0.6;"/>
   </g>
   <g id="patch_84">
    <path clip-path="url(#p8a6ffb53e2)" d="M 503.706599 623.12 
L 508.085726 623.12 
L 508.085726 620.363854 
L 503.706599 620.363854 
z
" style="fill:#0000ff;opacity:0.6;"/>
   </g>
   <g id="patch_85">
    <path clip-path="url(#p8a6ffb53e2)" d="M 509.180508 623.12 
L 513.559635 623.12 
L 513.559635 620.321922 
L 509.180508 620.321922 
z
" style="fill:#0000ff;opacity:0.6;"/>
   </g>
   <g id="patch_86">
    <path clip-path="url(#p8a6ffb53e2)" d="M 514.654416 623.12 
L 519.033543 623.12 
L 519.033543 620.14359 
L 514.654416 620.14359 
z
" style="fill:#0000ff;opacity:0.6;"/>
   </g>
   <g id="patch_87">
    <path clip-path="url(#p8a6ffb53e2)" d="M 520.128325 623.12 
L 524.507452 623.12 
L 524.507452 619.912142 
L 520.128325 619.912142 
z
" style="fill:#0000ff;opacity:0.6;"/>
   </g>
   <g id="patch_88">
    <path clip-path="url(#p8a6ffb53e2)" d="M 525.602234 623.12 
L 529.98136 623.12 
L 529.98136 619.907197 
L 525.602234 619.907197 
z
" style="fill:#0000ff;opacity:0.6;"/>
   </g>
   <g id="patch_89">
    <path clip-path="url(#p8a6ffb53e2)" d="M 531.076142 623.12 
L 535.455269 623.12 
L 535.455269 618.666111 
L 531.076142 618.666111 
z
" style="fill:#0000ff;opacity:0.6;"/>
   </g>
   <g id="patch_90">
    <path clip-path="url(#p8a6ffb53e2)" d="M 536.550051 623.12 
L 540.929178 623.12 
L 540.929178 618.593095 
L 536.550051 618.593095 
z
" style="fill:#0000ff;opacity:0.6;"/>
   </g>
   <g id="patch_91">
    <path clip-path="url(#p8a6ffb53e2)" d="M 542.023959 623.12 
L 546.403086 623.12 
L 546.403086 618.551043 
L 542.023959 618.551043 
z
" style="fill:#0000ff;opacity:0.6;"/>
   </g>
   <g id="patch_92">
    <path clip-path="url(#p8a6ffb53e2)" d="M 547.497868 623.12 
L 551.876995 623.12 
L 551.876995 617.901076 
L 547.497868 617.901076 
z
" style="fill:#0000ff;opacity:0.6;"/>
   </g>
   <g id="patch_93">
    <path clip-path="url(#p8a6ffb53e2)" d="M 552.971777 623.12 
L 557.350904 623.12 
L 557.350904 617.494806 
L 552.971777 617.494806 
z
" style="fill:#0000ff;opacity:0.6;"/>
   </g>
   <g id="patch_94">
    <path clip-path="url(#p8a6ffb53e2)" d="M 558.445685 623.12 
L 562.824812 623.12 
L 562.824812 617.08877 
L 558.445685 617.08877 
z
" style="fill:#0000ff;opacity:0.6;"/>
   </g>
   <g id="patch_95">
    <path clip-path="url(#p8a6ffb53e2)" d="M 563.919594 623.12 
L 568.298721 623.12 
L 568.298721 616.68343 
L 563.919594 616.68343 
z
" style="fill:#0000ff;opacity:0.6;"/>
   </g>
   <g id="patch_96">
    <path clip-path="url(#p8a6ffb53e2)" d="M 569.393503 623.12 
L 573.772629 623.12 
L 573.772629 616.654524 
L 569.393503 616.654524 
z
" style="fill:#0000ff;opacity:0.6;"/>
   </g>
   <g id="patch_97">
    <path clip-path="url(#p8a6ffb53e2)" d="M 574.867411 623.12 
L 579.246538 623.12 
L 579.246538 616.614995 
L 574.867411 616.614995 
z
" style="fill:#0000ff;opacity:0.6;"/>
   </g>
   <g id="patch_98">
    <path clip-path="url(#p8a6ffb53e2)" d="M 580.34132 623.12 
L 584.720447 623.12 
L 584.720447 616.576709 
L 580.34132 616.576709 
z
" style="fill:#0000ff;opacity:0.6;"/>
   </g>
   <g id="patch_99">
    <path clip-path="url(#p8a6ffb53e2)" d="M 585.815228 623.12 
L 590.194355 623.12 
L 590.194355 616.290418 
L 585.815228 616.290418 
z
" style="fill:#0000ff;opacity:0.6;"/>
   </g>
   <g id="patch_100">
    <path clip-path="url(#p8a6ffb53e2)" d="M 591.289137 623.12 
L 595.668264 623.12 
L 595.668264 616.147508 
L 591.289137 616.147508 
z
" style="fill:#0000ff;opacity:0.6;"/>
   </g>
   <g id="patch_101">
    <path clip-path="url(#p8a6ffb53e2)" d="M 596.763046 623.12 
L 601.142173 623.12 
L 601.142173 615.902287 
L 596.763046 615.902287 
z
" style="fill:#0000ff;opacity:0.6;"/>
   </g>
   <g id="patch_102">
    <path clip-path="url(#p8a6ffb53e2)" d="M 602.236954 623.12 
L 606.616081 623.12 
L 606.616081 614.779568 
L 602.236954 614.779568 
z
" style="fill:#0000ff;opacity:0.6;"/>
   </g>
   <g id="patch_103">
    <path clip-path="url(#p8a6ffb53e2)" d="M 607.710863 623.12 
L 612.08999 623.12 
L 612.08999 614.62003 
L 607.710863 614.62003 
z
" style="fill:#0000ff;opacity:0.6;"/>
   </g>
   <g id="patch_104">
    <path clip-path="url(#p8a6ffb53e2)" d="M 613.184772 623.12 
L 617.563898 623.12 
L 617.563898 614.555147 
L 613.184772 614.555147 
z
" style="fill:#0000ff;opacity:0.6;"/>
   </g>
   <g id="patch_105">
    <path clip-path="url(#p8a6ffb53e2)" d="M 618.65868 623.12 
L 623.037807 623.12 
L 623.037807 613.367476 
L 618.65868 613.367476 
z
" style="fill:#0000ff;opacity:0.6;"/>
   </g>
   <g id="patch_106">
    <path clip-path="url(#p8a6ffb53e2)" d="M 624.132589 623.12 
L 628.511716 623.12 
L 628.511716 612.705007 
L 624.132589 612.705007 
z
" style="fill:#0000ff;opacity:0.6;"/>
   </g>
   <g id="patch_107">
    <path clip-path="url(#p8a6ffb53e2)" d="M 629.606497 623.12 
L 633.985624 623.12 
L 633.985624 612.554759 
L 629.606497 612.554759 
z
" style="fill:#0000ff;opacity:0.6;"/>
   </g>
   <g id="patch_108">
    <path clip-path="url(#p8a6ffb53e2)" d="M 635.080406 623.12 
L 639.459533 623.12 
L 639.459533 611.201186 
L 635.080406 611.201186 
z
" style="fill:#0000ff;opacity:0.6;"/>
   </g>
   <g id="patch_109">
    <path clip-path="url(#p8a6ffb53e2)" d="M 640.554315 623.12 
L 644.933442 623.12 
L 644.933442 610.435073 
L 640.554315 610.435073 
z
" style="fill:#0000ff;opacity:0.6;"/>
   </g>
   <g id="patch_110">
    <path clip-path="url(#p8a6ffb53e2)" d="M 646.028223 623.12 
L 650.40735 623.12 
L 650.40735 610.384674 
L 646.028223 610.384674 
z
" style="fill:#0000ff;opacity:0.6;"/>
   </g>
   <g id="patch_111">
    <path clip-path="url(#p8a6ffb53e2)" d="M 651.502132 623.12 
L 655.881259 623.12 
L 655.881259 610.37289 
L 651.502132 610.37289 
z
" style="fill:#0000ff;opacity:0.6;"/>
   </g>
   <g id="patch_112">
    <path clip-path="url(#p8a6ffb53e2)" d="M 656.976041 623.12 
L 661.355168 623.12 
L 661.355168 610.02098 
L 656.976041 610.02098 
z
" style="fill:#0000ff;opacity:0.6;"/>
   </g>
   <g id="patch_113">
    <path clip-path="url(#p8a6ffb53e2)" d="M 662.449949 623.12 
L 666.829076 623.12 
L 666.829076 609.714173 
L 662.449949 609.714173 
z
" style="fill:#0000ff;opacity:0.6;"/>
   </g>
   <g id="patch_114">
    <path clip-path="url(#p8a6ffb53e2)" d="M 667.923858 623.12 
L 672.302985 623.12 
L 672.302985 609.713463 
L 667.923858 609.713463 
z
" style="fill:#0000ff;opacity:0.6;"/>
   </g>
   <g id="patch_115">
    <path clip-path="url(#p8a6ffb53e2)" d="M 673.397766 623.12 
L 677.776893 623.12 
L 677.776893 609.659835 
L 673.397766 609.659835 
z
" style="fill:#0000ff;opacity:0.6;"/>
   </g>
   <g id="patch_116">
    <path clip-path="url(#p8a6ffb53e2)" d="M 678.871675 623.12 
L 683.250802 623.12 
L 683.250802 609.231319 
L 678.871675 609.231319 
z
" style="fill:#0000ff;opacity:0.6;"/>
   </g>
   <g id="patch_117">
    <path clip-path="url(#p8a6ffb53e2)" d="M 684.345584 623.12 
L 688.724711 623.12 
L 688.724711 606.148998 
L 684.345584 606.148998 
z
" style="fill:#0000ff;opacity:0.6;"/>
   </g>
   <g id="patch_118">
    <path clip-path="url(#p8a6ffb53e2)" d="M 689.819492 623.12 
L 694.198619 623.12 
L 694.198619 604.818987 
L 689.819492 604.818987 
z
" style="fill:#0000ff;opacity:0.6;"/>
   </g>
   <g id="patch_119">
    <path clip-path="url(#p8a6ffb53e2)" d="M 695.293401 623.12 
L 699.672528 623.12 
L 699.672528 602.897717 
L 695.293401 602.897717 
z
" style="fill:#0000ff;opacity:0.6;"/>
   </g>
   <g id="patch_120">
    <path clip-path="url(#p8a6ffb53e2)" d="M 700.76731 623.12 
L 705.146437 623.12 
L 705.146437 601.358148 
L 700.76731 601.358148 
z
" style="fill:#0000ff;opacity:0.6;"/>
   </g>
   <g id="patch_121">
    <path clip-path="url(#p8a6ffb53e2)" d="M 706.241218 623.12 
L 710.620345 623.12 
L 710.620345 601.358148 
L 706.241218 601.358148 
z
" style="fill:#0000ff;opacity:0.6;"/>
   </g>
   <g id="patch_122">
    <path clip-path="url(#p8a6ffb53e2)" d="M 711.715127 623.12 
L 716.094254 623.12 
L 716.094254 598.957391 
L 711.715127 598.957391 
z
" style="fill:#0000ff;opacity:0.6;"/>
   </g>
   <g id="patch_123">
    <path clip-path="url(#p8a6ffb53e2)" d="M 717.189036 623.12 
L 721.568162 623.12 
L 721.568162 597.829963 
L 717.189036 597.829963 
z
" style="fill:#0000ff;opacity:0.6;"/>
   </g>
   <g id="patch_124">
    <path clip-path="url(#p8a6ffb53e2)" d="M 722.662944 623.12 
L 727.042071 623.12 
L 727.042071 596.095441 
L 722.662944 596.095441 
z
" style="fill:#0000ff;opacity:0.6;"/>
   </g>
   <g id="patch_125">
    <path clip-path="url(#p8a6ffb53e2)" d="M 728.136853 623.12 
L 732.51598 623.12 
L 732.51598 595.062748 
L 728.136853 595.062748 
z
" style="fill:#0000ff;opacity:0.6;"/>
   </g>
   <g id="patch_126">
    <path clip-path="url(#p8a6ffb53e2)" d="M 733.610761 623.12 
L 737.989888 623.12 
L 737.989888 595.062748 
L 733.610761 595.062748 
z
" style="fill:#0000ff;opacity:0.6;"/>
   </g>
   <g id="patch_127">
    <path clip-path="url(#p8a6ffb53e2)" d="M 739.08467 623.12 
L 743.463797 623.12 
L 743.463797 595.062748 
L 739.08467 595.062748 
z
" style="fill:#0000ff;opacity:0.6;"/>
   </g>
   <g id="patch_128">
    <path clip-path="url(#p8a6ffb53e2)" d="M 744.558579 623.12 
L 748.937706 623.12 
L 748.937706 592.580701 
L 744.558579 592.580701 
z
" style="fill:#0000ff;opacity:0.6;"/>
   </g>
   <g id="patch_129">
    <path clip-path="url(#p8a6ffb53e2)" d="M 750.032487 623.12 
L 754.411614 623.12 
L 754.411614 590.387424 
L 750.032487 590.387424 
z
" style="fill:#0000ff;opacity:0.6;"/>
   </g>
   <g id="patch_130">
    <path clip-path="url(#p8a6ffb53e2)" d="M 755.506396 623.12 
L 759.885523 623.12 
L 759.885523 588.808577 
L 755.506396 588.808577 
z
" style="fill:#0000ff;opacity:0.6;"/>
   </g>
   <g id="patch_131">
    <path clip-path="url(#p8a6ffb53e2)" d="M 760.980305 623.12 
L 765.359431 623.12 
L 765.359431 585.097604 
L 760.980305 585.097604 
z
" style="fill:#0000ff;opacity:0.6;"/>
   </g>
   <g id="patch_132">
    <path clip-path="url(#p8a6ffb53e2)" d="M 766.454213 623.12 
L 770.83334 623.12 
L 770.83334 583.54937 
L 766.454213 583.54937 
z
" style="fill:#0000ff;opacity:0.6;"/>
   </g>
   <g id="patch_133">
    <path clip-path="url(#p8a6ffb53e2)" d="M 771.928122 623.12 
L 776.307249 623.12 
L 776.307249 576.870244 
L 771.928122 576.870244 
z
" style="fill:#0000ff;opacity:0.6;"/>
   </g>
   <g id="patch_134">
    <path clip-path="url(#p8a6ffb53e2)" d="M 777.40203 623.12 
L 781.781157 623.12 
L 781.781157 575.567296 
L 777.40203 575.567296 
z
" style="fill:#0000ff;opacity:0.6;"/>
   </g>
   <g id="patch_135">
    <path clip-path="url(#p8a6ffb53e2)" d="M 782.875939 623.12 
L 787.255066 623.12 
L 787.255066 573.134377 
L 782.875939 573.134377 
z
" style="fill:#0000ff;opacity:0.6;"/>
   </g>
   <g id="patch_136">
    <path clip-path="url(#p8a6ffb53e2)" d="M 788.349848 623.12 
L 792.728975 623.12 
L 792.728975 572.146745 
L 788.349848 572.146745 
z
" style="fill:#0000ff;opacity:0.6;"/>
   </g>
   <g id="patch_137">
    <path clip-path="url(#p8a6ffb53e2)" d="M 793.823756 623.12 
L 798.202883 623.12 
L 798.202883 570.911369 
L 793.823756 570.911369 
z
" style="fill:#0000ff;opacity:0.6;"/>
   </g>
   <g id="patch_138">
    <path clip-path="url(#p8a6ffb53e2)" d="M 799.297665 623.12 
L 803.676792 623.12 
L 803.676792 570.911369 
L 799.297665 570.911369 
z
" style="fill:#0000ff;opacity:0.6;"/>
   </g>
   <g id="patch_139">
    <path clip-path="url(#p8a6ffb53e2)" d="M 804.771574 623.12 
L 809.150701 623.12 
L 809.150701 570.911369 
L 804.771574 570.911369 
z
" style="fill:#0000ff;opacity:0.6;"/>
   </g>
   <g id="patch_140">
    <path clip-path="url(#p8a6ffb53e2)" d="M 810.245482 623.12 
L 814.624609 623.12 
L 814.624609 570.911369 
L 810.245482 570.911369 
z
" style="fill:#0000ff;opacity:0.6;"/>
   </g>
   <g id="patch_141">
    <path clip-path="url(#p8a6ffb53e2)" d="M 815.719391 623.12 
L 820.098518 623.12 
L 820.098518 570.911369 
L 815.719391 570.911369 
z
" style="fill:#0000ff;opacity:0.6;"/>
   </g>
   <g id="patch_142">
    <path clip-path="url(#p8a6ffb53e2)" d="M 821.193299 623.12 
L 825.572426 623.12 
L 825.572426 570.911369 
L 821.193299 570.911369 
z
" style="fill:#0000ff;opacity:0.6;"/>
   </g>
   <g id="patch_143">
    <path clip-path="url(#p8a6ffb53e2)" d="M 826.667208 623.12 
L 831.046335 623.12 
L 831.046335 570.312889 
L 826.667208 570.312889 
z
" style="fill:#0000ff;opacity:0.6;"/>
   </g>
   <g id="patch_144">
    <path clip-path="url(#p8a6ffb53e2)" d="M 832.141117 623.12 
L 836.520244 623.12 
L 836.520244 570.312889 
L 832.141117 570.312889 
z
" style="fill:#0000ff;opacity:0.6;"/>
   </g>
   <g id="patch_145">
    <path clip-path="url(#p8a6ffb53e2)" d="M 837.615025 623.12 
L 841.994152 623.12 
L 841.994152 568.213394 
L 837.615025 568.213394 
z
" style="fill:#0000ff;opacity:0.6;"/>
   </g>
   <g id="patch_146">
    <path clip-path="url(#p8a6ffb53e2)" d="M 843.088934 623.12 
L 847.468061 623.12 
L 847.468061 554.062606 
L 843.088934 554.062606 
z
" style="fill:#0000ff;opacity:0.6;"/>
   </g>
   <g id="patch_147">
    <path clip-path="url(#p8a6ffb53e2)" d="M 848.562843 623.12 
L 852.94197 623.12 
L 852.94197 553.534592 
L 848.562843 553.534592 
z
" style="fill:#0000ff;opacity:0.6;"/>
   </g>
   <g id="patch_148">
    <path clip-path="url(#p8a6ffb53e2)" d="M 854.036751 623.12 
L 858.415878 623.12 
L 858.415878 542.341649 
L 854.036751 542.341649 
z
" style="fill:#0000ff;opacity:0.6;"/>
   </g>
   <g id="patch_149">
    <path clip-path="url(#p8a6ffb53e2)" d="M 859.51066 623.12 
L 863.889787 623.12 
L 863.889787 526.840232 
L 859.51066 526.840232 
z
" style="fill:#0000ff;opacity:0.6;"/>
   </g>
   <g id="patch_150">
    <path clip-path="url(#p8a6ffb53e2)" d="M 864.984569 623.12 
L 869.363695 623.12 
L 869.363695 524.488288 
L 864.984569 524.488288 
z
" style="fill:#0000ff;opacity:0.6;"/>
   </g>
   <g id="patch_151">
    <path clip-path="url(#p8a6ffb53e2)" d="M 870.458477 623.12 
L 874.837604 623.12 
L 874.837604 515.864584 
L 870.458477 515.864584 
z
" style="fill:#0000ff;opacity:0.6;"/>
   </g>
   <g id="patch_152">
    <path clip-path="url(#p8a6ffb53e2)" d="M 875.932386 623.12 
L 880.311513 623.12 
L 880.311513 514.198402 
L 875.932386 514.198402 
z
" style="fill:#0000ff;opacity:0.6;"/>
   </g>
   <g id="patch_153">
    <path clip-path="url(#p8a6ffb53e2)" d="M 881.406294 623.12 
L 885.785421 623.12 
L 885.785421 507.406515 
L 881.406294 507.406515 
z
" style="fill:#0000ff;opacity:0.6;"/>
   </g>
   <g id="patch_154">
    <path clip-path="url(#p8a6ffb53e2)" d="M 886.880203 623.12 
L 891.25933 623.12 
L 891.25933 502.888671 
L 886.880203 502.888671 
z
" style="fill:#0000ff;opacity:0.6;"/>
   </g>
   <g id="patch_155">
    <path clip-path="url(#p8a6ffb53e2)" d="M 892.354112 623.12 
L 896.733239 623.12 
L 896.733239 502.263693 
L 892.354112 502.263693 
z
" style="fill:#0000ff;opacity:0.6;"/>
   </g>
   <g id="patch_156">
    <path clip-path="url(#p8a6ffb53e2)" d="M 897.82802 623.12 
L 902.207147 623.12 
L 902.207147 495.971974 
L 897.82802 495.971974 
z
" style="fill:#0000ff;opacity:0.6;"/>
   </g>
   <g id="patch_157">
    <path clip-path="url(#p8a6ffb53e2)" d="M 903.301929 623.12 
L 907.681056 623.12 
L 907.681056 494.107632 
L 903.301929 494.107632 
z
" style="fill:#0000ff;opacity:0.6;"/>
   </g>
   <g id="patch_158">
    <path clip-path="url(#p8a6ffb53e2)" d="M 908.775838 623.12 
L 913.154964 623.12 
L 913.154964 491.690414 
L 908.775838 491.690414 
z
" style="fill:#0000ff;opacity:0.6;"/>
   </g>
   <g id="patch_159">
    <path clip-path="url(#p8a6ffb53e2)" d="M 914.249746 623.12 
L 918.628873 623.12 
L 918.628873 491.452716 
L 914.249746 491.452716 
z
" style="fill:#0000ff;opacity:0.6;"/>
   </g>
   <g id="patch_160">
    <path clip-path="url(#p8a6ffb53e2)" d="M 919.723655 623.12 
L 924.102782 623.12 
L 924.102782 488.01541 
L 919.723655 488.01541 
z
" style="fill:#0000ff;opacity:0.6;"/>
   </g>
   <g id="patch_161">
    <path clip-path="url(#p8a6ffb53e2)" d="M 925.197563 623.12 
L 929.57669 623.12 
L 929.57669 487.253247 
L 925.197563 487.253247 
z
" style="fill:#0000ff;opacity:0.6;"/>
   </g>
   <g id="patch_162">
    <path clip-path="url(#p8a6ffb53e2)" d="M 930.671472 623.12 
L 935.050599 623.12 
L 935.050599 485.403033 
L 930.671472 485.403033 
z
" style="fill:#0000ff;opacity:0.6;"/>
   </g>
   <g id="patch_163">
    <path clip-path="url(#p8a6ffb53e2)" d="M 936.145381 623.12 
L 940.524508 623.12 
L 940.524508 484.97464 
L 936.145381 484.97464 
z
" style="fill:#0000ff;opacity:0.6;"/>
   </g>
   <g id="patch_164">
    <path clip-path="url(#p8a6ffb53e2)" d="M 941.619289 623.12 
L 945.998416 623.12 
L 945.998416 483.292163 
L 941.619289 483.292163 
z
" style="fill:#0000ff;opacity:0.6;"/>
   </g>
   <g id="patch_165">
    <path clip-path="url(#p8a6ffb53e2)" d="M 947.093198 623.12 
L 951.472325 623.12 
L 951.472325 479.947982 
L 947.093198 479.947982 
z
" style="fill:#0000ff;opacity:0.6;"/>
   </g>
   <g id="patch_166">
    <path clip-path="url(#p8a6ffb53e2)" d="M 952.567107 623.12 
L 956.946234 623.12 
L 956.946234 479.947982 
L 952.567107 479.947982 
z
" style="fill:#0000ff;opacity:0.6;"/>
   </g>
   <g id="patch_167">
    <path clip-path="url(#p8a6ffb53e2)" d="M 958.041015 623.12 
L 962.420142 623.12 
L 962.420142 479.947982 
L 958.041015 479.947982 
z
" style="fill:#0000ff;opacity:0.6;"/>
   </g>
   <g id="patch_168">
    <path clip-path="url(#p8a6ffb53e2)" d="M 963.514924 623.12 
L 967.894051 623.12 
L 967.894051 479.947982 
L 963.514924 479.947982 
z
" style="fill:#0000ff;opacity:0.6;"/>
   </g>
   <g id="patch_169">
    <path clip-path="url(#p8a6ffb53e2)" d="M 968.988832 623.12 
L 973.367959 623.12 
L 973.367959 479.947982 
L 968.988832 479.947982 
z
" style="fill:#0000ff;opacity:0.6;"/>
   </g>
   <g id="patch_170">
    <path clip-path="url(#p8a6ffb53e2)" d="M 974.462741 623.12 
L 978.841868 623.12 
L 978.841868 479.947982 
L 974.462741 479.947982 
z
" style="fill:#0000ff;opacity:0.6;"/>
   </g>
   <g id="patch_171">
    <path clip-path="url(#p8a6ffb53e2)" d="M 979.93665 623.12 
L 984.315777 623.12 
L 984.315777 479.773347 
L 979.93665 479.773347 
z
" style="fill:#0000ff;opacity:0.6;"/>
   </g>
   <g id="patch_172">
    <path clip-path="url(#p8a6ffb53e2)" d="M 985.410558 623.12 
L 989.789685 623.12 
L 989.789685 478.573451 
L 985.410558 478.573451 
z
" style="fill:#0000ff;opacity:0.6;"/>
   </g>
   <g id="patch_173">
    <path clip-path="url(#p8a6ffb53e2)" d="M 990.884467 623.12 
L 995.263594 623.12 
L 995.263594 478.145057 
L 990.884467 478.145057 
z
" style="fill:#0000ff;opacity:0.6;"/>
   </g>
   <g id="patch_174">
    <path clip-path="url(#p8a6ffb53e2)" d="M 996.358376 623.12 
L 1000.737503 623.12 
L 1000.737503 478.145057 
L 996.358376 478.145057 
z
" style="fill:#0000ff;opacity:0.6;"/>
   </g>
   <g id="patch_175">
    <path clip-path="url(#p8a6ffb53e2)" d="M 1001.832284 623.12 
L 1006.211411 623.12 
L 1006.211411 478.130476 
L 1001.832284 478.130476 
z
" style="fill:#0000ff;opacity:0.6;"/>
   </g>
   <g id="patch_176">
    <path clip-path="url(#p8a6ffb53e2)" d="M 1007.306193 623.12 
L 1011.68532 623.12 
L 1011.68532 459.779637 
L 1007.306193 459.779637 
z
" style="fill:#0000ff;opacity:0.6;"/>
   </g>
   <g id="patch_177">
    <path clip-path="url(#p8a6ffb53e2)" d="M 1012.780102 623.12 
L 1017.159228 623.12 
L 1017.159228 458.72427 
L 1012.780102 458.72427 
z
" style="fill:#0000ff;opacity:0.6;"/>
   </g>
   <g id="patch_178">
    <path clip-path="url(#p8a6ffb53e2)" d="M 1018.25401 623.12 
L 1022.633137 623.12 
L 1022.633137 441.796804 
L 1018.25401 441.796804 
z
" style="fill:#0000ff;opacity:0.6;"/>
   </g>
   <g id="patch_179">
    <path clip-path="url(#p8a6ffb53e2)" d="M 1023.727919 623.12 
L 1028.107046 623.12 
L 1028.107046 437.192466 
L 1023.727919 437.192466 
z
" style="fill:#0000ff;opacity:0.6;"/>
   </g>
   <g id="patch_180">
    <path clip-path="url(#p8a6ffb53e2)" d="M 1029.201827 623.12 
L 1033.580954 623.12 
L 1033.580954 431.860234 
L 1029.201827 431.860234 
z
" style="fill:#0000ff;opacity:0.6;"/>
   </g>
   <g id="patch_181">
    <path clip-path="url(#p8a6ffb53e2)" d="M 1034.675736 623.12 
L 1039.054863 623.12 
L 1039.054863 427.651253 
L 1034.675736 427.651253 
z
" style="fill:#0000ff;opacity:0.6;"/>
   </g>
   <g id="patch_182">
    <path clip-path="url(#p8a6ffb53e2)" d="M 1040.149645 623.12 
L 1044.528772 623.12 
L 1044.528772 424.06263 
L 1040.149645 424.06263 
z
" style="fill:#0000ff;opacity:0.6;"/>
   </g>
   <g id="patch_183">
    <path clip-path="url(#p8a6ffb53e2)" d="M 1045.623553 623.12 
L 1050.00268 623.12 
L 1050.00268 415.011945 
L 1045.623553 415.011945 
z
" style="fill:#0000ff;opacity:0.6;"/>
   </g>
   <g id="patch_184">
    <path clip-path="url(#p8a6ffb53e2)" d="M 1051.097462 623.12 
L 1055.476589 623.12 
L 1055.476589 388.23734 
L 1051.097462 388.23734 
z
" style="fill:#0000ff;opacity:0.6;"/>
   </g>
   <g id="patch_185">
    <path clip-path="url(#p8a6ffb53e2)" d="M 1056.571371 623.12 
L 1060.950497 623.12 
L 1060.950497 363.253705 
L 1056.571371 363.253705 
z
" style="fill:#0000ff;opacity:0.6;"/>
   </g>
   <g id="patch_186">
    <path clip-path="url(#p8a6ffb53e2)" d="M 1062.045279 623.12 
L 1066.424406 623.12 
L 1066.424406 327.471224 
L 1062.045279 327.471224 
z
" style="fill:#0000ff;opacity:0.6;"/>
   </g>
   <g id="patch_187">
    <path clip-path="url(#p8a6ffb53e2)" d="M 1067.519188 623.12 
L 1071.898315 623.12 
L 1071.898315 327.471224 
L 1067.519188 327.471224 
z
" style="fill:#0000ff;opacity:0.6;"/>
   </g>
   <g id="patch_188">
    <path clip-path="url(#p8a6ffb53e2)" d="M 1072.993096 623.12 
L 1077.372223 623.12 
L 1077.372223 315.351351 
L 1072.993096 315.351351 
z
" style="fill:#0000ff;opacity:0.6;"/>
   </g>
   <g id="patch_189">
    <path clip-path="url(#p8a6ffb53e2)" d="M 1078.467005 623.12 
L 1082.846132 623.12 
L 1082.846132 250.110495 
L 1078.467005 250.110495 
z
" style="fill:#0000ff;opacity:0.6;"/>
   </g>
   <g id="patch_190">
    <path clip-path="url(#p8a6ffb53e2)" d="M 1083.940914 623.12 
L 1088.320041 623.12 
L 1088.320041 250.110495 
L 1083.940914 250.110495 
z
" style="fill:#0000ff;opacity:0.6;"/>
   </g>
   <g id="patch_191">
    <path clip-path="url(#p8a6ffb53e2)" d="M 1089.414822 623.12 
L 1093.793949 623.12 
L 1093.793949 240.772048 
L 1089.414822 240.772048 
z
" style="fill:#0000ff;opacity:0.6;"/>
   </g>
   <g id="patch_192">
    <path clip-path="url(#p8a6ffb53e2)" d="M 1094.888731 623.12 
L 1099.267858 623.12 
L 1099.267858 214.341513 
L 1094.888731 214.341513 
z
" style="fill:#0000ff;opacity:0.6;"/>
   </g>
   <g id="patch_193">
    <path clip-path="url(#p8a6ffb53e2)" d="M 1100.36264 623.12 
L 1104.741766 623.12 
L 1104.741766 205.214269 
L 1100.36264 205.214269 
z
" style="fill:#0000ff;opacity:0.6;"/>
   </g>
   <g id="patch_194">
    <path clip-path="url(#p8a6ffb53e2)" d="M 1105.836548 623.12 
L 1110.215675 623.12 
L 1110.215675 203.832257 
L 1105.836548 203.832257 
z
" style="fill:#0000ff;opacity:0.6;"/>
   </g>
   <g id="patch_195">
    <path clip-path="url(#p8a6ffb53e2)" d="M 1111.310457 623.12 
L 1115.689584 623.12 
L 1115.689584 25.820952 
L 1111.310457 25.820952 
z
" style="fill:#0000ff;opacity:0.6;"/>
   </g>
   <g id="patch_196">
    <path clip-path="url(#p8a6ffb53e2)" d="M 1116.784365 623.12 
L 1121.163492 623.12 
L 1121.163492 19.95529 
L 1116.784365 19.95529 
z
" style="fill:#0000ff;opacity:0.6;"/>
   </g>
   <g id="patch_197">
    <path clip-path="url(#p8a6ffb53e2)" d="M 1122.258274 623.12 
L 1126.637401 623.12 
L 1126.637401 15.090682 
L 1122.258274 15.090682 
z
" style="fill:#0000ff;opacity:0.6;"/>
   </g>
   <g id="patch_198">
    <path clip-path="url(#p8a6ffb53e2)" d="M 1127.732183 623.12 
L 1132.11131 623.12 
L 1132.11131 14.76 
L 1127.732183 14.76 
z
" style="fill:#0000ff;opacity:0.6;"/>
   </g>
   <g id="patch_199">
    <path clip-path="url(#p8a6ffb53e2)" d="M 1133.206091 623.12 
L 1137.585218 623.12 
L 1137.585218 14.76 
L 1133.206091 14.76 
z
" style="fill:#0000ff;opacity:0.6;"/>
   </g>
   <g id="matplotlib.axis_1">
    <g id="xtick_1"/>
    <g id="xtick_2"/>
    <g id="xtick_3"/>
    <g id="xtick_4"/>
    <g id="xtick_5"/>
    <g id="xtick_6"/>
    <g id="xtick_7"/>
    <g id="xtick_8"/>
    <g id="text_1">
     <!-- File -->
     <defs>
      <path d="M 9.8125 72.90625 
L 51.703125 72.90625 
L 51.703125 64.59375 
L 19.671875 64.59375 
L 19.671875 43.109375 
L 48.578125 43.109375 
L 48.578125 34.8125 
L 19.671875 34.8125 
L 19.671875 0 
L 9.8125 0 
z
" id="DejaVuSans-46"/>
      <path d="M 9.421875 54.6875 
L 18.40625 54.6875 
L 18.40625 0 
L 9.421875 0 
z
M 9.421875 75.984375 
L 18.40625 75.984375 
L 18.40625 64.59375 
L 9.421875 64.59375 
z
" id="DejaVuSans-69"/>
      <path d="M 9.421875 75.984375 
L 18.40625 75.984375 
L 18.40625 0 
L 9.421875 0 
z
" id="DejaVuSans-6c"/>
      <path d="M 56.203125 29.59375 
L 56.203125 25.203125 
L 14.890625 25.203125 
Q 15.484375 15.921875 20.484375 11.0625 
Q 25.484375 6.203125 34.421875 6.203125 
Q 39.59375 6.203125 44.453125 7.46875 
Q 49.3125 8.734375 54.109375 11.28125 
L 54.109375 2.78125 
Q 49.265625 0.734375 44.1875 -0.34375 
Q 39.109375 -1.421875 33.890625 -1.421875 
Q 20.796875 -1.421875 13.15625 6.1875 
Q 5.515625 13.8125 5.515625 26.8125 
Q 5.515625 40.234375 12.765625 48.109375 
Q 20.015625 56 32.328125 56 
Q 43.359375 56 49.78125 48.890625 
Q 56.203125 41.796875 56.203125 29.59375 
z
M 47.21875 32.234375 
Q 47.125 39.59375 43.09375 43.984375 
Q 39.0625 48.390625 32.421875 48.390625 
Q 24.90625 48.390625 20.390625 44.140625 
Q 15.875 39.890625 15.1875 32.171875 
z
" id="DejaVuSans-65"/>
     </defs>
     <g transform="translate(590.775 634.718438)scale(0.1 -0.1)">
      <use xlink:href="#DejaVuSans-46"/>
      <use x="57.410156" xlink:href="#DejaVuSans-69"/>
      <use x="85.193359" xlink:href="#DejaVuSans-6c"/>
      <use x="112.976562" xlink:href="#DejaVuSans-65"/>
     </g>
    </g>
   </g>
   <g id="matplotlib.axis_2">
    <g id="ytick_1">
     <g id="line2d_1">
      <path clip-path="url(#p8a6ffb53e2)" d="M 60.32 623.12 
L 1138.68 623.12 
" style="fill:none;stroke:#b0b0b0;stroke-linecap:square;stroke-width:0.8;"/>
     </g>
     <g id="line2d_2">
      <defs>
       <path d="M 0 0 
L -3.5 0 
" id="m47657b6e86" style="stroke:#000000;stroke-width:0.8;"/>
      </defs>
      <g>
       <use style="stroke:#000000;stroke-width:0.8;" x="60.32" xlink:href="#m47657b6e86" y="623.12"/>
      </g>
     </g>
     <g id="text_2">
      <!-- 0% -->
      <defs>
       <path d="M 31.78125 66.40625 
Q 24.171875 66.40625 20.328125 58.90625 
Q 16.5 51.421875 16.5 36.375 
Q 16.5 21.390625 20.328125 13.890625 
Q 24.171875 6.390625 31.78125 6.390625 
Q 39.453125 6.390625 43.28125 13.890625 
Q 47.125 21.390625 47.125 36.375 
Q 47.125 51.421875 43.28125 58.90625 
Q 39.453125 66.40625 31.78125 66.40625 
z
M 31.78125 74.21875 
Q 44.046875 74.21875 50.515625 64.515625 
Q 56.984375 54.828125 56.984375 36.375 
Q 56.984375 17.96875 50.515625 8.265625 
Q 44.046875 -1.421875 31.78125 -1.421875 
Q 19.53125 -1.421875 13.0625 8.265625 
Q 6.59375 17.96875 6.59375 36.375 
Q 6.59375 54.828125 13.0625 64.515625 
Q 19.53125 74.21875 31.78125 74.21875 
z
" id="DejaVuSans-30"/>
       <path d="M 72.703125 32.078125 
Q 68.453125 32.078125 66.03125 28.46875 
Q 63.625 24.859375 63.625 18.40625 
Q 63.625 12.0625 66.03125 8.421875 
Q 68.453125 4.78125 72.703125 4.78125 
Q 76.859375 4.78125 79.265625 8.421875 
Q 81.6875 12.0625 81.6875 18.40625 
Q 81.6875 24.8125 79.265625 28.4375 
Q 76.859375 32.078125 72.703125 32.078125 
z
M 72.703125 38.28125 
Q 80.421875 38.28125 84.953125 32.90625 
Q 89.5 27.546875 89.5 18.40625 
Q 89.5 9.28125 84.9375 3.921875 
Q 80.375 -1.421875 72.703125 -1.421875 
Q 64.890625 -1.421875 60.34375 3.921875 
Q 55.8125 9.28125 55.8125 18.40625 
Q 55.8125 27.59375 60.375 32.9375 
Q 64.9375 38.28125 72.703125 38.28125 
z
M 22.3125 68.015625 
Q 18.109375 68.015625 15.6875 64.375 
Q 13.28125 60.75 13.28125 54.390625 
Q 13.28125 47.953125 15.671875 44.328125 
Q 18.0625 40.71875 22.3125 40.71875 
Q 26.5625 40.71875 28.96875 44.328125 
Q 31.390625 47.953125 31.390625 54.390625 
Q 31.390625 60.6875 28.953125 64.34375 
Q 26.515625 68.015625 22.3125 68.015625 
z
M 66.40625 74.21875 
L 74.21875 74.21875 
L 28.609375 -1.421875 
L 20.796875 -1.421875 
z
M 22.3125 74.21875 
Q 30.03125 74.21875 34.609375 68.875 
Q 39.203125 63.53125 39.203125 54.390625 
Q 39.203125 45.171875 34.640625 39.84375 
Q 30.078125 34.515625 22.3125 34.515625 
Q 14.546875 34.515625 10.03125 39.859375 
Q 5.515625 45.21875 5.515625 54.390625 
Q 5.515625 63.484375 10.046875 68.84375 
Q 14.59375 74.21875 22.3125 74.21875 
z
" id="DejaVuSans-25"/>
      </defs>
      <g transform="translate(37.455937 626.919219)scale(0.1 -0.1)">
       <use xlink:href="#DejaVuSans-30"/>
       <use x="63.623047" xlink:href="#DejaVuSans-25"/>
      </g>
     </g>
    </g>
    <g id="ytick_2">
     <g id="line2d_3">
      <path clip-path="url(#p8a6ffb53e2)" d="M 60.32 562.284 
L 1138.68 562.284 
" style="fill:none;stroke:#b0b0b0;stroke-linecap:square;stroke-width:0.8;"/>
     </g>
     <g id="line2d_4">
      <g>
       <use style="stroke:#000000;stroke-width:0.8;" x="60.32" xlink:href="#m47657b6e86" y="562.284"/>
      </g>
     </g>
     <g id="text_3">
      <!-- 10% -->
      <defs>
       <path d="M 12.40625 8.296875 
L 28.515625 8.296875 
L 28.515625 63.921875 
L 10.984375 60.40625 
L 10.984375 69.390625 
L 28.421875 72.90625 
L 38.28125 72.90625 
L 38.28125 8.296875 
L 54.390625 8.296875 
L 54.390625 0 
L 12.40625 0 
z
" id="DejaVuSans-31"/>
      </defs>
      <g transform="translate(31.093437 566.083219)scale(0.1 -0.1)">
       <use xlink:href="#DejaVuSans-31"/>
       <use x="63.623047" xlink:href="#DejaVuSans-30"/>
       <use x="127.246094" xlink:href="#DejaVuSans-25"/>
      </g>
     </g>
    </g>
    <g id="ytick_3">
     <g id="line2d_5">
      <path clip-path="url(#p8a6ffb53e2)" d="M 60.32 501.448 
L 1138.68 501.448 
" style="fill:none;stroke:#b0b0b0;stroke-linecap:square;stroke-width:0.8;"/>
     </g>
     <g id="line2d_6">
      <g>
       <use style="stroke:#000000;stroke-width:0.8;" x="60.32" xlink:href="#m47657b6e86" y="501.448"/>
      </g>
     </g>
     <g id="text_4">
      <!-- 20% -->
      <defs>
       <path d="M 19.1875 8.296875 
L 53.609375 8.296875 
L 53.609375 0 
L 7.328125 0 
L 7.328125 8.296875 
Q 12.9375 14.109375 22.625 23.890625 
Q 32.328125 33.6875 34.8125 36.53125 
Q 39.546875 41.84375 41.421875 45.53125 
Q 43.3125 49.21875 43.3125 52.78125 
Q 43.3125 58.59375 39.234375 62.25 
Q 35.15625 65.921875 28.609375 65.921875 
Q 23.96875 65.921875 18.8125 64.3125 
Q 13.671875 62.703125 7.8125 59.421875 
L 7.8125 69.390625 
Q 13.765625 71.78125 18.9375 73 
Q 24.125 74.21875 28.421875 74.21875 
Q 39.75 74.21875 46.484375 68.546875 
Q 53.21875 62.890625 53.21875 53.421875 
Q 53.21875 48.921875 51.53125 44.890625 
Q 49.859375 40.875 45.40625 35.40625 
Q 44.1875 33.984375 37.640625 27.21875 
Q 31.109375 20.453125 19.1875 8.296875 
z
" id="DejaVuSans-32"/>
      </defs>
      <g transform="translate(31.093437 505.247219)scale(0.1 -0.1)">
       <use xlink:href="#DejaVuSans-32"/>
       <use x="63.623047" xlink:href="#DejaVuSans-30"/>
       <use x="127.246094" xlink:href="#DejaVuSans-25"/>
      </g>
     </g>
    </g>
    <g id="ytick_4">
     <g id="line2d_7">
      <path clip-path="url(#p8a6ffb53e2)" d="M 60.32 440.612 
L 1138.68 440.612 
" style="fill:none;stroke:#b0b0b0;stroke-linecap:square;stroke-width:0.8;"/>
     </g>
     <g id="line2d_8">
      <g>
       <use style="stroke:#000000;stroke-width:0.8;" x="60.32" xlink:href="#m47657b6e86" y="440.612"/>
      </g>
     </g>
     <g id="text_5">
      <!-- 30% -->
      <defs>
       <path d="M 40.578125 39.3125 
Q 47.65625 37.796875 51.625 33 
Q 55.609375 28.21875 55.609375 21.1875 
Q 55.609375 10.40625 48.1875 4.484375 
Q 40.765625 -1.421875 27.09375 -1.421875 
Q 22.515625 -1.421875 17.65625 -0.515625 
Q 12.796875 0.390625 7.625 2.203125 
L 7.625 11.71875 
Q 11.71875 9.328125 16.59375 8.109375 
Q 21.484375 6.890625 26.8125 6.890625 
Q 36.078125 6.890625 40.9375 10.546875 
Q 45.796875 14.203125 45.796875 21.1875 
Q 45.796875 27.640625 41.28125 31.265625 
Q 36.765625 34.90625 28.71875 34.90625 
L 20.21875 34.90625 
L 20.21875 43.015625 
L 29.109375 43.015625 
Q 36.375 43.015625 40.234375 45.921875 
Q 44.09375 48.828125 44.09375 54.296875 
Q 44.09375 59.90625 40.109375 62.90625 
Q 36.140625 65.921875 28.71875 65.921875 
Q 24.65625 65.921875 20.015625 65.03125 
Q 15.375 64.15625 9.8125 62.3125 
L 9.8125 71.09375 
Q 15.4375 72.65625 20.34375 73.4375 
Q 25.25 74.21875 29.59375 74.21875 
Q 40.828125 74.21875 47.359375 69.109375 
Q 53.90625 64.015625 53.90625 55.328125 
Q 53.90625 49.265625 50.4375 45.09375 
Q 46.96875 40.921875 40.578125 39.3125 
z
" id="DejaVuSans-33"/>
      </defs>
      <g transform="translate(31.093437 444.411219)scale(0.1 -0.1)">
       <use xlink:href="#DejaVuSans-33"/>
       <use x="63.623047" xlink:href="#DejaVuSans-30"/>
       <use x="127.246094" xlink:href="#DejaVuSans-25"/>
      </g>
     </g>
    </g>
    <g id="ytick_5">
     <g id="line2d_9">
      <path clip-path="url(#p8a6ffb53e2)" d="M 60.32 379.776 
L 1138.68 379.776 
" style="fill:none;stroke:#b0b0b0;stroke-linecap:square;stroke-width:0.8;"/>
     </g>
     <g id="line2d_10">
      <g>
       <use style="stroke:#000000;stroke-width:0.8;" x="60.32" xlink:href="#m47657b6e86" y="379.776"/>
      </g>
     </g>
     <g id="text_6">
      <!-- 40% -->
      <defs>
       <path d="M 37.796875 64.3125 
L 12.890625 25.390625 
L 37.796875 25.390625 
z
M 35.203125 72.90625 
L 47.609375 72.90625 
L 47.609375 25.390625 
L 58.015625 25.390625 
L 58.015625 17.1875 
L 47.609375 17.1875 
L 47.609375 0 
L 37.796875 0 
L 37.796875 17.1875 
L 4.890625 17.1875 
L 4.890625 26.703125 
z
" id="DejaVuSans-34"/>
      </defs>
      <g transform="translate(31.093437 383.575219)scale(0.1 -0.1)">
       <use xlink:href="#DejaVuSans-34"/>
       <use x="63.623047" xlink:href="#DejaVuSans-30"/>
       <use x="127.246094" xlink:href="#DejaVuSans-25"/>
      </g>
     </g>
    </g>
    <g id="ytick_6">
     <g id="line2d_11">
      <path clip-path="url(#p8a6ffb53e2)" d="M 60.32 318.94 
L 1138.68 318.94 
" style="fill:none;stroke:#b0b0b0;stroke-linecap:square;stroke-width:0.8;"/>
     </g>
     <g id="line2d_12">
      <g>
       <use style="stroke:#000000;stroke-width:0.8;" x="60.32" xlink:href="#m47657b6e86" y="318.94"/>
      </g>
     </g>
     <g id="text_7">
      <!-- 50% -->
      <defs>
       <path d="M 10.796875 72.90625 
L 49.515625 72.90625 
L 49.515625 64.59375 
L 19.828125 64.59375 
L 19.828125 46.734375 
Q 21.96875 47.46875 24.109375 47.828125 
Q 26.265625 48.1875 28.421875 48.1875 
Q 40.625 48.1875 47.75 41.5 
Q 54.890625 34.8125 54.890625 23.390625 
Q 54.890625 11.625 47.5625 5.09375 
Q 40.234375 -1.421875 26.90625 -1.421875 
Q 22.3125 -1.421875 17.546875 -0.640625 
Q 12.796875 0.140625 7.71875 1.703125 
L 7.71875 11.625 
Q 12.109375 9.234375 16.796875 8.0625 
Q 21.484375 6.890625 26.703125 6.890625 
Q 35.15625 6.890625 40.078125 11.328125 
Q 45.015625 15.765625 45.015625 23.390625 
Q 45.015625 31 40.078125 35.4375 
Q 35.15625 39.890625 26.703125 39.890625 
Q 22.75 39.890625 18.8125 39.015625 
Q 14.890625 38.140625 10.796875 36.28125 
z
" id="DejaVuSans-35"/>
      </defs>
      <g transform="translate(31.093437 322.739219)scale(0.1 -0.1)">
       <use xlink:href="#DejaVuSans-35"/>
       <use x="63.623047" xlink:href="#DejaVuSans-30"/>
       <use x="127.246094" xlink:href="#DejaVuSans-25"/>
      </g>
     </g>
    </g>
    <g id="ytick_7">
     <g id="line2d_13">
      <path clip-path="url(#p8a6ffb53e2)" d="M 60.32 258.104 
L 1138.68 258.104 
" style="fill:none;stroke:#b0b0b0;stroke-linecap:square;stroke-width:0.8;"/>
     </g>
     <g id="line2d_14">
      <g>
       <use style="stroke:#000000;stroke-width:0.8;" x="60.32" xlink:href="#m47657b6e86" y="258.104"/>
      </g>
     </g>
     <g id="text_8">
      <!-- 60% -->
      <defs>
       <path d="M 33.015625 40.375 
Q 26.375 40.375 22.484375 35.828125 
Q 18.609375 31.296875 18.609375 23.390625 
Q 18.609375 15.53125 22.484375 10.953125 
Q 26.375 6.390625 33.015625 6.390625 
Q 39.65625 6.390625 43.53125 10.953125 
Q 47.40625 15.53125 47.40625 23.390625 
Q 47.40625 31.296875 43.53125 35.828125 
Q 39.65625 40.375 33.015625 40.375 
z
M 52.59375 71.296875 
L 52.59375 62.3125 
Q 48.875 64.0625 45.09375 64.984375 
Q 41.3125 65.921875 37.59375 65.921875 
Q 27.828125 65.921875 22.671875 59.328125 
Q 17.53125 52.734375 16.796875 39.40625 
Q 19.671875 43.65625 24.015625 45.921875 
Q 28.375 48.1875 33.59375 48.1875 
Q 44.578125 48.1875 50.953125 41.515625 
Q 57.328125 34.859375 57.328125 23.390625 
Q 57.328125 12.15625 50.6875 5.359375 
Q 44.046875 -1.421875 33.015625 -1.421875 
Q 20.359375 -1.421875 13.671875 8.265625 
Q 6.984375 17.96875 6.984375 36.375 
Q 6.984375 53.65625 15.1875 63.9375 
Q 23.390625 74.21875 37.203125 74.21875 
Q 40.921875 74.21875 44.703125 73.484375 
Q 48.484375 72.75 52.59375 71.296875 
z
" id="DejaVuSans-36"/>
      </defs>
      <g transform="translate(31.093437 261.903219)scale(0.1 -0.1)">
       <use xlink:href="#DejaVuSans-36"/>
       <use x="63.623047" xlink:href="#DejaVuSans-30"/>
       <use x="127.246094" xlink:href="#DejaVuSans-25"/>
      </g>
     </g>
    </g>
    <g id="ytick_8">
     <g id="line2d_15">
      <path clip-path="url(#p8a6ffb53e2)" d="M 60.32 197.268 
L 1138.68 197.268 
" style="fill:none;stroke:#b0b0b0;stroke-linecap:square;stroke-width:0.8;"/>
     </g>
     <g id="line2d_16">
      <g>
       <use style="stroke:#000000;stroke-width:0.8;" x="60.32" xlink:href="#m47657b6e86" y="197.268"/>
      </g>
     </g>
     <g id="text_9">
      <!-- 70% -->
      <defs>
       <path d="M 8.203125 72.90625 
L 55.078125 72.90625 
L 55.078125 68.703125 
L 28.609375 0 
L 18.3125 0 
L 43.21875 64.59375 
L 8.203125 64.59375 
z
" id="DejaVuSans-37"/>
      </defs>
      <g transform="translate(31.093437 201.067219)scale(0.1 -0.1)">
       <use xlink:href="#DejaVuSans-37"/>
       <use x="63.623047" xlink:href="#DejaVuSans-30"/>
       <use x="127.246094" xlink:href="#DejaVuSans-25"/>
      </g>
     </g>
    </g>
    <g id="ytick_9">
     <g id="line2d_17">
      <path clip-path="url(#p8a6ffb53e2)" d="M 60.32 136.432 
L 1138.68 136.432 
" style="fill:none;stroke:#b0b0b0;stroke-linecap:square;stroke-width:0.8;"/>
     </g>
     <g id="line2d_18">
      <g>
       <use style="stroke:#000000;stroke-width:0.8;" x="60.32" xlink:href="#m47657b6e86" y="136.432"/>
      </g>
     </g>
     <g id="text_10">
      <!-- 80% -->
      <defs>
       <path d="M 31.78125 34.625 
Q 24.75 34.625 20.71875 30.859375 
Q 16.703125 27.09375 16.703125 20.515625 
Q 16.703125 13.921875 20.71875 10.15625 
Q 24.75 6.390625 31.78125 6.390625 
Q 38.8125 6.390625 42.859375 10.171875 
Q 46.921875 13.96875 46.921875 20.515625 
Q 46.921875 27.09375 42.890625 30.859375 
Q 38.875 34.625 31.78125 34.625 
z
M 21.921875 38.8125 
Q 15.578125 40.375 12.03125 44.71875 
Q 8.5 49.078125 8.5 55.328125 
Q 8.5 64.0625 14.71875 69.140625 
Q 20.953125 74.21875 31.78125 74.21875 
Q 42.671875 74.21875 48.875 69.140625 
Q 55.078125 64.0625 55.078125 55.328125 
Q 55.078125 49.078125 51.53125 44.71875 
Q 48 40.375 41.703125 38.8125 
Q 48.828125 37.15625 52.796875 32.3125 
Q 56.78125 27.484375 56.78125 20.515625 
Q 56.78125 9.90625 50.3125 4.234375 
Q 43.84375 -1.421875 31.78125 -1.421875 
Q 19.734375 -1.421875 13.25 4.234375 
Q 6.78125 9.90625 6.78125 20.515625 
Q 6.78125 27.484375 10.78125 32.3125 
Q 14.796875 37.15625 21.921875 38.8125 
z
M 18.3125 54.390625 
Q 18.3125 48.734375 21.84375 45.5625 
Q 25.390625 42.390625 31.78125 42.390625 
Q 38.140625 42.390625 41.71875 45.5625 
Q 45.3125 48.734375 45.3125 54.390625 
Q 45.3125 60.0625 41.71875 63.234375 
Q 38.140625 66.40625 31.78125 66.40625 
Q 25.390625 66.40625 21.84375 63.234375 
Q 18.3125 60.0625 18.3125 54.390625 
z
" id="DejaVuSans-38"/>
      </defs>
      <g transform="translate(31.093437 140.231219)scale(0.1 -0.1)">
       <use xlink:href="#DejaVuSans-38"/>
       <use x="63.623047" xlink:href="#DejaVuSans-30"/>
       <use x="127.246094" xlink:href="#DejaVuSans-25"/>
      </g>
     </g>
    </g>
    <g id="ytick_10">
     <g id="line2d_19">
      <path clip-path="url(#p8a6ffb53e2)" d="M 60.32 75.596 
L 1138.68 75.596 
" style="fill:none;stroke:#b0b0b0;stroke-linecap:square;stroke-width:0.8;"/>
     </g>
     <g id="line2d_20">
      <g>
       <use style="stroke:#000000;stroke-width:0.8;" x="60.32" xlink:href="#m47657b6e86" y="75.596"/>
      </g>
     </g>
     <g id="text_11">
      <!-- 90% -->
      <defs>
       <path d="M 10.984375 1.515625 
L 10.984375 10.5 
Q 14.703125 8.734375 18.5 7.8125 
Q 22.3125 6.890625 25.984375 6.890625 
Q 35.75 6.890625 40.890625 13.453125 
Q 46.046875 20.015625 46.78125 33.40625 
Q 43.953125 29.203125 39.59375 26.953125 
Q 35.25 24.703125 29.984375 24.703125 
Q 19.046875 24.703125 12.671875 31.3125 
Q 6.296875 37.9375 6.296875 49.421875 
Q 6.296875 60.640625 12.9375 67.421875 
Q 19.578125 74.21875 30.609375 74.21875 
Q 43.265625 74.21875 49.921875 64.515625 
Q 56.59375 54.828125 56.59375 36.375 
Q 56.59375 19.140625 48.40625 8.859375 
Q 40.234375 -1.421875 26.421875 -1.421875 
Q 22.703125 -1.421875 18.890625 -0.6875 
Q 15.09375 0.046875 10.984375 1.515625 
z
M 30.609375 32.421875 
Q 37.25 32.421875 41.125 36.953125 
Q 45.015625 41.5 45.015625 49.421875 
Q 45.015625 57.28125 41.125 61.84375 
Q 37.25 66.40625 30.609375 66.40625 
Q 23.96875 66.40625 20.09375 61.84375 
Q 16.21875 57.28125 16.21875 49.421875 
Q 16.21875 41.5 20.09375 36.953125 
Q 23.96875 32.421875 30.609375 32.421875 
z
" id="DejaVuSans-39"/>
      </defs>
      <g transform="translate(31.093437 79.395219)scale(0.1 -0.1)">
       <use xlink:href="#DejaVuSans-39"/>
       <use x="63.623047" xlink:href="#DejaVuSans-30"/>
       <use x="127.246094" xlink:href="#DejaVuSans-25"/>
      </g>
     </g>
    </g>
    <g id="ytick_11">
     <g id="line2d_21">
      <path clip-path="url(#p8a6ffb53e2)" d="M 60.32 14.76 
L 1138.68 14.76 
" style="fill:none;stroke:#b0b0b0;stroke-linecap:square;stroke-width:0.8;"/>
     </g>
     <g id="line2d_22">
      <g>
       <use style="stroke:#000000;stroke-width:0.8;" x="60.32" xlink:href="#m47657b6e86" y="14.76"/>
      </g>
     </g>
     <g id="text_12">
      <!-- 100% -->
      <g transform="translate(24.730937 18.559219)scale(0.1 -0.1)">
       <use xlink:href="#DejaVuSans-31"/>
       <use x="63.623047" xlink:href="#DejaVuSans-30"/>
       <use x="127.246094" xlink:href="#DejaVuSans-30"/>
       <use x="190.869141" xlink:href="#DejaVuSans-25"/>
      </g>
     </g>
    </g>
    <g id="text_13">
     <!-- Time -->
     <defs>
      <path d="M -0.296875 72.90625 
L 61.375 72.90625 
L 61.375 64.59375 
L 35.5 64.59375 
L 35.5 0 
L 25.59375 0 
L 25.59375 64.59375 
L -0.296875 64.59375 
z
" id="DejaVuSans-54"/>
      <path d="M 52 44.1875 
Q 55.375 50.25 60.0625 53.125 
Q 64.75 56 71.09375 56 
Q 79.640625 56 84.28125 50.015625 
Q 88.921875 44.046875 88.921875 33.015625 
L 88.921875 0 
L 79.890625 0 
L 79.890625 32.71875 
Q 79.890625 40.578125 77.09375 44.375 
Q 74.3125 48.1875 68.609375 48.1875 
Q 61.625 48.1875 57.5625 43.546875 
Q 53.515625 38.921875 53.515625 30.90625 
L 53.515625 0 
L 44.484375 0 
L 44.484375 32.71875 
Q 44.484375 40.625 41.703125 44.40625 
Q 38.921875 48.1875 33.109375 48.1875 
Q 26.21875 48.1875 22.15625 43.53125 
Q 18.109375 38.875 18.109375 30.90625 
L 18.109375 0 
L 9.078125 0 
L 9.078125 54.6875 
L 18.109375 54.6875 
L 18.109375 46.1875 
Q 21.1875 51.21875 25.484375 53.609375 
Q 29.78125 56 35.6875 56 
Q 41.65625 56 45.828125 52.96875 
Q 50 49.953125 52 44.1875 
z
" id="DejaVuSans-6d"/>
     </defs>
     <g transform="translate(18.65125 331.3275)rotate(-90)scale(0.1 -0.1)">
      <use xlink:href="#DejaVuSans-54"/>
      <use x="61.037109" xlink:href="#DejaVuSans-69"/>
      <use x="88.820312" xlink:href="#DejaVuSans-6d"/>
      <use x="186.232422" xlink:href="#DejaVuSans-65"/>
     </g>
    </g>
   </g>
   <g id="patch_200">
    <path d="M 60.32 623.12 
L 60.32 14.76 
" style="fill:none;stroke:#000000;stroke-linecap:square;stroke-linejoin:miter;stroke-width:0.8;"/>
   </g>
   <g id="patch_201">
    <path d="M 1138.68 623.12 
L 1138.68 14.76 
" style="fill:none;stroke:#000000;stroke-linecap:square;stroke-linejoin:miter;stroke-width:0.8;"/>
   </g>
   <g id="patch_202">
    <path d="M 60.32 623.12 
L 1138.68 623.12 
" style="fill:none;stroke:#000000;stroke-linecap:square;stroke-linejoin:miter;stroke-width:0.8;"/>
   </g>
   <g id="patch_203">
    <path d="M 60.32 14.76 
L 1138.68 14.76 
" style="fill:none;stroke:#000000;stroke-linecap:square;stroke-linejoin:miter;stroke-width:0.8;"/>
   </g>
  </g>
 </g>
 <defs>
  <clipPath id="p8a6ffb53e2">
   <rect height="608.36" width="1078.36" x="60.32" y="14.76"/>
  </clipPath>
 </defs>
</svg>
