<?xml version="1.0" encoding="utf-8" standalone="no"?>
<!DOCTYPE svg PUBLIC "-//W3C//DTD SVG 1.1//EN"
  "http://www.w3.org/Graphics/SVG/1.1/DTD/svg11.dtd">
<!-- Created with matplotlib (http://matplotlib.org/) -->
<svg height="648pt" version="1.1" viewBox="0 0 1152 648" width="1152pt" xmlns="http://www.w3.org/2000/svg" xmlns:xlink="http://www.w3.org/1999/xlink">
 <defs>
  <style type="text/css">
*{stroke-linecap:butt;stroke-linejoin:round;}
  </style>
 </defs>
 <g id="figure_1">
  <g id="patch_1">
   <path d="M 0 648 
L 1152 648 
L 1152 0 
L 0 0 
z
" style="fill:#ffffff;"/>
  </g>
  <g id="axes_1">
   <g id="patch_2">
    <path d="M 46.24 631.08 
L 1138.68 631.08 
L 1138.68 26.88 
L 46.24 26.88 
z
" style="fill:#ffffff;"/>
   </g>
   <g id="patch_3">
    <path clip-path="url(#pc05684f589)" d="M 46.24 631.08 
L 50.676305 631.08 
L 50.676305 631.08 
L 46.24 631.08 
z
" style="fill:#0000ff;opacity:0.6;"/>
   </g>
   <g id="patch_4">
    <path clip-path="url(#pc05684f589)" d="M 51.785381 631.08 
L 56.221685 631.08 
L 56.221685 631.08 
L 51.785381 631.08 
z
" style="fill:#0000ff;opacity:0.6;"/>
   </g>
   <g id="patch_5">
    <path clip-path="url(#pc05684f589)" d="M 57.330761 631.08 
L 61.767066 631.08 
L 61.767066 631.08 
L 57.330761 631.08 
z
" style="fill:#0000ff;opacity:0.6;"/>
   </g>
   <g id="patch_6">
    <path clip-path="url(#pc05684f589)" d="M 62.876142 631.08 
L 67.312447 631.08 
L 67.312447 631.08 
L 62.876142 631.08 
z
" style="fill:#0000ff;opacity:0.6;"/>
   </g>
   <g id="patch_7">
    <path clip-path="url(#pc05684f589)" d="M 68.421523 631.08 
L 72.857827 631.08 
L 72.857827 631.08 
L 68.421523 631.08 
z
" style="fill:#0000ff;opacity:0.6;"/>
   </g>
   <g id="patch_8">
    <path clip-path="url(#pc05684f589)" d="M 73.966904 631.08 
L 78.403208 631.08 
L 78.403208 630.697006 
L 73.966904 630.697006 
z
" style="fill:#0000ff;opacity:0.6;"/>
   </g>
   <g id="patch_9">
    <path clip-path="url(#pc05684f589)" d="M 79.512284 631.08 
L 83.948589 631.08 
L 83.948589 630.689154 
L 79.512284 630.689154 
z
" style="fill:#0000ff;opacity:0.6;"/>
   </g>
   <g id="patch_10">
    <path clip-path="url(#pc05684f589)" d="M 85.057665 631.08 
L 89.49397 631.08 
L 89.49397 630.687078 
L 85.057665 630.687078 
z
" style="fill:#0000ff;opacity:0.6;"/>
   </g>
   <g id="patch_11">
    <path clip-path="url(#pc05684f589)" d="M 90.603046 631.08 
L 95.03935 631.08 
L 95.03935 630.680962 
L 90.603046 630.680962 
z
" style="fill:#0000ff;opacity:0.6;"/>
   </g>
   <g id="patch_12">
    <path clip-path="url(#pc05684f589)" d="M 96.148426 631.08 
L 100.584731 631.08 
L 100.584731 630.666192 
L 96.148426 630.666192 
z
" style="fill:#0000ff;opacity:0.6;"/>
   </g>
   <g id="patch_13">
    <path clip-path="url(#pc05684f589)" d="M 101.693807 631.08 
L 106.130112 631.08 
L 106.130112 630.654536 
L 101.693807 630.654536 
z
" style="fill:#0000ff;opacity:0.6;"/>
   </g>
   <g id="patch_14">
    <path clip-path="url(#pc05684f589)" d="M 107.239188 631.08 
L 111.675492 631.08 
L 111.675492 630.648883 
L 107.239188 630.648883 
z
" style="fill:#0000ff;opacity:0.6;"/>
   </g>
   <g id="patch_15">
    <path clip-path="url(#pc05684f589)" d="M 112.784569 631.08 
L 117.220873 631.08 
L 117.220873 630.646736 
L 112.784569 630.646736 
z
" style="fill:#0000ff;opacity:0.6;"/>
   </g>
   <g id="patch_16">
    <path clip-path="url(#pc05684f589)" d="M 118.329949 631.08 
L 122.766254 631.08 
L 122.766254 630.635204 
L 118.329949 630.635204 
z
" style="fill:#0000ff;opacity:0.6;"/>
   </g>
   <g id="patch_17">
    <path clip-path="url(#pc05684f589)" d="M 123.87533 631.08 
L 128.311635 631.08 
L 128.311635 630.629245 
L 123.87533 630.629245 
z
" style="fill:#0000ff;opacity:0.6;"/>
   </g>
   <g id="patch_18">
    <path clip-path="url(#pc05684f589)" d="M 129.420711 631.08 
L 133.857015 631.08 
L 133.857015 630.626537 
L 129.420711 630.626537 
z
" style="fill:#0000ff;opacity:0.6;"/>
   </g>
   <g id="patch_19">
    <path clip-path="url(#pc05684f589)" d="M 134.966091 631.08 
L 139.402396 631.08 
L 139.402396 630.623714 
L 134.966091 630.623714 
z
" style="fill:#0000ff;opacity:0.6;"/>
   </g>
   <g id="patch_20">
    <path clip-path="url(#pc05684f589)" d="M 140.511472 631.08 
L 144.947777 631.08 
L 144.947777 630.623714 
L 140.511472 630.623714 
z
" style="fill:#0000ff;opacity:0.6;"/>
   </g>
   <g id="patch_21">
    <path clip-path="url(#pc05684f589)" d="M 146.056853 631.08 
L 150.493157 631.08 
L 150.493157 630.599674 
L 146.056853 630.599674 
z
" style="fill:#0000ff;opacity:0.6;"/>
   </g>
   <g id="patch_22">
    <path clip-path="url(#pc05684f589)" d="M 151.602234 631.08 
L 156.038538 631.08 
L 156.038538 630.598527 
L 151.602234 630.598527 
z
" style="fill:#0000ff;opacity:0.6;"/>
   </g>
   <g id="patch_23">
    <path clip-path="url(#pc05684f589)" d="M 157.147614 631.08 
L 161.583919 631.08 
L 161.583919 630.588211 
L 157.147614 630.588211 
z
" style="fill:#0000ff;opacity:0.6;"/>
   </g>
   <g id="patch_24">
    <path clip-path="url(#pc05684f589)" d="M 162.692995 631.08 
L 167.129299 631.08 
L 167.129299 630.564411 
L 162.692995 630.564411 
z
" style="fill:#0000ff;opacity:0.6;"/>
   </g>
   <g id="patch_25">
    <path clip-path="url(#pc05684f589)" d="M 168.238376 631.08 
L 172.67468 631.08 
L 172.67468 630.529553 
L 168.238376 630.529553 
z
" style="fill:#0000ff;opacity:0.6;"/>
   </g>
   <g id="patch_26">
    <path clip-path="url(#pc05684f589)" d="M 173.783756 631.08 
L 178.220061 631.08 
L 178.220061 630.51881 
L 173.783756 630.51881 
z
" style="fill:#0000ff;opacity:0.6;"/>
   </g>
   <g id="patch_27">
    <path clip-path="url(#pc05684f589)" d="M 179.329137 631.08 
L 183.765442 631.08 
L 183.765442 630.51821 
L 179.329137 630.51821 
z
" style="fill:#0000ff;opacity:0.6;"/>
   </g>
   <g id="patch_28">
    <path clip-path="url(#pc05684f589)" d="M 184.874518 631.08 
L 189.310822 631.08 
L 189.310822 630.51821 
L 184.874518 630.51821 
z
" style="fill:#0000ff;opacity:0.6;"/>
   </g>
   <g id="patch_29">
    <path clip-path="url(#pc05684f589)" d="M 190.419898 631.08 
L 194.856203 631.08 
L 194.856203 630.473562 
L 190.419898 630.473562 
z
" style="fill:#0000ff;opacity:0.6;"/>
   </g>
   <g id="patch_30">
    <path clip-path="url(#pc05684f589)" d="M 195.965279 631.08 
L 200.401584 631.08 
L 200.401584 630.471219 
L 195.965279 630.471219 
z
" style="fill:#0000ff;opacity:0.6;"/>
   </g>
   <g id="patch_31">
    <path clip-path="url(#pc05684f589)" d="M 201.51066 631.08 
L 205.946964 631.08 
L 205.946964 630.470227 
L 201.51066 630.470227 
z
" style="fill:#0000ff;opacity:0.6;"/>
   </g>
   <g id="patch_32">
    <path clip-path="url(#pc05684f589)" d="M 207.056041 631.08 
L 211.492345 631.08 
L 211.492345 630.45409 
L 207.056041 630.45409 
z
" style="fill:#0000ff;opacity:0.6;"/>
   </g>
   <g id="patch_33">
    <path clip-path="url(#pc05684f589)" d="M 212.601421 631.08 
L 217.037726 631.08 
L 217.037726 630.432845 
L 212.601421 630.432845 
z
" style="fill:#0000ff;opacity:0.6;"/>
   </g>
   <g id="patch_34">
    <path clip-path="url(#pc05684f589)" d="M 218.146802 631.08 
L 222.583107 631.08 
L 222.583107 630.425643 
L 218.146802 630.425643 
z
" style="fill:#0000ff;opacity:0.6;"/>
   </g>
   <g id="patch_35">
    <path clip-path="url(#pc05684f589)" d="M 223.692183 631.08 
L 228.128487 631.08 
L 228.128487 630.414439 
L 223.692183 630.414439 
z
" style="fill:#0000ff;opacity:0.6;"/>
   </g>
   <g id="patch_36">
    <path clip-path="url(#pc05684f589)" d="M 229.237563 631.08 
L 233.673868 631.08 
L 233.673868 630.36254 
L 229.237563 630.36254 
z
" style="fill:#0000ff;opacity:0.6;"/>
   </g>
   <g id="patch_37">
    <path clip-path="url(#pc05684f589)" d="M 234.782944 631.08 
L 239.219249 631.08 
L 239.219249 630.342279 
L 234.782944 630.342279 
z
" style="fill:#0000ff;opacity:0.6;"/>
   </g>
   <g id="patch_38">
    <path clip-path="url(#pc05684f589)" d="M 240.328325 631.08 
L 244.764629 631.08 
L 244.764629 630.339855 
L 240.328325 630.339855 
z
" style="fill:#0000ff;opacity:0.6;"/>
   </g>
   <g id="patch_39">
    <path clip-path="url(#pc05684f589)" d="M 245.873706 631.08 
L 250.31001 631.08 
L 250.31001 630.324234 
L 245.873706 630.324234 
z
" style="fill:#0000ff;opacity:0.6;"/>
   </g>
   <g id="patch_40">
    <path clip-path="url(#pc05684f589)" d="M 251.419086 631.08 
L 255.855391 631.08 
L 255.855391 630.320883 
L 251.419086 630.320883 
z
" style="fill:#0000ff;opacity:0.6;"/>
   </g>
   <g id="patch_41">
    <path clip-path="url(#pc05684f589)" d="M 256.964467 631.08 
L 261.400772 631.08 
L 261.400772 630.314942 
L 256.964467 630.314942 
z
" style="fill:#0000ff;opacity:0.6;"/>
   </g>
   <g id="patch_42">
    <path clip-path="url(#pc05684f589)" d="M 262.509848 631.08 
L 266.946152 631.08 
L 266.946152 630.291982 
L 262.509848 630.291982 
z
" style="fill:#0000ff;opacity:0.6;"/>
   </g>
   <g id="patch_43">
    <path clip-path="url(#pc05684f589)" d="M 268.055228 631.08 
L 272.491533 631.08 
L 272.491533 630.288397 
L 268.055228 630.288397 
z
" style="fill:#0000ff;opacity:0.6;"/>
   </g>
   <g id="patch_44">
    <path clip-path="url(#pc05684f589)" d="M 273.600609 631.08 
L 278.036914 631.08 
L 278.036914 630.286167 
L 273.600609 630.286167 
z
" style="fill:#0000ff;opacity:0.6;"/>
   </g>
   <g id="patch_45">
    <path clip-path="url(#pc05684f589)" d="M 279.14599 631.08 
L 283.582294 631.08 
L 283.582294 630.261771 
L 279.14599 630.261771 
z
" style="fill:#0000ff;opacity:0.6;"/>
   </g>
   <g id="patch_46">
    <path clip-path="url(#pc05684f589)" d="M 284.691371 631.08 
L 289.127675 631.08 
L 289.127675 630.25839 
L 284.691371 630.25839 
z
" style="fill:#0000ff;opacity:0.6;"/>
   </g>
   <g id="patch_47">
    <path clip-path="url(#pc05684f589)" d="M 290.236751 631.08 
L 294.673056 631.08 
L 294.673056 630.250226 
L 290.236751 630.250226 
z
" style="fill:#0000ff;opacity:0.6;"/>
   </g>
   <g id="patch_48">
    <path clip-path="url(#pc05684f589)" d="M 295.782132 631.08 
L 300.218437 631.08 
L 300.218437 630.24241 
L 295.782132 630.24241 
z
" style="fill:#0000ff;opacity:0.6;"/>
   </g>
   <g id="patch_49">
    <path clip-path="url(#pc05684f589)" d="M 301.327513 631.08 
L 305.763817 631.08 
L 305.763817 630.164389 
L 301.327513 630.164389 
z
" style="fill:#0000ff;opacity:0.6;"/>
   </g>
   <g id="patch_50">
    <path clip-path="url(#pc05684f589)" d="M 306.872893 631.08 
L 311.309198 631.08 
L 311.309198 630.144749 
L 306.872893 630.144749 
z
" style="fill:#0000ff;opacity:0.6;"/>
   </g>
   <g id="patch_51">
    <path clip-path="url(#pc05684f589)" d="M 312.418274 631.08 
L 316.854579 631.08 
L 316.854579 630.137232 
L 312.418274 630.137232 
z
" style="fill:#0000ff;opacity:0.6;"/>
   </g>
   <g id="patch_52">
    <path clip-path="url(#pc05684f589)" d="M 317.963655 631.08 
L 322.399959 631.08 
L 322.399959 630.122449 
L 317.963655 630.122449 
z
" style="fill:#0000ff;opacity:0.6;"/>
   </g>
   <g id="patch_53">
    <path clip-path="url(#pc05684f589)" d="M 323.509036 631.08 
L 327.94534 631.08 
L 327.94534 630.087687 
L 323.509036 630.087687 
z
" style="fill:#0000ff;opacity:0.6;"/>
   </g>
   <g id="patch_54">
    <path clip-path="url(#pc05684f589)" d="M 329.054416 631.08 
L 333.490721 631.08 
L 333.490721 630.08643 
L 329.054416 630.08643 
z
" style="fill:#0000ff;opacity:0.6;"/>
   </g>
   <g id="patch_55">
    <path clip-path="url(#pc05684f589)" d="M 334.599797 631.08 
L 339.036102 631.08 
L 339.036102 630.084035 
L 334.599797 630.084035 
z
" style="fill:#0000ff;opacity:0.6;"/>
   </g>
   <g id="patch_56">
    <path clip-path="url(#pc05684f589)" d="M 340.145178 631.08 
L 344.581482 631.08 
L 344.581482 630.061567 
L 340.145178 630.061567 
z
" style="fill:#0000ff;opacity:0.6;"/>
   </g>
   <g id="patch_57">
    <path clip-path="url(#pc05684f589)" d="M 345.690558 631.08 
L 350.126863 631.08 
L 350.126863 630.061068 
L 345.690558 630.061068 
z
" style="fill:#0000ff;opacity:0.6;"/>
   </g>
   <g id="patch_58">
    <path clip-path="url(#pc05684f589)" d="M 351.235939 631.08 
L 355.672244 631.08 
L 355.672244 630.045616 
L 351.235939 630.045616 
z
" style="fill:#0000ff;opacity:0.6;"/>
   </g>
   <g id="patch_59">
    <path clip-path="url(#pc05684f589)" d="M 356.78132 631.08 
L 361.217624 631.08 
L 361.217624 630.033242 
L 356.78132 630.033242 
z
" style="fill:#0000ff;opacity:0.6;"/>
   </g>
   <g id="patch_60">
    <path clip-path="url(#pc05684f589)" d="M 362.326701 631.08 
L 366.763005 631.08 
L 366.763005 630.029248 
L 362.326701 630.029248 
z
" style="fill:#0000ff;opacity:0.6;"/>
   </g>
   <g id="patch_61">
    <path clip-path="url(#pc05684f589)" d="M 367.872081 631.08 
L 372.308386 631.08 
L 372.308386 630.005103 
L 367.872081 630.005103 
z
" style="fill:#0000ff;opacity:0.6;"/>
   </g>
   <g id="patch_62">
    <path clip-path="url(#pc05684f589)" d="M 373.417462 631.08 
L 377.853766 631.08 
L 377.853766 629.944533 
L 373.417462 629.944533 
z
" style="fill:#0000ff;opacity:0.6;"/>
   </g>
   <g id="patch_63">
    <path clip-path="url(#pc05684f589)" d="M 378.962843 631.08 
L 383.399147 631.08 
L 383.399147 629.844316 
L 378.962843 629.844316 
z
" style="fill:#0000ff;opacity:0.6;"/>
   </g>
   <g id="patch_64">
    <path clip-path="url(#pc05684f589)" d="M 384.508223 631.08 
L 388.944528 631.08 
L 388.944528 629.772542 
L 384.508223 629.772542 
z
" style="fill:#0000ff;opacity:0.6;"/>
   </g>
   <g id="patch_65">
    <path clip-path="url(#pc05684f589)" d="M 390.053604 631.08 
L 394.489909 631.08 
L 394.489909 629.772542 
L 390.053604 629.772542 
z
" style="fill:#0000ff;opacity:0.6;"/>
   </g>
   <g id="patch_66">
    <path clip-path="url(#pc05684f589)" d="M 395.598985 631.08 
L 400.035289 631.08 
L 400.035289 629.770793 
L 395.598985 629.770793 
z
" style="fill:#0000ff;opacity:0.6;"/>
   </g>
   <g id="patch_67">
    <path clip-path="url(#pc05684f589)" d="M 401.144365 631.08 
L 405.58067 631.08 
L 405.58067 629.66468 
L 401.144365 629.66468 
z
" style="fill:#0000ff;opacity:0.6;"/>
   </g>
   <g id="patch_68">
    <path clip-path="url(#pc05684f589)" d="M 406.689746 631.08 
L 411.126051 631.08 
L 411.126051 629.643588 
L 406.689746 629.643588 
z
" style="fill:#0000ff;opacity:0.6;"/>
   </g>
   <g id="patch_69">
    <path clip-path="url(#pc05684f589)" d="M 412.235127 631.08 
L 416.671431 631.08 
L 416.671431 629.605688 
L 412.235127 629.605688 
z
" style="fill:#0000ff;opacity:0.6;"/>
   </g>
   <g id="patch_70">
    <path clip-path="url(#pc05684f589)" d="M 417.780508 631.08 
L 422.216812 631.08 
L 422.216812 629.586619 
L 417.780508 629.586619 
z
" style="fill:#0000ff;opacity:0.6;"/>
   </g>
   <g id="patch_71">
    <path clip-path="url(#pc05684f589)" d="M 423.325888 631.08 
L 427.762193 631.08 
L 427.762193 629.486671 
L 423.325888 629.486671 
z
" style="fill:#0000ff;opacity:0.6;"/>
   </g>
   <g id="patch_72">
    <path clip-path="url(#pc05684f589)" d="M 428.871269 631.08 
L 433.307574 631.08 
L 433.307574 629.418965 
L 428.871269 629.418965 
z
" style="fill:#0000ff;opacity:0.6;"/>
   </g>
   <g id="patch_73">
    <path clip-path="url(#pc05684f589)" d="M 434.41665 631.08 
L 438.852954 631.08 
L 438.852954 629.277628 
L 434.41665 629.277628 
z
" style="fill:#0000ff;opacity:0.6;"/>
   </g>
   <g id="patch_74">
    <path clip-path="url(#pc05684f589)" d="M 439.96203 631.08 
L 444.398335 631.08 
L 444.398335 629.221298 
L 439.96203 629.221298 
z
" style="fill:#0000ff;opacity:0.6;"/>
   </g>
   <g id="patch_75">
    <path clip-path="url(#pc05684f589)" d="M 445.507411 631.08 
L 449.943716 631.08 
L 449.943716 629.089139 
L 445.507411 629.089139 
z
" style="fill:#0000ff;opacity:0.6;"/>
   </g>
   <g id="patch_76">
    <path clip-path="url(#pc05684f589)" d="M 451.052792 631.08 
L 455.489096 631.08 
L 455.489096 628.999584 
L 451.052792 628.999584 
z
" style="fill:#0000ff;opacity:0.6;"/>
   </g>
   <g id="patch_77">
    <path clip-path="url(#pc05684f589)" d="M 456.598173 631.08 
L 461.034477 631.08 
L 461.034477 628.890067 
L 456.598173 628.890067 
z
" style="fill:#0000ff;opacity:0.6;"/>
   </g>
   <g id="patch_78">
    <path clip-path="url(#pc05684f589)" d="M 462.143553 631.08 
L 466.579858 631.08 
L 466.579858 628.754465 
L 462.143553 628.754465 
z
" style="fill:#0000ff;opacity:0.6;"/>
   </g>
   <g id="patch_79">
    <path clip-path="url(#pc05684f589)" d="M 467.688934 631.08 
L 472.125239 631.08 
L 472.125239 628.573861 
L 467.688934 628.573861 
z
" style="fill:#0000ff;opacity:0.6;"/>
   </g>
   <g id="patch_80">
    <path clip-path="url(#pc05684f589)" d="M 473.234315 631.08 
L 477.670619 631.08 
L 477.670619 628.52828 
L 473.234315 628.52828 
z
" style="fill:#0000ff;opacity:0.6;"/>
   </g>
   <g id="patch_81">
    <path clip-path="url(#pc05684f589)" d="M 478.779695 631.08 
L 483.216 631.08 
L 483.216 628.519988 
L 478.779695 628.519988 
z
" style="fill:#0000ff;opacity:0.6;"/>
   </g>
   <g id="patch_82">
    <path clip-path="url(#pc05684f589)" d="M 484.325076 631.08 
L 488.761381 631.08 
L 488.761381 628.519988 
L 484.325076 628.519988 
z
" style="fill:#0000ff;opacity:0.6;"/>
   </g>
   <g id="patch_83">
    <path clip-path="url(#pc05684f589)" d="M 489.870457 631.08 
L 494.306761 631.08 
L 494.306761 628.400474 
L 489.870457 628.400474 
z
" style="fill:#0000ff;opacity:0.6;"/>
   </g>
   <g id="patch_84">
    <path clip-path="url(#pc05684f589)" d="M 495.415838 631.08 
L 499.852142 631.08 
L 499.852142 628.342701 
L 495.415838 628.342701 
z
" style="fill:#0000ff;opacity:0.6;"/>
   </g>
   <g id="patch_85">
    <path clip-path="url(#pc05684f589)" d="M 500.961218 631.08 
L 505.397523 631.08 
L 505.397523 628.301055 
L 500.961218 628.301055 
z
" style="fill:#0000ff;opacity:0.6;"/>
   </g>
   <g id="patch_86">
    <path clip-path="url(#pc05684f589)" d="M 506.506599 631.08 
L 510.942904 631.08 
L 510.942904 628.123943 
L 506.506599 628.123943 
z
" style="fill:#0000ff;opacity:0.6;"/>
   </g>
   <g id="patch_87">
    <path clip-path="url(#pc05684f589)" d="M 512.05198 631.08 
L 516.488284 631.08 
L 516.488284 627.894077 
L 512.05198 627.894077 
z
" style="fill:#0000ff;opacity:0.6;"/>
   </g>
   <g id="patch_88">
    <path clip-path="url(#pc05684f589)" d="M 517.59736 631.08 
L 522.033665 631.08 
L 522.033665 627.889166 
L 517.59736 627.889166 
z
" style="fill:#0000ff;opacity:0.6;"/>
   </g>
   <g id="patch_89">
    <path clip-path="url(#pc05684f589)" d="M 523.142741 631.08 
L 527.579046 631.08 
L 527.579046 626.656567 
L 523.142741 626.656567 
z
" style="fill:#0000ff;opacity:0.6;"/>
   </g>
   <g id="patch_90">
    <path clip-path="url(#pc05684f589)" d="M 528.688122 631.08 
L 533.124426 631.08 
L 533.124426 626.584051 
L 528.688122 626.584051 
z
" style="fill:#0000ff;opacity:0.6;"/>
   </g>
   <g id="patch_91">
    <path clip-path="url(#pc05684f589)" d="M 534.233503 631.08 
L 538.669807 631.08 
L 538.669807 626.542286 
L 534.233503 626.542286 
z
" style="fill:#0000ff;opacity:0.6;"/>
   </g>
   <g id="patch_92">
    <path clip-path="url(#pc05684f589)" d="M 539.778883 631.08 
L 544.215188 631.08 
L 544.215188 625.896764 
L 539.778883 625.896764 
z
" style="fill:#0000ff;opacity:0.6;"/>
   </g>
   <g id="patch_93">
    <path clip-path="url(#pc05684f589)" d="M 545.324264 631.08 
L 549.760569 631.08 
L 549.760569 625.493271 
L 545.324264 625.493271 
z
" style="fill:#0000ff;opacity:0.6;"/>
   </g>
   <g id="patch_94">
    <path clip-path="url(#pc05684f589)" d="M 550.869645 631.08 
L 555.305949 631.08 
L 555.305949 625.090012 
L 550.869645 625.090012 
z
" style="fill:#0000ff;opacity:0.6;"/>
   </g>
   <g id="patch_95">
    <path clip-path="url(#pc05684f589)" d="M 556.415025 631.08 
L 560.85133 631.08 
L 560.85133 624.687443 
L 556.415025 624.687443 
z
" style="fill:#0000ff;opacity:0.6;"/>
   </g>
   <g id="patch_96">
    <path clip-path="url(#pc05684f589)" d="M 561.960406 631.08 
L 566.396711 631.08 
L 566.396711 624.658735 
L 561.960406 624.658735 
z
" style="fill:#0000ff;opacity:0.6;"/>
   </g>
   <g id="patch_97">
    <path clip-path="url(#pc05684f589)" d="M 567.505787 631.08 
L 571.942091 631.08 
L 571.942091 624.619476 
L 567.505787 624.619476 
z
" style="fill:#0000ff;opacity:0.6;"/>
   </g>
   <g id="patch_98">
    <path clip-path="url(#pc05684f589)" d="M 573.051168 631.08 
L 577.487472 631.08 
L 577.487472 624.581452 
L 573.051168 624.581452 
z
" style="fill:#0000ff;opacity:0.6;"/>
   </g>
   <g id="patch_99">
    <path clip-path="url(#pc05684f589)" d="M 578.596548 631.08 
L 583.032853 631.08 
L 583.032853 624.297119 
L 578.596548 624.297119 
z
" style="fill:#0000ff;opacity:0.6;"/>
   </g>
   <g id="patch_100">
    <path clip-path="url(#pc05684f589)" d="M 584.141929 631.08 
L 588.578234 631.08 
L 588.578234 624.155186 
L 584.141929 624.155186 
z
" style="fill:#0000ff;opacity:0.6;"/>
   </g>
   <g id="patch_101">
    <path clip-path="url(#pc05684f589)" d="M 589.68731 631.08 
L 594.123614 631.08 
L 594.123614 623.911642 
L 589.68731 623.911642 
z
" style="fill:#0000ff;opacity:0.6;"/>
   </g>
   <g id="patch_102">
    <path clip-path="url(#pc05684f589)" d="M 595.23269 631.08 
L 599.668995 631.08 
L 599.668995 622.7966 
L 595.23269 622.7966 
z
" style="fill:#0000ff;opacity:0.6;"/>
   </g>
   <g id="patch_103">
    <path clip-path="url(#pc05684f589)" d="M 600.778071 631.08 
L 605.214376 631.08 
L 605.214376 622.638154 
L 600.778071 622.638154 
z
" style="fill:#0000ff;opacity:0.6;"/>
   </g>
   <g id="patch_104">
    <path clip-path="url(#pc05684f589)" d="M 606.323452 631.08 
L 610.759756 631.08 
L 610.759756 622.573714 
L 606.323452 622.573714 
z
" style="fill:#0000ff;opacity:0.6;"/>
   </g>
   <g id="patch_105">
    <path clip-path="url(#pc05684f589)" d="M 611.868832 631.08 
L 616.305137 631.08 
L 616.305137 621.394164 
L 611.868832 621.394164 
z
" style="fill:#0000ff;opacity:0.6;"/>
   </g>
   <g id="patch_106">
    <path clip-path="url(#pc05684f589)" d="M 617.414213 631.08 
L 621.850518 631.08 
L 621.850518 620.736226 
L 617.414213 620.736226 
z
" style="fill:#0000ff;opacity:0.6;"/>
   </g>
   <g id="patch_107">
    <path clip-path="url(#pc05684f589)" d="M 622.959594 631.08 
L 627.395898 631.08 
L 627.395898 620.587004 
L 622.959594 620.587004 
z
" style="fill:#0000ff;opacity:0.6;"/>
   </g>
   <g id="patch_108">
    <path clip-path="url(#pc05684f589)" d="M 628.504975 631.08 
L 632.941279 631.08 
L 632.941279 619.242688 
L 628.504975 619.242688 
z
" style="fill:#0000ff;opacity:0.6;"/>
   </g>
   <g id="patch_109">
    <path clip-path="url(#pc05684f589)" d="M 634.050355 631.08 
L 638.48666 631.08 
L 638.48666 618.481814 
L 634.050355 618.481814 
z
" style="fill:#0000ff;opacity:0.6;"/>
   </g>
   <g id="patch_110">
    <path clip-path="url(#pc05684f589)" d="M 639.595736 631.08 
L 644.032041 631.08 
L 644.032041 618.431758 
L 639.595736 618.431758 
z
" style="fill:#0000ff;opacity:0.6;"/>
   </g>
   <g id="patch_111">
    <path clip-path="url(#pc05684f589)" d="M 645.141117 631.08 
L 649.577421 631.08 
L 649.577421 618.420056 
L 645.141117 618.420056 
z
" style="fill:#0000ff;opacity:0.6;"/>
   </g>
   <g id="patch_112">
    <path clip-path="url(#pc05684f589)" d="M 650.686497 631.08 
L 655.122802 631.08 
L 655.122802 618.070552 
L 650.686497 618.070552 
z
" style="fill:#0000ff;opacity:0.6;"/>
   </g>
   <g id="patch_113">
    <path clip-path="url(#pc05684f589)" d="M 656.231878 631.08 
L 660.668183 631.08 
L 660.668183 617.765842 
L 656.231878 617.765842 
z
" style="fill:#0000ff;opacity:0.6;"/>
   </g>
   <g id="patch_114">
    <path clip-path="url(#pc05684f589)" d="M 661.777259 631.08 
L 666.213563 631.08 
L 666.213563 617.765138 
L 661.777259 617.765138 
z
" style="fill:#0000ff;opacity:0.6;"/>
   </g>
   <g id="patch_115">
    <path clip-path="url(#pc05684f589)" d="M 667.32264 631.08 
L 671.758944 631.08 
L 671.758944 617.711876 
L 667.32264 617.711876 
z
" style="fill:#0000ff;opacity:0.6;"/>
   </g>
   <g id="patch_116">
    <path clip-path="url(#pc05684f589)" d="M 672.86802 631.08 
L 677.304325 631.08 
L 677.304325 617.28629 
L 672.86802 617.28629 
z
" style="fill:#0000ff;opacity:0.6;"/>
   </g>
   <g id="patch_117">
    <path clip-path="url(#pc05684f589)" d="M 678.413401 631.08 
L 682.849706 631.08 
L 682.849706 614.225046 
L 678.413401 614.225046 
z
" style="fill:#0000ff;opacity:0.6;"/>
   </g>
   <g id="patch_118">
    <path clip-path="url(#pc05684f589)" d="M 683.958782 631.08 
L 688.395086 631.08 
L 688.395086 612.904131 
L 683.958782 612.904131 
z
" style="fill:#0000ff;opacity:0.6;"/>
   </g>
   <g id="patch_119">
    <path clip-path="url(#pc05684f589)" d="M 689.504162 631.08 
L 693.940467 631.08 
L 693.940467 610.995998 
L 689.504162 610.995998 
z
" style="fill:#0000ff;opacity:0.6;"/>
   </g>
   <g id="patch_120">
    <path clip-path="url(#pc05684f589)" d="M 695.049543 631.08 
L 699.485848 631.08 
L 699.485848 609.466957 
L 695.049543 609.466957 
z
" style="fill:#0000ff;opacity:0.6;"/>
   </g>
   <g id="patch_121">
    <path clip-path="url(#pc05684f589)" d="M 700.594924 631.08 
L 705.031228 631.08 
L 705.031228 609.466957 
L 700.594924 609.466957 
z
" style="fill:#0000ff;opacity:0.6;"/>
   </g>
   <g id="patch_122">
    <path clip-path="url(#pc05684f589)" d="M 706.140305 631.08 
L 710.576609 631.08 
L 710.576609 607.082616 
L 706.140305 607.082616 
z
" style="fill:#0000ff;opacity:0.6;"/>
   </g>
   <g id="patch_123">
    <path clip-path="url(#pc05684f589)" d="M 711.685685 631.08 
L 716.12199 631.08 
L 716.12199 605.962898 
L 711.685685 605.962898 
z
" style="fill:#0000ff;opacity:0.6;"/>
   </g>
   <g id="patch_124">
    <path clip-path="url(#pc05684f589)" d="M 717.231066 631.08 
L 721.667371 631.08 
L 721.667371 604.240236 
L 717.231066 604.240236 
z
" style="fill:#0000ff;opacity:0.6;"/>
   </g>
   <g id="patch_125">
    <path clip-path="url(#pc05684f589)" d="M 722.776447 631.08 
L 727.212751 631.08 
L 727.212751 603.214605 
L 722.776447 603.214605 
z
" style="fill:#0000ff;opacity:0.6;"/>
   </g>
   <g id="patch_126">
    <path clip-path="url(#pc05684f589)" d="M 728.321827 631.08 
L 732.758132 631.08 
L 732.758132 603.214605 
L 728.321827 603.214605 
z
" style="fill:#0000ff;opacity:0.6;"/>
   </g>
   <g id="patch_127">
    <path clip-path="url(#pc05684f589)" d="M 733.867208 631.08 
L 738.303513 631.08 
L 738.303513 603.214605 
L 733.867208 603.214605 
z
" style="fill:#0000ff;opacity:0.6;"/>
   </g>
   <g id="patch_128">
    <path clip-path="url(#pc05684f589)" d="M 739.412589 631.08 
L 743.848893 631.08 
L 743.848893 600.749531 
L 739.412589 600.749531 
z
" style="fill:#0000ff;opacity:0.6;"/>
   </g>
   <g id="patch_129">
    <path clip-path="url(#pc05684f589)" d="M 744.95797 631.08 
L 749.394274 631.08 
L 749.394274 598.571251 
L 744.95797 598.571251 
z
" style="fill:#0000ff;opacity:0.6;"/>
   </g>
   <g id="patch_130">
    <path clip-path="url(#pc05684f589)" d="M 750.50335 631.08 
L 754.939655 631.08 
L 754.939655 597.0032 
L 750.50335 597.0032 
z
" style="fill:#0000ff;opacity:0.6;"/>
   </g>
   <g id="patch_131">
    <path clip-path="url(#pc05684f589)" d="M 756.048731 631.08 
L 760.485036 631.08 
L 760.485036 593.317604 
L 756.048731 593.317604 
z
" style="fill:#0000ff;opacity:0.6;"/>
   </g>
   <g id="patch_132">
    <path clip-path="url(#pc05684f589)" d="M 761.594112 631.08 
L 766.030416 631.08 
L 766.030416 591.779956 
L 761.594112 591.779956 
z
" style="fill:#0000ff;opacity:0.6;"/>
   </g>
   <g id="patch_133">
    <path clip-path="url(#pc05684f589)" d="M 767.139492 631.08 
L 771.575797 631.08 
L 771.575797 585.146502 
L 767.139492 585.146502 
z
" style="fill:#0000ff;opacity:0.6;"/>
   </g>
   <g id="patch_134">
    <path clip-path="url(#pc05684f589)" d="M 772.684873 631.08 
L 777.121178 631.08 
L 777.121178 583.852464 
L 772.684873 583.852464 
z
" style="fill:#0000ff;opacity:0.6;"/>
   </g>
   <g id="patch_135">
    <path clip-path="url(#pc05684f589)" d="M 778.230254 631.08 
L 782.666558 631.08 
L 782.666558 581.436182 
L 778.230254 581.436182 
z
" style="fill:#0000ff;opacity:0.6;"/>
   </g>
   <g id="patch_136">
    <path clip-path="url(#pc05684f589)" d="M 783.775635 631.08 
L 788.211939 631.08 
L 788.211939 580.455303 
L 783.775635 580.455303 
z
" style="fill:#0000ff;opacity:0.6;"/>
   </g>
   <g id="patch_137">
    <path clip-path="url(#pc05684f589)" d="M 789.321015 631.08 
L 793.75732 631.08 
L 793.75732 579.228374 
L 789.321015 579.228374 
z
" style="fill:#0000ff;opacity:0.6;"/>
   </g>
   <g id="patch_138">
    <path clip-path="url(#pc05684f589)" d="M 794.866396 631.08 
L 799.302701 631.08 
L 799.302701 579.228374 
L 794.866396 579.228374 
z
" style="fill:#0000ff;opacity:0.6;"/>
   </g>
   <g id="patch_139">
    <path clip-path="url(#pc05684f589)" d="M 800.411777 631.08 
L 804.848081 631.08 
L 804.848081 579.228374 
L 800.411777 579.228374 
z
" style="fill:#0000ff;opacity:0.6;"/>
   </g>
   <g id="patch_140">
    <path clip-path="url(#pc05684f589)" d="M 805.957157 631.08 
L 810.393462 631.08 
L 810.393462 579.228374 
L 805.957157 579.228374 
z
" style="fill:#0000ff;opacity:0.6;"/>
   </g>
   <g id="patch_141">
    <path clip-path="url(#pc05684f589)" d="M 811.502538 631.08 
L 815.938843 631.08 
L 815.938843 579.228374 
L 811.502538 579.228374 
z
" style="fill:#0000ff;opacity:0.6;"/>
   </g>
   <g id="patch_142">
    <path clip-path="url(#pc05684f589)" d="M 817.047919 631.08 
L 821.484223 631.08 
L 821.484223 579.228374 
L 817.047919 579.228374 
z
" style="fill:#0000ff;opacity:0.6;"/>
   </g>
   <g id="patch_143">
    <path clip-path="url(#pc05684f589)" d="M 822.593299 631.08 
L 827.029604 631.08 
L 827.029604 578.633987 
L 822.593299 578.633987 
z
" style="fill:#0000ff;opacity:0.6;"/>
   </g>
   <g id="patch_144">
    <path clip-path="url(#pc05684f589)" d="M 828.13868 631.08 
L 832.574985 631.08 
L 832.574985 578.633987 
L 828.13868 578.633987 
z
" style="fill:#0000ff;opacity:0.6;"/>
   </g>
   <g id="patch_145">
    <path clip-path="url(#pc05684f589)" d="M 833.684061 631.08 
L 838.120365 631.08 
L 838.120365 576.548848 
L 833.684061 576.548848 
z
" style="fill:#0000ff;opacity:0.6;"/>
   </g>
   <g id="patch_146">
    <path clip-path="url(#pc05684f589)" d="M 839.229442 631.08 
L 843.665746 631.08 
L 843.665746 562.494825 
L 839.229442 562.494825 
z
" style="fill:#0000ff;opacity:0.6;"/>
   </g>
   <g id="patch_147">
    <path clip-path="url(#pc05684f589)" d="M 844.774822 631.08 
L 849.211127 631.08 
L 849.211127 561.97042 
L 844.774822 561.97042 
z
" style="fill:#0000ff;opacity:0.6;"/>
   </g>
   <g id="patch_148">
    <path clip-path="url(#pc05684f589)" d="M 850.320203 631.08 
L 854.756508 631.08 
L 854.756508 550.854016 
L 850.320203 550.854016 
z
" style="fill:#0000ff;opacity:0.6;"/>
   </g>
   <g id="patch_149">
    <path clip-path="url(#pc05684f589)" d="M 855.865584 631.08 
L 860.301888 631.08 
L 860.301888 535.458599 
L 855.865584 535.458599 
z
" style="fill:#0000ff;opacity:0.6;"/>
   </g>
   <g id="patch_150">
    <path clip-path="url(#pc05684f589)" d="M 861.410964 631.08 
L 865.847269 631.08 
L 865.847269 533.122737 
L 861.410964 533.122737 
z
" style="fill:#0000ff;opacity:0.6;"/>
   </g>
   <g id="patch_151">
    <path clip-path="url(#pc05684f589)" d="M 866.956345 631.08 
L 871.39265 631.08 
L 871.39265 524.558002 
L 866.956345 524.558002 
z
" style="fill:#0000ff;opacity:0.6;"/>
   </g>
   <g id="patch_152">
    <path clip-path="url(#pc05684f589)" d="M 872.501726 631.08 
L 876.93803 631.08 
L 876.93803 522.903214 
L 872.501726 522.903214 
z
" style="fill:#0000ff;opacity:0.6;"/>
   </g>
   <g id="patch_153">
    <path clip-path="url(#pc05684f589)" d="M 878.047107 631.08 
L 882.483411 631.08 
L 882.483411 516.15777 
L 878.047107 516.15777 
z
" style="fill:#0000ff;opacity:0.6;"/>
   </g>
   <g id="patch_154">
    <path clip-path="url(#pc05684f589)" d="M 883.592487 631.08 
L 888.028792 631.08 
L 888.028792 511.67082 
L 883.592487 511.67082 
z
" style="fill:#0000ff;opacity:0.6;"/>
   </g>
   <g id="patch_155">
    <path clip-path="url(#pc05684f589)" d="M 889.137868 631.08 
L 893.574173 631.08 
L 893.574173 511.050115 
L 889.137868 511.050115 
z
" style="fill:#0000ff;opacity:0.6;"/>
   </g>
   <g id="patch_156">
    <path clip-path="url(#pc05684f589)" d="M 894.683249 631.08 
L 899.119553 631.08 
L 899.119553 504.801419 
L 894.683249 504.801419 
z
" style="fill:#0000ff;opacity:0.6;"/>
   </g>
   <g id="patch_157">
    <path clip-path="url(#pc05684f589)" d="M 900.228629 631.08 
L 904.664934 631.08 
L 904.664934 502.949826 
L 900.228629 502.949826 
z
" style="fill:#0000ff;opacity:0.6;"/>
   </g>
   <g id="patch_158">
    <path clip-path="url(#pc05684f589)" d="M 905.77401 631.08 
L 910.210315 631.08 
L 910.210315 500.549137 
L 905.77401 500.549137 
z
" style="fill:#0000ff;opacity:0.6;"/>
   </g>
   <g id="patch_159">
    <path clip-path="url(#pc05684f589)" d="M 911.319391 631.08 
L 915.755695 631.08 
L 915.755695 500.313064 
L 911.319391 500.313064 
z
" style="fill:#0000ff;opacity:0.6;"/>
   </g>
   <g id="patch_160">
    <path clip-path="url(#pc05684f589)" d="M 916.864772 631.08 
L 921.301076 631.08 
L 921.301076 496.899263 
L 916.864772 496.899263 
z
" style="fill:#0000ff;opacity:0.6;"/>
   </g>
   <g id="patch_161">
    <path clip-path="url(#pc05684f589)" d="M 922.410152 631.08 
L 926.846457 631.08 
L 926.846457 496.142311 
L 922.410152 496.142311 
z
" style="fill:#0000ff;opacity:0.6;"/>
   </g>
   <g id="patch_162">
    <path clip-path="url(#pc05684f589)" d="M 927.955533 631.08 
L 932.391838 631.08 
L 932.391838 494.304749 
L 927.955533 494.304749 
z
" style="fill:#0000ff;opacity:0.6;"/>
   </g>
   <g id="patch_163">
    <path clip-path="url(#pc05684f589)" d="M 933.500914 631.08 
L 937.937218 631.08 
L 937.937218 493.879285 
L 933.500914 493.879285 
z
" style="fill:#0000ff;opacity:0.6;"/>
   </g>
   <g id="patch_164">
    <path clip-path="url(#pc05684f589)" d="M 939.046294 631.08 
L 943.482599 631.08 
L 943.482599 492.208314 
L 939.046294 492.208314 
z
" style="fill:#0000ff;opacity:0.6;"/>
   </g>
   <g id="patch_165">
    <path clip-path="url(#pc05684f589)" d="M 944.591675 631.08 
L 949.02798 631.08 
L 949.02798 488.887 
L 944.591675 488.887 
z
" style="fill:#0000ff;opacity:0.6;"/>
   </g>
   <g id="patch_166">
    <path clip-path="url(#pc05684f589)" d="M 950.137056 631.08 
L 954.57336 631.08 
L 954.57336 488.887 
L 950.137056 488.887 
z
" style="fill:#0000ff;opacity:0.6;"/>
   </g>
   <g id="patch_167">
    <path clip-path="url(#pc05684f589)" d="M 955.682437 631.08 
L 960.118741 631.08 
L 960.118741 488.887 
L 955.682437 488.887 
z
" style="fill:#0000ff;opacity:0.6;"/>
   </g>
   <g id="patch_168">
    <path clip-path="url(#pc05684f589)" d="M 961.227817 631.08 
L 965.664122 631.08 
L 965.664122 488.887 
L 961.227817 488.887 
z
" style="fill:#0000ff;opacity:0.6;"/>
   </g>
   <g id="patch_169">
    <path clip-path="url(#pc05684f589)" d="M 966.773198 631.08 
L 971.209503 631.08 
L 971.209503 488.887 
L 966.773198 488.887 
z
" style="fill:#0000ff;opacity:0.6;"/>
   </g>
   <g id="patch_170">
    <path clip-path="url(#pc05684f589)" d="M 972.318579 631.08 
L 976.754883 631.08 
L 976.754883 488.887 
L 972.318579 488.887 
z
" style="fill:#0000ff;opacity:0.6;"/>
   </g>
   <g id="patch_171">
    <path clip-path="url(#pc05684f589)" d="M 977.863959 631.08 
L 982.300264 631.08 
L 982.300264 488.71356 
L 977.863959 488.71356 
z
" style="fill:#0000ff;opacity:0.6;"/>
   </g>
   <g id="patch_172">
    <path clip-path="url(#pc05684f589)" d="M 983.40934 631.08 
L 987.845645 631.08 
L 987.845645 487.521868 
L 983.40934 487.521868 
z
" style="fill:#0000ff;opacity:0.6;"/>
   </g>
   <g id="patch_173">
    <path clip-path="url(#pc05684f589)" d="M 988.954721 631.08 
L 993.391025 631.08 
L 993.391025 487.096404 
L 988.954721 487.096404 
z
" style="fill:#0000ff;opacity:0.6;"/>
   </g>
   <g id="patch_174">
    <path clip-path="url(#pc05684f589)" d="M 994.500102 631.08 
L 998.936406 631.08 
L 998.936406 487.096404 
L 994.500102 487.096404 
z
" style="fill:#0000ff;opacity:0.6;"/>
   </g>
   <g id="patch_175">
    <path clip-path="url(#pc05684f589)" d="M 1000.045482 631.08 
L 1004.481787 631.08 
L 1004.481787 487.081923 
L 1000.045482 487.081923 
z
" style="fill:#0000ff;opacity:0.6;"/>
   </g>
   <g id="patch_176">
    <path clip-path="url(#pc05684f589)" d="M 1005.590863 631.08 
L 1010.027168 631.08 
L 1010.027168 468.856568 
L 1005.590863 468.856568 
z
" style="fill:#0000ff;opacity:0.6;"/>
   </g>
   <g id="patch_177">
    <path clip-path="url(#pc05684f589)" d="M 1011.136244 631.08 
L 1015.572548 631.08 
L 1015.572548 467.808417 
L 1011.136244 467.808417 
z
" style="fill:#0000ff;opacity:0.6;"/>
   </g>
   <g id="patch_178">
    <path clip-path="url(#pc05684f589)" d="M 1016.681624 631.08 
L 1021.117929 631.08 
L 1021.117929 450.996703 
L 1016.681624 450.996703 
z
" style="fill:#0000ff;opacity:0.6;"/>
   </g>
   <g id="patch_179">
    <path clip-path="url(#pc05684f589)" d="M 1022.227005 631.08 
L 1026.66331 631.08 
L 1026.66331 446.423849 
L 1022.227005 446.423849 
z
" style="fill:#0000ff;opacity:0.6;"/>
   </g>
   <g id="patch_180">
    <path clip-path="url(#pc05684f589)" d="M 1027.772386 631.08 
L 1032.20869 631.08 
L 1032.20869 441.128079 
L 1027.772386 441.128079 
z
" style="fill:#0000ff;opacity:0.6;"/>
   </g>
   <g id="patch_181">
    <path clip-path="url(#pc05684f589)" d="M 1033.317766 631.08 
L 1037.754071 631.08 
L 1037.754071 436.94788 
L 1033.317766 436.94788 
z
" style="fill:#0000ff;opacity:0.6;"/>
   </g>
   <g id="patch_182">
    <path clip-path="url(#pc05684f589)" d="M 1038.863147 631.08 
L 1043.299452 631.08 
L 1043.299452 433.383796 
L 1038.863147 433.383796 
z
" style="fill:#0000ff;opacity:0.6;"/>
   </g>
   <g id="patch_183">
    <path clip-path="url(#pc05684f589)" d="M 1044.408528 631.08 
L 1048.844832 631.08 
L 1048.844832 424.395 
L 1044.408528 424.395 
z
" style="fill:#0000ff;opacity:0.6;"/>
   </g>
   <g id="patch_184">
    <path clip-path="url(#pc05684f589)" d="M 1049.953909 631.08 
L 1054.390213 631.08 
L 1054.390213 397.803481 
L 1049.953909 397.803481 
z
" style="fill:#0000ff;opacity:0.6;"/>
   </g>
   <g id="patch_185">
    <path clip-path="url(#pc05684f589)" d="M 1055.499289 631.08 
L 1059.935594 631.08 
L 1059.935594 372.990685 
L 1055.499289 372.990685 
z
" style="fill:#0000ff;opacity:0.6;"/>
   </g>
   <g id="patch_186">
    <path clip-path="url(#pc05684f589)" d="M 1061.04467 631.08 
L 1065.480975 631.08 
L 1065.480975 337.452887 
L 1061.04467 337.452887 
z
" style="fill:#0000ff;opacity:0.6;"/>
   </g>
   <g id="patch_187">
    <path clip-path="url(#pc05684f589)" d="M 1066.590051 631.08 
L 1071.026355 631.08 
L 1071.026355 337.452887 
L 1066.590051 337.452887 
z
" style="fill:#0000ff;opacity:0.6;"/>
   </g>
   <g id="patch_188">
    <path clip-path="url(#pc05684f589)" d="M 1072.135431 631.08 
L 1076.571736 631.08 
L 1076.571736 325.415891 
L 1072.135431 325.415891 
z
" style="fill:#0000ff;opacity:0.6;"/>
   </g>
   <g id="patch_189">
    <path clip-path="url(#pc05684f589)" d="M 1077.680812 631.08 
L 1082.117117 631.08 
L 1082.117117 260.621155 
L 1077.680812 260.621155 
z
" style="fill:#0000ff;opacity:0.6;"/>
   </g>
   <g id="patch_190">
    <path clip-path="url(#pc05684f589)" d="M 1083.226193 631.08 
L 1087.662497 631.08 
L 1087.662497 260.621155 
L 1083.226193 260.621155 
z
" style="fill:#0000ff;opacity:0.6;"/>
   </g>
   <g id="patch_191">
    <path clip-path="url(#pc05684f589)" d="M 1088.771574 631.08 
L 1093.207878 631.08 
L 1093.207878 251.346565 
L 1088.771574 251.346565 
z
" style="fill:#0000ff;opacity:0.6;"/>
   </g>
   <g id="patch_192">
    <path clip-path="url(#pc05684f589)" d="M 1094.316954 631.08 
L 1098.753259 631.08 
L 1098.753259 225.096764 
L 1094.316954 225.096764 
z
" style="fill:#0000ff;opacity:0.6;"/>
   </g>
   <g id="patch_193">
    <path clip-path="url(#pc05684f589)" d="M 1099.862335 631.08 
L 1104.29864 631.08 
L 1104.29864 216.031932 
L 1099.862335 216.031932 
z
" style="fill:#0000ff;opacity:0.6;"/>
   </g>
   <g id="patch_194">
    <path clip-path="url(#pc05684f589)" d="M 1105.407716 631.08 
L 1109.84402 631.08 
L 1109.84402 214.65937 
L 1105.407716 214.65937 
z
" style="fill:#0000ff;opacity:0.6;"/>
   </g>
   <g id="patch_195">
    <path clip-path="url(#pc05684f589)" d="M 1110.953096 631.08 
L 1115.389401 631.08 
L 1115.389401 37.865316 
L 1110.953096 37.865316 
z
" style="fill:#0000ff;opacity:0.6;"/>
   </g>
   <g id="patch_196">
    <path clip-path="url(#pc05684f589)" d="M 1116.498477 631.08 
L 1120.934782 631.08 
L 1120.934782 32.039765 
L 1116.498477 32.039765 
z
" style="fill:#0000ff;opacity:0.6;"/>
   </g>
   <g id="patch_197">
    <path clip-path="url(#pc05684f589)" d="M 1122.043858 631.08 
L 1126.480162 631.08 
L 1126.480162 27.208421 
L 1122.043858 27.208421 
z
" style="fill:#0000ff;opacity:0.6;"/>
   </g>
   <g id="patch_198">
    <path clip-path="url(#pc05684f589)" d="M 1127.589239 631.08 
L 1132.025543 631.08 
L 1132.025543 26.88 
L 1127.589239 26.88 
z
" style="fill:#0000ff;opacity:0.6;"/>
   </g>
   <g id="patch_199">
    <path clip-path="url(#pc05684f589)" d="M 1133.134619 631.08 
L 1137.570924 631.08 
L 1137.570924 26.88 
L 1133.134619 26.88 
z
" style="fill:#0000ff;opacity:0.6;"/>
   </g>
   <g id="matplotlib.axis_1">
    <g id="xtick_1"/>
    <g id="xtick_2"/>
    <g id="xtick_3"/>
    <g id="xtick_4"/>
    <g id="xtick_5"/>
    <g id="xtick_6"/>
    <g id="xtick_7"/>
    <g id="xtick_8"/>
   </g>
   <g id="matplotlib.axis_2">
    <g id="ytick_1">
     <g id="line2d_1">
      <path clip-path="url(#pc05684f589)" d="M 46.24 631.08 
L 1138.68 631.08 
" style="fill:none;stroke:#b0b0b0;stroke-linecap:square;stroke-width:0.8;"/>
     </g>
     <g id="line2d_2">
      <defs>
       <path d="M 0 0 
L -3.5 0 
" id="m9844d9613a" style="stroke:#000000;stroke-width:0.8;"/>
      </defs>
      <g>
       <use style="stroke:#000000;stroke-width:0.8;" x="46.24" xlink:href="#m9844d9613a" y="631.08"/>
      </g>
     </g>
     <g id="text_1">
      <!-- 0% -->
      <defs>
       <path d="M 31.78125 66.40625 
Q 24.171875 66.40625 20.328125 58.90625 
Q 16.5 51.421875 16.5 36.375 
Q 16.5 21.390625 20.328125 13.890625 
Q 24.171875 6.390625 31.78125 6.390625 
Q 39.453125 6.390625 43.28125 13.890625 
Q 47.125 21.390625 47.125 36.375 
Q 47.125 51.421875 43.28125 58.90625 
Q 39.453125 66.40625 31.78125 66.40625 
z
M 31.78125 74.21875 
Q 44.046875 74.21875 50.515625 64.515625 
Q 56.984375 54.828125 56.984375 36.375 
Q 56.984375 17.96875 50.515625 8.265625 
Q 44.046875 -1.421875 31.78125 -1.421875 
Q 19.53125 -1.421875 13.0625 8.265625 
Q 6.59375 17.96875 6.59375 36.375 
Q 6.59375 54.828125 13.0625 64.515625 
Q 19.53125 74.21875 31.78125 74.21875 
z
" id="DejaVuSans-30"/>
       <path d="M 72.703125 32.078125 
Q 68.453125 32.078125 66.03125 28.46875 
Q 63.625 24.859375 63.625 18.40625 
Q 63.625 12.0625 66.03125 8.421875 
Q 68.453125 4.78125 72.703125 4.78125 
Q 76.859375 4.78125 79.265625 8.421875 
Q 81.6875 12.0625 81.6875 18.40625 
Q 81.6875 24.8125 79.265625 28.4375 
Q 76.859375 32.078125 72.703125 32.078125 
z
M 72.703125 38.28125 
Q 80.421875 38.28125 84.953125 32.90625 
Q 89.5 27.546875 89.5 18.40625 
Q 89.5 9.28125 84.9375 3.921875 
Q 80.375 -1.421875 72.703125 -1.421875 
Q 64.890625 -1.421875 60.34375 3.921875 
Q 55.8125 9.28125 55.8125 18.40625 
Q 55.8125 27.59375 60.375 32.9375 
Q 64.9375 38.28125 72.703125 38.28125 
z
M 22.3125 68.015625 
Q 18.109375 68.015625 15.6875 64.375 
Q 13.28125 60.75 13.28125 54.390625 
Q 13.28125 47.953125 15.671875 44.328125 
Q 18.0625 40.71875 22.3125 40.71875 
Q 26.5625 40.71875 28.96875 44.328125 
Q 31.390625 47.953125 31.390625 54.390625 
Q 31.390625 60.6875 28.953125 64.34375 
Q 26.515625 68.015625 22.3125 68.015625 
z
M 66.40625 74.21875 
L 74.21875 74.21875 
L 28.609375 -1.421875 
L 20.796875 -1.421875 
z
M 22.3125 74.21875 
Q 30.03125 74.21875 34.609375 68.875 
Q 39.203125 63.53125 39.203125 54.390625 
Q 39.203125 45.171875 34.640625 39.84375 
Q 30.078125 34.515625 22.3125 34.515625 
Q 14.546875 34.515625 10.03125 39.859375 
Q 5.515625 45.21875 5.515625 54.390625 
Q 5.515625 63.484375 10.046875 68.84375 
Q 14.59375 74.21875 22.3125 74.21875 
z
" id="DejaVuSans-25"/>
      </defs>
      <g transform="translate(23.375938 634.879219)scale(0.1 -0.1)">
       <use xlink:href="#DejaVuSans-30"/>
       <use x="63.623047" xlink:href="#DejaVuSans-25"/>
      </g>
     </g>
    </g>
    <g id="ytick_2">
     <g id="line2d_3">
      <path clip-path="url(#pc05684f589)" d="M 46.24 570.66 
L 1138.68 570.66 
" style="fill:none;stroke:#b0b0b0;stroke-linecap:square;stroke-width:0.8;"/>
     </g>
     <g id="line2d_4">
      <g>
       <use style="stroke:#000000;stroke-width:0.8;" x="46.24" xlink:href="#m9844d9613a" y="570.66"/>
      </g>
     </g>
     <g id="text_2">
      <!-- 10% -->
      <defs>
       <path d="M 12.40625 8.296875 
L 28.515625 8.296875 
L 28.515625 63.921875 
L 10.984375 60.40625 
L 10.984375 69.390625 
L 28.421875 72.90625 
L 38.28125 72.90625 
L 38.28125 8.296875 
L 54.390625 8.296875 
L 54.390625 0 
L 12.40625 0 
z
" id="DejaVuSans-31"/>
      </defs>
      <g transform="translate(17.013438 574.459219)scale(0.1 -0.1)">
       <use xlink:href="#DejaVuSans-31"/>
       <use x="63.623047" xlink:href="#DejaVuSans-30"/>
       <use x="127.246094" xlink:href="#DejaVuSans-25"/>
      </g>
     </g>
    </g>
    <g id="ytick_3">
     <g id="line2d_5">
      <path clip-path="url(#pc05684f589)" d="M 46.24 510.24 
L 1138.68 510.24 
" style="fill:none;stroke:#b0b0b0;stroke-linecap:square;stroke-width:0.8;"/>
     </g>
     <g id="line2d_6">
      <g>
       <use style="stroke:#000000;stroke-width:0.8;" x="46.24" xlink:href="#m9844d9613a" y="510.24"/>
      </g>
     </g>
     <g id="text_3">
      <!-- 20% -->
      <defs>
       <path d="M 19.1875 8.296875 
L 53.609375 8.296875 
L 53.609375 0 
L 7.328125 0 
L 7.328125 8.296875 
Q 12.9375 14.109375 22.625 23.890625 
Q 32.328125 33.6875 34.8125 36.53125 
Q 39.546875 41.84375 41.421875 45.53125 
Q 43.3125 49.21875 43.3125 52.78125 
Q 43.3125 58.59375 39.234375 62.25 
Q 35.15625 65.921875 28.609375 65.921875 
Q 23.96875 65.921875 18.8125 64.3125 
Q 13.671875 62.703125 7.8125 59.421875 
L 7.8125 69.390625 
Q 13.765625 71.78125 18.9375 73 
Q 24.125 74.21875 28.421875 74.21875 
Q 39.75 74.21875 46.484375 68.546875 
Q 53.21875 62.890625 53.21875 53.421875 
Q 53.21875 48.921875 51.53125 44.890625 
Q 49.859375 40.875 45.40625 35.40625 
Q 44.1875 33.984375 37.640625 27.21875 
Q 31.109375 20.453125 19.1875 8.296875 
z
" id="DejaVuSans-32"/>
      </defs>
      <g transform="translate(17.013438 514.039219)scale(0.1 -0.1)">
       <use xlink:href="#DejaVuSans-32"/>
       <use x="63.623047" xlink:href="#DejaVuSans-30"/>
       <use x="127.246094" xlink:href="#DejaVuSans-25"/>
      </g>
     </g>
    </g>
    <g id="ytick_4">
     <g id="line2d_7">
      <path clip-path="url(#pc05684f589)" d="M 46.24 449.82 
L 1138.68 449.82 
" style="fill:none;stroke:#b0b0b0;stroke-linecap:square;stroke-width:0.8;"/>
     </g>
     <g id="line2d_8">
      <g>
       <use style="stroke:#000000;stroke-width:0.8;" x="46.24" xlink:href="#m9844d9613a" y="449.82"/>
      </g>
     </g>
     <g id="text_4">
      <!-- 30% -->
      <defs>
       <path d="M 40.578125 39.3125 
Q 47.65625 37.796875 51.625 33 
Q 55.609375 28.21875 55.609375 21.1875 
Q 55.609375 10.40625 48.1875 4.484375 
Q 40.765625 -1.421875 27.09375 -1.421875 
Q 22.515625 -1.421875 17.65625 -0.515625 
Q 12.796875 0.390625 7.625 2.203125 
L 7.625 11.71875 
Q 11.71875 9.328125 16.59375 8.109375 
Q 21.484375 6.890625 26.8125 6.890625 
Q 36.078125 6.890625 40.9375 10.546875 
Q 45.796875 14.203125 45.796875 21.1875 
Q 45.796875 27.640625 41.28125 31.265625 
Q 36.765625 34.90625 28.71875 34.90625 
L 20.21875 34.90625 
L 20.21875 43.015625 
L 29.109375 43.015625 
Q 36.375 43.015625 40.234375 45.921875 
Q 44.09375 48.828125 44.09375 54.296875 
Q 44.09375 59.90625 40.109375 62.90625 
Q 36.140625 65.921875 28.71875 65.921875 
Q 24.65625 65.921875 20.015625 65.03125 
Q 15.375 64.15625 9.8125 62.3125 
L 9.8125 71.09375 
Q 15.4375 72.65625 20.34375 73.4375 
Q 25.25 74.21875 29.59375 74.21875 
Q 40.828125 74.21875 47.359375 69.109375 
Q 53.90625 64.015625 53.90625 55.328125 
Q 53.90625 49.265625 50.4375 45.09375 
Q 46.96875 40.921875 40.578125 39.3125 
z
" id="DejaVuSans-33"/>
      </defs>
      <g transform="translate(17.013438 453.619219)scale(0.1 -0.1)">
       <use xlink:href="#DejaVuSans-33"/>
       <use x="63.623047" xlink:href="#DejaVuSans-30"/>
       <use x="127.246094" xlink:href="#DejaVuSans-25"/>
      </g>
     </g>
    </g>
    <g id="ytick_5">
     <g id="line2d_9">
      <path clip-path="url(#pc05684f589)" d="M 46.24 389.4 
L 1138.68 389.4 
" style="fill:none;stroke:#b0b0b0;stroke-linecap:square;stroke-width:0.8;"/>
     </g>
     <g id="line2d_10">
      <g>
       <use style="stroke:#000000;stroke-width:0.8;" x="46.24" xlink:href="#m9844d9613a" y="389.4"/>
      </g>
     </g>
     <g id="text_5">
      <!-- 40% -->
      <defs>
       <path d="M 37.796875 64.3125 
L 12.890625 25.390625 
L 37.796875 25.390625 
z
M 35.203125 72.90625 
L 47.609375 72.90625 
L 47.609375 25.390625 
L 58.015625 25.390625 
L 58.015625 17.1875 
L 47.609375 17.1875 
L 47.609375 0 
L 37.796875 0 
L 37.796875 17.1875 
L 4.890625 17.1875 
L 4.890625 26.703125 
z
" id="DejaVuSans-34"/>
      </defs>
      <g transform="translate(17.013438 393.199219)scale(0.1 -0.1)">
       <use xlink:href="#DejaVuSans-34"/>
       <use x="63.623047" xlink:href="#DejaVuSans-30"/>
       <use x="127.246094" xlink:href="#DejaVuSans-25"/>
      </g>
     </g>
    </g>
    <g id="ytick_6">
     <g id="line2d_11">
      <path clip-path="url(#pc05684f589)" d="M 46.24 328.98 
L 1138.68 328.98 
" style="fill:none;stroke:#b0b0b0;stroke-linecap:square;stroke-width:0.8;"/>
     </g>
     <g id="line2d_12">
      <g>
       <use style="stroke:#000000;stroke-width:0.8;" x="46.24" xlink:href="#m9844d9613a" y="328.98"/>
      </g>
     </g>
     <g id="text_6">
      <!-- 50% -->
      <defs>
       <path d="M 10.796875 72.90625 
L 49.515625 72.90625 
L 49.515625 64.59375 
L 19.828125 64.59375 
L 19.828125 46.734375 
Q 21.96875 47.46875 24.109375 47.828125 
Q 26.265625 48.1875 28.421875 48.1875 
Q 40.625 48.1875 47.75 41.5 
Q 54.890625 34.8125 54.890625 23.390625 
Q 54.890625 11.625 47.5625 5.09375 
Q 40.234375 -1.421875 26.90625 -1.421875 
Q 22.3125 -1.421875 17.546875 -0.640625 
Q 12.796875 0.140625 7.71875 1.703125 
L 7.71875 11.625 
Q 12.109375 9.234375 16.796875 8.0625 
Q 21.484375 6.890625 26.703125 6.890625 
Q 35.15625 6.890625 40.078125 11.328125 
Q 45.015625 15.765625 45.015625 23.390625 
Q 45.015625 31 40.078125 35.4375 
Q 35.15625 39.890625 26.703125 39.890625 
Q 22.75 39.890625 18.8125 39.015625 
Q 14.890625 38.140625 10.796875 36.28125 
z
" id="DejaVuSans-35"/>
      </defs>
      <g transform="translate(17.013438 332.779219)scale(0.1 -0.1)">
       <use xlink:href="#DejaVuSans-35"/>
       <use x="63.623047" xlink:href="#DejaVuSans-30"/>
       <use x="127.246094" xlink:href="#DejaVuSans-25"/>
      </g>
     </g>
    </g>
    <g id="ytick_7">
     <g id="line2d_13">
      <path clip-path="url(#pc05684f589)" d="M 46.24 268.56 
L 1138.68 268.56 
" style="fill:none;stroke:#b0b0b0;stroke-linecap:square;stroke-width:0.8;"/>
     </g>
     <g id="line2d_14">
      <g>
       <use style="stroke:#000000;stroke-width:0.8;" x="46.24" xlink:href="#m9844d9613a" y="268.56"/>
      </g>
     </g>
     <g id="text_7">
      <!-- 60% -->
      <defs>
       <path d="M 33.015625 40.375 
Q 26.375 40.375 22.484375 35.828125 
Q 18.609375 31.296875 18.609375 23.390625 
Q 18.609375 15.53125 22.484375 10.953125 
Q 26.375 6.390625 33.015625 6.390625 
Q 39.65625 6.390625 43.53125 10.953125 
Q 47.40625 15.53125 47.40625 23.390625 
Q 47.40625 31.296875 43.53125 35.828125 
Q 39.65625 40.375 33.015625 40.375 
z
M 52.59375 71.296875 
L 52.59375 62.3125 
Q 48.875 64.0625 45.09375 64.984375 
Q 41.3125 65.921875 37.59375 65.921875 
Q 27.828125 65.921875 22.671875 59.328125 
Q 17.53125 52.734375 16.796875 39.40625 
Q 19.671875 43.65625 24.015625 45.921875 
Q 28.375 48.1875 33.59375 48.1875 
Q 44.578125 48.1875 50.953125 41.515625 
Q 57.328125 34.859375 57.328125 23.390625 
Q 57.328125 12.15625 50.6875 5.359375 
Q 44.046875 -1.421875 33.015625 -1.421875 
Q 20.359375 -1.421875 13.671875 8.265625 
Q 6.984375 17.96875 6.984375 36.375 
Q 6.984375 53.65625 15.1875 63.9375 
Q 23.390625 74.21875 37.203125 74.21875 
Q 40.921875 74.21875 44.703125 73.484375 
Q 48.484375 72.75 52.59375 71.296875 
z
" id="DejaVuSans-36"/>
      </defs>
      <g transform="translate(17.013438 272.359219)scale(0.1 -0.1)">
       <use xlink:href="#DejaVuSans-36"/>
       <use x="63.623047" xlink:href="#DejaVuSans-30"/>
       <use x="127.246094" xlink:href="#DejaVuSans-25"/>
      </g>
     </g>
    </g>
    <g id="ytick_8">
     <g id="line2d_15">
      <path clip-path="url(#pc05684f589)" d="M 46.24 208.14 
L 1138.68 208.14 
" style="fill:none;stroke:#b0b0b0;stroke-linecap:square;stroke-width:0.8;"/>
     </g>
     <g id="line2d_16">
      <g>
       <use style="stroke:#000000;stroke-width:0.8;" x="46.24" xlink:href="#m9844d9613a" y="208.14"/>
      </g>
     </g>
     <g id="text_8">
      <!-- 70% -->
      <defs>
       <path d="M 8.203125 72.90625 
L 55.078125 72.90625 
L 55.078125 68.703125 
L 28.609375 0 
L 18.3125 0 
L 43.21875 64.59375 
L 8.203125 64.59375 
z
" id="DejaVuSans-37"/>
      </defs>
      <g transform="translate(17.013438 211.939219)scale(0.1 -0.1)">
       <use xlink:href="#DejaVuSans-37"/>
       <use x="63.623047" xlink:href="#DejaVuSans-30"/>
       <use x="127.246094" xlink:href="#DejaVuSans-25"/>
      </g>
     </g>
    </g>
    <g id="ytick_9">
     <g id="line2d_17">
      <path clip-path="url(#pc05684f589)" d="M 46.24 147.72 
L 1138.68 147.72 
" style="fill:none;stroke:#b0b0b0;stroke-linecap:square;stroke-width:0.8;"/>
     </g>
     <g id="line2d_18">
      <g>
       <use style="stroke:#000000;stroke-width:0.8;" x="46.24" xlink:href="#m9844d9613a" y="147.72"/>
      </g>
     </g>
     <g id="text_9">
      <!-- 80% -->
      <defs>
       <path d="M 31.78125 34.625 
Q 24.75 34.625 20.71875 30.859375 
Q 16.703125 27.09375 16.703125 20.515625 
Q 16.703125 13.921875 20.71875 10.15625 
Q 24.75 6.390625 31.78125 6.390625 
Q 38.8125 6.390625 42.859375 10.171875 
Q 46.921875 13.96875 46.921875 20.515625 
Q 46.921875 27.09375 42.890625 30.859375 
Q 38.875 34.625 31.78125 34.625 
z
M 21.921875 38.8125 
Q 15.578125 40.375 12.03125 44.71875 
Q 8.5 49.078125 8.5 55.328125 
Q 8.5 64.0625 14.71875 69.140625 
Q 20.953125 74.21875 31.78125 74.21875 
Q 42.671875 74.21875 48.875 69.140625 
Q 55.078125 64.0625 55.078125 55.328125 
Q 55.078125 49.078125 51.53125 44.71875 
Q 48 40.375 41.703125 38.8125 
Q 48.828125 37.15625 52.796875 32.3125 
Q 56.78125 27.484375 56.78125 20.515625 
Q 56.78125 9.90625 50.3125 4.234375 
Q 43.84375 -1.421875 31.78125 -1.421875 
Q 19.734375 -1.421875 13.25 4.234375 
Q 6.78125 9.90625 6.78125 20.515625 
Q 6.78125 27.484375 10.78125 32.3125 
Q 14.796875 37.15625 21.921875 38.8125 
z
M 18.3125 54.390625 
Q 18.3125 48.734375 21.84375 45.5625 
Q 25.390625 42.390625 31.78125 42.390625 
Q 38.140625 42.390625 41.71875 45.5625 
Q 45.3125 48.734375 45.3125 54.390625 
Q 45.3125 60.0625 41.71875 63.234375 
Q 38.140625 66.40625 31.78125 66.40625 
Q 25.390625 66.40625 21.84375 63.234375 
Q 18.3125 60.0625 18.3125 54.390625 
z
" id="DejaVuSans-38"/>
      </defs>
      <g transform="translate(17.013438 151.519219)scale(0.1 -0.1)">
       <use xlink:href="#DejaVuSans-38"/>
       <use x="63.623047" xlink:href="#DejaVuSans-30"/>
       <use x="127.246094" xlink:href="#DejaVuSans-25"/>
      </g>
     </g>
    </g>
    <g id="ytick_10">
     <g id="line2d_19">
      <path clip-path="url(#pc05684f589)" d="M 46.24 87.3 
L 1138.68 87.3 
" style="fill:none;stroke:#b0b0b0;stroke-linecap:square;stroke-width:0.8;"/>
     </g>
     <g id="line2d_20">
      <g>
       <use style="stroke:#000000;stroke-width:0.8;" x="46.24" xlink:href="#m9844d9613a" y="87.3"/>
      </g>
     </g>
     <g id="text_10">
      <!-- 90% -->
      <defs>
       <path d="M 10.984375 1.515625 
L 10.984375 10.5 
Q 14.703125 8.734375 18.5 7.8125 
Q 22.3125 6.890625 25.984375 6.890625 
Q 35.75 6.890625 40.890625 13.453125 
Q 46.046875 20.015625 46.78125 33.40625 
Q 43.953125 29.203125 39.59375 26.953125 
Q 35.25 24.703125 29.984375 24.703125 
Q 19.046875 24.703125 12.671875 31.3125 
Q 6.296875 37.9375 6.296875 49.421875 
Q 6.296875 60.640625 12.9375 67.421875 
Q 19.578125 74.21875 30.609375 74.21875 
Q 43.265625 74.21875 49.921875 64.515625 
Q 56.59375 54.828125 56.59375 36.375 
Q 56.59375 19.140625 48.40625 8.859375 
Q 40.234375 -1.421875 26.421875 -1.421875 
Q 22.703125 -1.421875 18.890625 -0.6875 
Q 15.09375 0.046875 10.984375 1.515625 
z
M 30.609375 32.421875 
Q 37.25 32.421875 41.125 36.953125 
Q 45.015625 41.5 45.015625 49.421875 
Q 45.015625 57.28125 41.125 61.84375 
Q 37.25 66.40625 30.609375 66.40625 
Q 23.96875 66.40625 20.09375 61.84375 
Q 16.21875 57.28125 16.21875 49.421875 
Q 16.21875 41.5 20.09375 36.953125 
Q 23.96875 32.421875 30.609375 32.421875 
z
" id="DejaVuSans-39"/>
      </defs>
      <g transform="translate(17.013438 91.099219)scale(0.1 -0.1)">
       <use xlink:href="#DejaVuSans-39"/>
       <use x="63.623047" xlink:href="#DejaVuSans-30"/>
       <use x="127.246094" xlink:href="#DejaVuSans-25"/>
      </g>
     </g>
    </g>
    <g id="ytick_11">
     <g id="line2d_21">
      <path clip-path="url(#pc05684f589)" d="M 46.24 26.88 
L 1138.68 26.88 
" style="fill:none;stroke:#b0b0b0;stroke-linecap:square;stroke-width:0.8;"/>
     </g>
     <g id="line2d_22">
      <g>
       <use style="stroke:#000000;stroke-width:0.8;" x="46.24" xlink:href="#m9844d9613a" y="26.88"/>
      </g>
     </g>
     <g id="text_11">
      <!-- 100% -->
      <g transform="translate(10.650938 30.679219)scale(0.1 -0.1)">
       <use xlink:href="#DejaVuSans-31"/>
       <use x="63.623047" xlink:href="#DejaVuSans-30"/>
       <use x="127.246094" xlink:href="#DejaVuSans-30"/>
       <use x="190.869141" xlink:href="#DejaVuSans-25"/>
      </g>
     </g>
    </g>
   </g>
   <g id="patch_200">
    <path d="M 46.24 631.08 
L 46.24 26.88 
" style="fill:none;stroke:#000000;stroke-linecap:square;stroke-linejoin:miter;stroke-width:0.8;"/>
   </g>
   <g id="patch_201">
    <path d="M 1138.68 631.08 
L 1138.68 26.88 
" style="fill:none;stroke:#000000;stroke-linecap:square;stroke-linejoin:miter;stroke-width:0.8;"/>
   </g>
   <g id="patch_202">
    <path d="M 46.24 631.08 
L 1138.68 631.08 
" style="fill:none;stroke:#000000;stroke-linecap:square;stroke-linejoin:miter;stroke-width:0.8;"/>
   </g>
   <g id="patch_203">
    <path d="M 46.24 26.88 
L 1138.68 26.88 
" style="fill:none;stroke:#000000;stroke-linecap:square;stroke-linejoin:miter;stroke-width:0.8;"/>
   </g>
   <g id="text_12">
    <!-- Modelica Standard Library -->
    <defs>
     <path d="M 9.8125 72.90625 
L 24.515625 72.90625 
L 43.109375 23.296875 
L 61.8125 72.90625 
L 76.515625 72.90625 
L 76.515625 0 
L 66.890625 0 
L 66.890625 64.015625 
L 48.09375 14.015625 
L 38.1875 14.015625 
L 19.390625 64.015625 
L 19.390625 0 
L 9.8125 0 
z
" id="DejaVuSans-4d"/>
     <path d="M 30.609375 48.390625 
Q 23.390625 48.390625 19.1875 42.75 
Q 14.984375 37.109375 14.984375 27.296875 
Q 14.984375 17.484375 19.15625 11.84375 
Q 23.34375 6.203125 30.609375 6.203125 
Q 37.796875 6.203125 41.984375 11.859375 
Q 46.1875 17.53125 46.1875 27.296875 
Q 46.1875 37.015625 41.984375 42.703125 
Q 37.796875 48.390625 30.609375 48.390625 
z
M 30.609375 56 
Q 42.328125 56 49.015625 48.375 
Q 55.71875 40.765625 55.71875 27.296875 
Q 55.71875 13.875 49.015625 6.21875 
Q 42.328125 -1.421875 30.609375 -1.421875 
Q 18.84375 -1.421875 12.171875 6.21875 
Q 5.515625 13.875 5.515625 27.296875 
Q 5.515625 40.765625 12.171875 48.375 
Q 18.84375 56 30.609375 56 
z
" id="DejaVuSans-6f"/>
     <path d="M 45.40625 46.390625 
L 45.40625 75.984375 
L 54.390625 75.984375 
L 54.390625 0 
L 45.40625 0 
L 45.40625 8.203125 
Q 42.578125 3.328125 38.25 0.953125 
Q 33.9375 -1.421875 27.875 -1.421875 
Q 17.96875 -1.421875 11.734375 6.484375 
Q 5.515625 14.40625 5.515625 27.296875 
Q 5.515625 40.1875 11.734375 48.09375 
Q 17.96875 56 27.875 56 
Q 33.9375 56 38.25 53.625 
Q 42.578125 51.265625 45.40625 46.390625 
z
M 14.796875 27.296875 
Q 14.796875 17.390625 18.875 11.75 
Q 22.953125 6.109375 30.078125 6.109375 
Q 37.203125 6.109375 41.296875 11.75 
Q 45.40625 17.390625 45.40625 27.296875 
Q 45.40625 37.203125 41.296875 42.84375 
Q 37.203125 48.484375 30.078125 48.484375 
Q 22.953125 48.484375 18.875 42.84375 
Q 14.796875 37.203125 14.796875 27.296875 
z
" id="DejaVuSans-64"/>
     <path d="M 56.203125 29.59375 
L 56.203125 25.203125 
L 14.890625 25.203125 
Q 15.484375 15.921875 20.484375 11.0625 
Q 25.484375 6.203125 34.421875 6.203125 
Q 39.59375 6.203125 44.453125 7.46875 
Q 49.3125 8.734375 54.109375 11.28125 
L 54.109375 2.78125 
Q 49.265625 0.734375 44.1875 -0.34375 
Q 39.109375 -1.421875 33.890625 -1.421875 
Q 20.796875 -1.421875 13.15625 6.1875 
Q 5.515625 13.8125 5.515625 26.8125 
Q 5.515625 40.234375 12.765625 48.109375 
Q 20.015625 56 32.328125 56 
Q 43.359375 56 49.78125 48.890625 
Q 56.203125 41.796875 56.203125 29.59375 
z
M 47.21875 32.234375 
Q 47.125 39.59375 43.09375 43.984375 
Q 39.0625 48.390625 32.421875 48.390625 
Q 24.90625 48.390625 20.390625 44.140625 
Q 15.875 39.890625 15.1875 32.171875 
z
" id="DejaVuSans-65"/>
     <path d="M 9.421875 75.984375 
L 18.40625 75.984375 
L 18.40625 0 
L 9.421875 0 
z
" id="DejaVuSans-6c"/>
     <path d="M 9.421875 54.6875 
L 18.40625 54.6875 
L 18.40625 0 
L 9.421875 0 
z
M 9.421875 75.984375 
L 18.40625 75.984375 
L 18.40625 64.59375 
L 9.421875 64.59375 
z
" id="DejaVuSans-69"/>
     <path d="M 48.78125 52.59375 
L 48.78125 44.1875 
Q 44.96875 46.296875 41.140625 47.34375 
Q 37.3125 48.390625 33.40625 48.390625 
Q 24.65625 48.390625 19.8125 42.84375 
Q 14.984375 37.3125 14.984375 27.296875 
Q 14.984375 17.28125 19.8125 11.734375 
Q 24.65625 6.203125 33.40625 6.203125 
Q 37.3125 6.203125 41.140625 7.25 
Q 44.96875 8.296875 48.78125 10.40625 
L 48.78125 2.09375 
Q 45.015625 0.34375 40.984375 -0.53125 
Q 36.96875 -1.421875 32.421875 -1.421875 
Q 20.0625 -1.421875 12.78125 6.34375 
Q 5.515625 14.109375 5.515625 27.296875 
Q 5.515625 40.671875 12.859375 48.328125 
Q 20.21875 56 33.015625 56 
Q 37.15625 56 41.109375 55.140625 
Q 45.0625 54.296875 48.78125 52.59375 
z
" id="DejaVuSans-63"/>
     <path d="M 34.28125 27.484375 
Q 23.390625 27.484375 19.1875 25 
Q 14.984375 22.515625 14.984375 16.5 
Q 14.984375 11.71875 18.140625 8.90625 
Q 21.296875 6.109375 26.703125 6.109375 
Q 34.1875 6.109375 38.703125 11.40625 
Q 43.21875 16.703125 43.21875 25.484375 
L 43.21875 27.484375 
z
M 52.203125 31.203125 
L 52.203125 0 
L 43.21875 0 
L 43.21875 8.296875 
Q 40.140625 3.328125 35.546875 0.953125 
Q 30.953125 -1.421875 24.3125 -1.421875 
Q 15.921875 -1.421875 10.953125 3.296875 
Q 6 8.015625 6 15.921875 
Q 6 25.140625 12.171875 29.828125 
Q 18.359375 34.515625 30.609375 34.515625 
L 43.21875 34.515625 
L 43.21875 35.40625 
Q 43.21875 41.609375 39.140625 45 
Q 35.0625 48.390625 27.6875 48.390625 
Q 23 48.390625 18.546875 47.265625 
Q 14.109375 46.140625 10.015625 43.890625 
L 10.015625 52.203125 
Q 14.9375 54.109375 19.578125 55.046875 
Q 24.21875 56 28.609375 56 
Q 40.484375 56 46.34375 49.84375 
Q 52.203125 43.703125 52.203125 31.203125 
z
" id="DejaVuSans-61"/>
     <path id="DejaVuSans-20"/>
     <path d="M 53.515625 70.515625 
L 53.515625 60.890625 
Q 47.90625 63.578125 42.921875 64.890625 
Q 37.9375 66.21875 33.296875 66.21875 
Q 25.25 66.21875 20.875 63.09375 
Q 16.5 59.96875 16.5 54.203125 
Q 16.5 49.359375 19.40625 46.890625 
Q 22.3125 44.4375 30.421875 42.921875 
L 36.375 41.703125 
Q 47.40625 39.59375 52.65625 34.296875 
Q 57.90625 29 57.90625 20.125 
Q 57.90625 9.515625 50.796875 4.046875 
Q 43.703125 -1.421875 29.984375 -1.421875 
Q 24.8125 -1.421875 18.96875 -0.25 
Q 13.140625 0.921875 6.890625 3.21875 
L 6.890625 13.375 
Q 12.890625 10.015625 18.65625 8.296875 
Q 24.421875 6.59375 29.984375 6.59375 
Q 38.421875 6.59375 43.015625 9.90625 
Q 47.609375 13.234375 47.609375 19.390625 
Q 47.609375 24.75 44.3125 27.78125 
Q 41.015625 30.8125 33.5 32.328125 
L 27.484375 33.5 
Q 16.453125 35.6875 11.515625 40.375 
Q 6.59375 45.0625 6.59375 53.421875 
Q 6.59375 63.09375 13.40625 68.65625 
Q 20.21875 74.21875 32.171875 74.21875 
Q 37.3125 74.21875 42.625 73.28125 
Q 47.953125 72.359375 53.515625 70.515625 
z
" id="DejaVuSans-53"/>
     <path d="M 18.3125 70.21875 
L 18.3125 54.6875 
L 36.8125 54.6875 
L 36.8125 47.703125 
L 18.3125 47.703125 
L 18.3125 18.015625 
Q 18.3125 11.328125 20.140625 9.421875 
Q 21.96875 7.515625 27.59375 7.515625 
L 36.8125 7.515625 
L 36.8125 0 
L 27.59375 0 
Q 17.1875 0 13.234375 3.875 
Q 9.28125 7.765625 9.28125 18.015625 
L 9.28125 47.703125 
L 2.6875 47.703125 
L 2.6875 54.6875 
L 9.28125 54.6875 
L 9.28125 70.21875 
z
" id="DejaVuSans-74"/>
     <path d="M 54.890625 33.015625 
L 54.890625 0 
L 45.90625 0 
L 45.90625 32.71875 
Q 45.90625 40.484375 42.875 44.328125 
Q 39.84375 48.1875 33.796875 48.1875 
Q 26.515625 48.1875 22.3125 43.546875 
Q 18.109375 38.921875 18.109375 30.90625 
L 18.109375 0 
L 9.078125 0 
L 9.078125 54.6875 
L 18.109375 54.6875 
L 18.109375 46.1875 
Q 21.34375 51.125 25.703125 53.5625 
Q 30.078125 56 35.796875 56 
Q 45.21875 56 50.046875 50.171875 
Q 54.890625 44.34375 54.890625 33.015625 
z
" id="DejaVuSans-6e"/>
     <path d="M 41.109375 46.296875 
Q 39.59375 47.171875 37.8125 47.578125 
Q 36.03125 48 33.890625 48 
Q 26.265625 48 22.1875 43.046875 
Q 18.109375 38.09375 18.109375 28.8125 
L 18.109375 0 
L 9.078125 0 
L 9.078125 54.6875 
L 18.109375 54.6875 
L 18.109375 46.1875 
Q 20.953125 51.171875 25.484375 53.578125 
Q 30.03125 56 36.53125 56 
Q 37.453125 56 38.578125 55.875 
Q 39.703125 55.765625 41.0625 55.515625 
z
" id="DejaVuSans-72"/>
     <path d="M 9.8125 72.90625 
L 19.671875 72.90625 
L 19.671875 8.296875 
L 55.171875 8.296875 
L 55.171875 0 
L 9.8125 0 
z
" id="DejaVuSans-4c"/>
     <path d="M 48.6875 27.296875 
Q 48.6875 37.203125 44.609375 42.84375 
Q 40.53125 48.484375 33.40625 48.484375 
Q 26.265625 48.484375 22.1875 42.84375 
Q 18.109375 37.203125 18.109375 27.296875 
Q 18.109375 17.390625 22.1875 11.75 
Q 26.265625 6.109375 33.40625 6.109375 
Q 40.53125 6.109375 44.609375 11.75 
Q 48.6875 17.390625 48.6875 27.296875 
z
M 18.109375 46.390625 
Q 20.953125 51.265625 25.265625 53.625 
Q 29.59375 56 35.59375 56 
Q 45.5625 56 51.78125 48.09375 
Q 58.015625 40.1875 58.015625 27.296875 
Q 58.015625 14.40625 51.78125 6.484375 
Q 45.5625 -1.421875 35.59375 -1.421875 
Q 29.59375 -1.421875 25.265625 0.953125 
Q 20.953125 3.328125 18.109375 8.203125 
L 18.109375 0 
L 9.078125 0 
L 9.078125 75.984375 
L 18.109375 75.984375 
z
" id="DejaVuSans-62"/>
     <path d="M 32.171875 -5.078125 
Q 28.375 -14.84375 24.75 -17.8125 
Q 21.140625 -20.796875 15.09375 -20.796875 
L 7.90625 -20.796875 
L 7.90625 -13.28125 
L 13.1875 -13.28125 
Q 16.890625 -13.28125 18.9375 -11.515625 
Q 21 -9.765625 23.484375 -3.21875 
L 25.09375 0.875 
L 2.984375 54.6875 
L 12.5 54.6875 
L 29.59375 11.921875 
L 46.6875 54.6875 
L 56.203125 54.6875 
z
" id="DejaVuSans-79"/>
    </defs>
    <g transform="translate(513.605937 20.88)scale(0.12 -0.12)">
     <use xlink:href="#DejaVuSans-4d"/>
     <use x="86.279297" xlink:href="#DejaVuSans-6f"/>
     <use x="147.460938" xlink:href="#DejaVuSans-64"/>
     <use x="210.9375" xlink:href="#DejaVuSans-65"/>
     <use x="272.460938" xlink:href="#DejaVuSans-6c"/>
     <use x="300.244141" xlink:href="#DejaVuSans-69"/>
     <use x="328.027344" xlink:href="#DejaVuSans-63"/>
     <use x="383.007812" xlink:href="#DejaVuSans-61"/>
     <use x="444.287109" xlink:href="#DejaVuSans-20"/>
     <use x="476.074219" xlink:href="#DejaVuSans-53"/>
     <use x="539.550781" xlink:href="#DejaVuSans-74"/>
     <use x="578.759766" xlink:href="#DejaVuSans-61"/>
     <use x="640.039062" xlink:href="#DejaVuSans-6e"/>
     <use x="703.417969" xlink:href="#DejaVuSans-64"/>
     <use x="766.894531" xlink:href="#DejaVuSans-61"/>
     <use x="828.173828" xlink:href="#DejaVuSans-72"/>
     <use x="869.271484" xlink:href="#DejaVuSans-64"/>
     <use x="932.748047" xlink:href="#DejaVuSans-20"/>
     <use x="964.535156" xlink:href="#DejaVuSans-4c"/>
     <use x="1020.248047" xlink:href="#DejaVuSans-69"/>
     <use x="1048.03125" xlink:href="#DejaVuSans-62"/>
     <use x="1111.507812" xlink:href="#DejaVuSans-72"/>
     <use x="1152.621094" xlink:href="#DejaVuSans-61"/>
     <use x="1213.900391" xlink:href="#DejaVuSans-72"/>
     <use x="1255.013672" xlink:href="#DejaVuSans-79"/>
    </g>
   </g>
  </g>
 </g>
 <defs>
  <clipPath id="pc05684f589">
   <rect height="604.2" width="1092.44" x="46.24" y="26.88"/>
  </clipPath>
 </defs>
</svg>
